<!--
  The SVGs code is based on the Lucide library, licensed under the LGPL License.
  https://github.com/lucide-icons/lucide

  Copyright (c) Lucide Authors

  Modifications made by Passbolt SA.
   - Renaming colors and file name of SVGs.

  @url https://github.com/lucide-icons/lucide/tree/main/icons
-->
<svg width="40" height="40" viewBox="0 0 40 40" fill="none" xmlns="http://www.w3.org/2000/svg">
<path d="M18.1473 10.1104L8.97151 25.4287C8.78232 25.7563 8.68222 26.1278 8.68116 26.5061C8.6801 26.8844 8.77812 27.2564 8.96547 27.5851C9.15282 27.9138 9.42296 28.1877 9.74902 28.3795C10.0751 28.5714 10.4457 28.6745 10.824 28.6787H29.1757C29.554 28.6745 29.9246 28.5714 30.2507 28.3795C30.5767 28.1877 30.8469 27.9138 31.0342 27.5851C31.2216 27.2564 31.3196 26.8844 31.3185 26.5061C31.3175 26.1278 31.2174 25.7563 31.0282 25.4287L21.8523 10.1104C21.6592 9.79197 21.3873 9.52873 21.0628 9.34605C20.7383 9.16336 20.3722 9.06738 19.9998 9.06738C19.6275 9.06738 19.2614 9.16336 18.9369 9.34605C18.6124 9.52873 18.3405 9.79197 18.1473 10.1104V10.1104Z" stroke="var(--icon-color)" stroke-width="1.5" stroke-linecap="round" stroke-linejoin="round"/>
<path d="M20 15.6787V20.012" stroke="var(--icon-color)" stroke-width="1.5" stroke-linecap="round" stroke-linejoin="round"/>
<path d="M20 24.3447H20.01" stroke="var(--icon-color)" stroke-width="1.5" stroke-linecap="round" stroke-linejoin="round"/>
</svg>
