<!--
  The SVGs code is based on the Lucide library, licensed under the LGPL License.
  https://github.com/lucide-icons/lucide

  Copyright (c) Lucide Authors

  Modifications made by Passbolt SA.
   - Renaming colors and file name of SVGs.

  @url https://github.com/lucide-icons/lucide/tree/main/icons
-->
<svg width="40" height="40" viewBox="0 0 40 40" fill="none" xmlns="http://www.w3.org/2000/svg">
<path d="M24.3335 11.333H26.5002C27.0748 11.333 27.6259 11.5613 28.0322 11.9676C28.4386 12.3739 28.6668 12.925 28.6668 13.4997V28.6663C28.6668 29.241 28.4386 29.7921 28.0322 30.1984C27.6259 30.6047 27.0748 30.833 26.5002 30.833H13.5002C12.9255 30.833 12.3744 30.6047 11.9681 30.1984C11.5618 29.7921 11.3335 29.241 11.3335 28.6663V13.4997C11.3335 12.925 11.5618 12.3739 11.9681 11.9676C12.3744 11.5613 12.9255 11.333 13.5002 11.333H15.6668" stroke="var(--icon-color)" stroke-width="1.5" stroke-linecap="round" stroke-linejoin="round"/>
<path d="M23.2498 9.16699H16.7498C16.1515 9.16699 15.6665 9.65202 15.6665 10.2503V12.417C15.6665 13.0153 16.1515 13.5003 16.7498 13.5003H23.2498C23.8481 13.5003 24.3332 13.0153 24.3332 12.417V10.2503C24.3332 9.65202 23.8481 9.16699 23.2498 9.16699Z" stroke="var(--icon-color)" stroke-width="1.5" stroke-linecap="round" stroke-linejoin="round"/>
</svg>
