<!--
  The SVGs code is based on the Lucide library, licensed under the LGPL License.
  https://github.com/lucide-icons/lucide

  Copyright (c) Lucide Authors

  Modifications made by Passbolt SA.
   - Renaming colors and file name of SVGs.

  @url https://github.com/lucide-icons/lucide/tree/main/icons
-->
<svg width="40" height="40" viewBox="0 0 40 40" fill="none" xmlns="http://www.w3.org/2000/svg">
<path d="M29.75 19.4584C29.7537 20.8882 29.4197 22.2987 28.775 23.575C28.0106 25.1044 26.8356 26.3908 25.3814 27.2901C23.9272 28.1894 22.2514 28.666 20.5417 28.6667C19.1118 28.6704 17.7013 28.3364 16.425 27.6917L10.25 29.75L12.3083 23.575C11.6637 22.2987 11.3296 20.8882 11.3333 19.4584C11.334 17.7486 11.8107 16.0728 12.7099 14.6186C13.6092 13.1645 14.8956 11.9894 16.425 11.225C17.7013 10.5804 19.1118 10.2463 20.5417 10.25H21.0833C23.3414 10.3746 25.4741 11.3277 27.0732 12.9268C28.6723 14.5259 29.6254 16.6587 29.75 18.9167V19.4584Z" stroke="var(--icon-color)" stroke-width="1.5" stroke-linecap="round" stroke-linejoin="round"/>
</svg>
