<!--
 Passbolt ~ Open source password manager for teams
 Copyright (c) Passbolt SA (https://www.passbolt.com)

 Licensed under GNU Affero General Public License version 3 of the or any later version.
 For full copyright and license information, please see the LICENSE.txt
 Redistributions of files must retain the above copyright notice.

 @copyright     Copyright (c) Passbolt SA (https://www.passbolt.com)
 @license       https://opensource.org/licenses/AGPL-3.0 AGPL License
 @link          https://www.passbolt.com Passbolt(tm)
 @since         5.2.0
-->
<svg width="40" height="40" viewBox="0 0 40 40" fill="none" xmlns="http://www.w3.org/2000/svg">
<path d="M28.0168 23.2497C27.8726 23.5764 27.8296 23.9389 27.8933 24.2903C27.957 24.6417 28.1246 24.966 28.3743 25.2213L28.4393 25.2863C28.6408 25.4876 28.8006 25.7265 28.9096 25.9896C29.0187 26.2526 29.0748 26.5345 29.0748 26.8193C29.0748 27.104 29.0187 27.3859 28.9096 27.649C28.8006 27.912 28.6408 28.1509 28.4393 28.3522C28.2381 28.5536 27.9991 28.7134 27.7361 28.8225C27.4731 28.9315 27.1911 28.9876 26.9064 28.9876C26.6217 28.9876 26.3397 28.9315 26.0767 28.8225C25.8137 28.7134 25.5747 28.5536 25.3735 28.3522L25.3085 28.2872C25.0532 28.0374 24.7289 27.8699 24.3775 27.8062C24.026 27.7424 23.6636 27.7855 23.3368 27.9297C23.0164 28.067 22.7431 28.295 22.5507 28.5857C22.3582 28.8763 22.2549 29.2169 22.2535 29.5655V29.7497C22.2535 30.3243 22.0252 30.8754 21.6189 31.2817C21.2126 31.6881 20.6615 31.9163 20.0868 31.9163C19.5122 31.9163 18.9611 31.6881 18.5548 31.2817C18.1484 30.8754 17.9202 30.3243 17.9202 29.7497V29.6522C17.9118 29.2936 17.7957 28.9458 17.587 28.6541C17.3784 28.3624 17.0868 28.1401 16.7502 28.0163C16.4234 27.8721 16.061 27.8291 15.7095 27.8928C15.3581 27.9566 15.0338 28.1241 14.7785 28.3738L14.7135 28.4388C14.5123 28.6403 14.2733 28.8001 14.0103 28.9091C13.7473 29.0182 13.4653 29.0743 13.1806 29.0743C12.8958 29.0743 12.6139 29.0182 12.3509 28.9091C12.0878 28.8001 11.8489 28.6403 11.6477 28.4388C11.4462 28.2376 11.2864 27.9987 11.1774 27.7356C11.0683 27.4726 11.0122 27.1907 11.0122 26.9059C11.0122 26.6212 11.0683 26.3393 11.1774 26.0762C11.2864 25.8132 11.4462 25.5742 11.6477 25.373L11.7127 25.308C11.9624 25.0527 12.1299 24.7284 12.1937 24.377C12.2574 24.0256 12.2144 23.6631 12.0702 23.3363C11.9328 23.0159 11.7048 22.7427 11.4142 22.5502C11.1235 22.3577 10.7829 22.2544 10.4343 22.253H10.2502C9.67553 22.253 9.12443 22.0247 8.7181 21.6184C8.31177 21.2121 8.0835 20.661 8.0835 20.0863C8.0835 19.5117 8.31177 18.9606 8.7181 18.5543C9.12443 18.1479 9.67553 17.9197 10.2502 17.9197H10.3477C10.7062 17.9113 11.054 17.7952 11.3457 17.5866C11.6375 17.3779 11.8597 17.0863 11.9835 16.7497C12.1277 16.4229 12.1707 16.0605 12.107 15.709C12.0433 15.3576 11.8757 15.0333 11.626 14.778L11.561 14.713C11.3595 14.5118 11.1997 14.2728 11.0907 14.0098C10.9817 13.7468 10.9255 13.4648 10.9255 13.1801C10.9255 12.8954 10.9817 12.6134 11.0907 12.3504C11.1997 12.0874 11.3595 11.8484 11.561 11.6472C11.7622 11.4457 12.0012 11.2859 12.2642 11.1769C12.5272 11.0678 12.8092 11.0117 13.0939 11.0117C13.3786 11.0117 13.6606 11.0678 13.9236 11.1769C14.1866 11.2859 14.4256 11.4457 14.6268 11.6472L14.6918 11.7122C14.9471 11.9619 15.2714 12.1295 15.6229 12.1932C15.9743 12.2569 16.3367 12.2139 16.6635 12.0697H16.7502C17.0706 11.9323 17.3438 11.7043 17.5363 11.4137C17.7288 11.123 17.8321 10.7824 17.8335 10.4338V10.2497C17.8335 9.67504 18.0618 9.12394 18.4681 8.71761C18.8744 8.31128 19.4255 8.08301 20.0002 8.08301C20.5748 8.08301 21.1259 8.31128 21.5322 8.71761C21.9386 9.12394 22.1668 9.67504 22.1668 10.2497V10.3472C22.1682 10.6958 22.2715 11.0364 22.464 11.327C22.6565 11.6177 22.9297 11.8457 23.2502 11.983C23.5769 12.1272 23.9394 12.1702 24.2908 12.1065C24.6422 12.0428 24.9665 11.8753 25.2218 11.6255L25.2868 11.5605C25.4881 11.3591 25.727 11.1992 25.99 11.0902C26.2531 10.9812 26.535 10.9251 26.8197 10.9251C27.1045 10.9251 27.3864 10.9812 27.6495 11.0902C27.9125 11.1992 28.1514 11.3591 28.3527 11.5605C28.5541 11.7617 28.7139 12.0007 28.823 12.2637C28.932 12.5267 28.9881 12.8087 28.9881 13.0934C28.9881 13.3782 28.932 13.6601 28.823 13.9231C28.7139 14.1862 28.5541 14.4251 28.3527 14.6263L28.2877 14.6913C28.0379 14.9467 27.8704 15.2709 27.8067 15.6224C27.7429 15.9738 27.786 16.3363 27.9302 16.663V16.7497C28.0675 17.0701 28.2955 17.3434 28.5862 17.5358C28.8768 17.7283 29.2174 17.8316 29.566 17.833H29.7502C30.3248 17.833 30.8759 18.0613 31.2822 18.4676C31.6886 18.8739 31.9168 19.425 31.9168 19.9997C31.9168 20.5743 31.6886 21.1254 31.2822 21.5317C30.8759 21.9381 30.3248 22.1663 29.7502 22.1663H29.6527C29.3041 22.1677 28.9635 22.271 28.6728 22.4635C28.3822 22.656 28.1542 22.9293 28.0168 23.2497V23.2497Z" stroke="var(--icon-color)" stroke-width="1.5" stroke-linecap="round" stroke-linejoin="round"/>
<path d="M20 23.25C21.7949 23.25 23.25 21.7949 23.25 20C23.25 18.2051 21.7949 16.75 20 16.75C18.2051 16.75 16.75 18.2051 16.75 20C16.75 21.7949 18.2051 23.25 20 23.25Z" stroke="var(--icon-color)" stroke-width="1.5" stroke-linecap="round" stroke-linejoin="round"/>
</svg>
