<!--
  The SVGs code is based on the Lucide library, licensed under the LGPL License.
  https://github.com/lucide-icons/lucide

  Copyright (c) Lucide Authors

  Modifications made by Passbolt SA.
   - Renaming colors and file name of SVGs.

  @url https://github.com/lucide-icons/lucide/tree/main/icons
-->
<svg width="40" height="40" viewBox="0 0 40 40" fill="none" xmlns="http://www.w3.org/2000/svg">
<path d="M13.5677 9.14475L10.1797 15.911V21.8032C10.1797 22.3241 10.3866 22.8236 10.7549 23.192C11.1233 23.5603 11.6229 23.7672 12.1438 23.7672H27.8563C28.3772 23.7672 28.8768 23.5603 29.2451 23.192C29.6134 22.8236 29.8204 22.3241 29.8204 21.8032V15.911L26.4324 9.14475C26.2698 8.81752 26.0191 8.54214 25.7086 8.34957C25.398 8.157 25.0399 8.05488 24.6745 8.05469H15.3255C14.9601 8.05488 14.602 8.157 14.2915 8.34957C13.981 8.54214 13.7303 8.81752 13.5677 9.14475V9.14475Z" stroke="var(--icon-color)" stroke-width="1.5" stroke-linecap="round" stroke-linejoin="round"/>
<path d="M29.8204 15.9111H10.1797" stroke="var(--icon-color)" stroke-width="1.5" stroke-linecap="round" stroke-linejoin="round"/>
<path d="M14.1079 19.8389H14.1182" stroke="var(--icon-color)" stroke-width="1.5" stroke-linecap="round" stroke-linejoin="round"/>
<path d="M18.0361 19.8389H18.0464" stroke="var(--icon-color)" stroke-width="1.5" stroke-linecap="round" stroke-linejoin="round"/>
<path d="M26.3668 29.7568L22.1582 29.7568" stroke="var(--icon-color)" stroke-width="1.5" stroke-linecap="round" stroke-linejoin="round"/>
<path d="M17.8418 29.7568L13.6333 29.7568" stroke="var(--icon-color)" stroke-width="1.5" stroke-linecap="round" stroke-linejoin="round"/>
<path d="M20 27.599L20 23.7676" stroke="var(--icon-color)" stroke-width="1.5" stroke-linecap="round" stroke-linejoin="round"/>
<path d="M19.9999 31.9149C21.1918 31.9149 22.1581 30.9487 22.1581 29.7568C22.1581 28.5649 21.1918 27.5986 19.9999 27.5986C18.808 27.5986 17.8418 28.5649 17.8418 29.7568C17.8418 30.9487 18.808 31.9149 19.9999 31.9149Z" stroke="var(--icon-color)" stroke-width="1.5" stroke-linecap="round" stroke-linejoin="round"/>
</svg>
