<!--
  The SVGs code is based on the Lucide library, licensed under the LGPL License.
  https://github.com/lucide-icons/lucide

  Copyright (c) Lucide Authors

  Modifications made by Passbolt SA.
   - Renaming colors and file name of SVGs.

  @url https://github.com/lucide-icons/lucide/tree/main/icons
-->
<svg width="40" height="40" viewBox="0 0 40 40" fill="none" xmlns="http://www.w3.org/2000/svg">
<path d="M22.925 13.8254C22.7265 14.0279 22.6153 14.3001 22.6153 14.5837C22.6153 14.8673 22.7265 15.1395 22.925 15.342L24.6583 17.0754C24.8608 17.2739 25.1331 17.385 25.4166 17.385C25.7002 17.385 25.9725 17.2739 26.175 17.0754L30.2591 12.9912C30.8039 14.195 30.9688 15.5362 30.732 16.8361C30.4951 18.136 29.8677 19.3329 28.9334 20.2672C27.9991 21.2015 26.8023 21.8288 25.5024 22.0657C24.2025 22.3025 22.8613 22.1376 21.6575 21.5929L14.1716 29.0787C13.7407 29.5097 13.1561 29.7518 12.5466 29.7518C11.9371 29.7518 11.3526 29.5097 10.9216 29.0787C10.4907 28.6477 10.2485 28.0632 10.2485 27.4537C10.2485 26.8442 10.4907 26.2597 10.9216 25.8287L18.4075 18.3429C17.8627 17.1391 17.6978 15.7979 17.9346 14.498C18.1715 13.1981 18.7989 12.0012 19.7332 11.0669C20.6675 10.1326 21.8643 9.50521 23.1642 9.26837C24.4641 9.03152 25.8053 9.19646 27.0091 9.7412L22.9358 13.8145L22.925 13.8254Z" stroke="var(--icon-color)" stroke-width="1.5" stroke-linecap="round" stroke-linejoin="round"/>
</svg>
