<!--
  The SVGs code is based on the Lucide library, licensed under the LGPL License.
  https://github.com/lucide-icons/lucide

  Copyright (c) Lucide Authors

  Modifications made by Passbolt SA.
   - Renaming colors and file name of SVGs.

  @url https://github.com/lucide-icons/lucide/tree/main/icons
-->
<svg width="40" height="40" viewBox="0 0 40 40" fill="none" xmlns="http://www.w3.org/2000/svg">
<path d="M26.5002 11.333H13.5002C12.3035 11.333 11.3335 12.3031 11.3335 13.4997V26.4997C11.3335 27.6963 12.3035 28.6663 13.5002 28.6663H26.5002C27.6968 28.6663 28.6668 27.6963 28.6668 26.4997V13.4997C28.6668 12.3031 27.6968 11.333 26.5002 11.333Z" stroke="var(--icon-color)" stroke-width="1.5" stroke-linecap="round" stroke-linejoin="round"/>
<path d="M23.25 16.75H16.75V23.25H23.25V16.75Z" stroke="var(--icon-color)" stroke-width="1.5" stroke-linecap="round" stroke-linejoin="round"/>
<path d="M16.75 8.08301V11.333" stroke="var(--icon-color)" stroke-width="1.5" stroke-linecap="round" stroke-linejoin="round"/>
<path d="M23.25 8.08301V11.333" stroke="var(--icon-color)" stroke-width="1.5" stroke-linecap="round" stroke-linejoin="round"/>
<path d="M16.75 28.667V31.917" stroke="var(--icon-color)" stroke-width="1.5" stroke-linecap="round" stroke-linejoin="round"/>
<path d="M23.25 28.667V31.917" stroke="var(--icon-color)" stroke-width="1.5" stroke-linecap="round" stroke-linejoin="round"/>
<path d="M28.6665 16.75H31.9165" stroke="var(--icon-color)" stroke-width="1.5" stroke-linecap="round" stroke-linejoin="round"/>
<path d="M28.6665 22.167H31.9165" stroke="var(--icon-color)" stroke-width="1.5" stroke-linecap="round" stroke-linejoin="round"/>
<path d="M8.0835 16.75H11.3335" stroke="var(--icon-color)" stroke-width="1.5" stroke-linecap="round" stroke-linejoin="round"/>
<path d="M8.0835 22.167H11.3335" stroke="var(--icon-color)" stroke-width="1.5" stroke-linecap="round" stroke-linejoin="round"/>
</svg>
