<!--
  The SVGs code is based on the Lucide library, licensed under the LGPL License.
  https://github.com/lucide-icons/lucide

  Copyright (c) Lucide Authors

  Modifications made by Passbolt SA.
   - Renaming colors and file name of SVGs.

  @url https://github.com/lucide-icons/lucide/tree/main/icons
-->
<svg width="40" height="40" viewBox="0 0 40 40" fill="none" xmlns="http://www.w3.org/2000/svg">
<path d="M10.25 13.5H12.4167H29.75" stroke="var(--icon-color)" stroke-width="1.5" stroke-linecap="round" stroke-linejoin="round"/>
<path d="M27.5832 13.5V28.6667C27.5832 29.2413 27.3549 29.7924 26.9486 30.1987C26.5422 30.6051 25.9911 30.8333 25.4165 30.8333H14.5832C14.0085 30.8333 13.4574 30.6051 13.0511 30.1987C12.6448 29.7924 12.4165 29.2413 12.4165 28.6667V13.5" stroke="var(--icon-color)" stroke-width="1.5" stroke-linecap="round" stroke-linejoin="round"/>
<path d="M15.6665 13.5003V11.3337C15.6665 10.759 15.8948 10.2079 16.3011 9.80159C16.7074 9.39527 17.2585 9.16699 17.8332 9.16699H22.1665C22.7411 9.16699 23.2922 9.39527 23.6986 9.80159C24.1049 10.2079 24.3332 10.759 24.3332 11.3337V13.5003" stroke="var(--icon-color)" stroke-width="1.5" stroke-linecap="round" stroke-linejoin="round"/>
</svg>
