<!--
  The SVGs code is based on the Lucide library, licensed under the LGPL License.
  https://github.com/lucide-icons/lucide

  Copyright (c) Lucide Authors

  Modifications made by Passbolt SA.
   - Renaming colors and file name of SVGs.

  @url https://github.com/lucide-icons/lucide/tree/main/icons
-->
<svg width="40" height="40" viewBox="0 0 40 40" fill="none" xmlns="http://www.w3.org/2000/svg">
<path d="M19.9998 30.8337C25.9829 30.8337 30.8332 25.9834 30.8332 20.0003C30.8332 14.0172 25.9829 9.16699 19.9998 9.16699C14.0168 9.16699 9.1665 14.0172 9.1665 20.0003C9.1665 25.9834 14.0168 30.8337 19.9998 30.8337Z" stroke="var(--icon-color)" stroke-width="1.5" stroke-linecap="round" stroke-linejoin="round"/>
<path d="M16.8477 16.7496C17.1024 16.0256 17.6051 15.4151 18.2668 15.0262C18.9285 14.6373 19.7065 14.4952 20.4629 14.6249C21.2194 14.7547 21.9055 15.148 22.3998 15.7351C22.8941 16.3223 23.1646 17.0655 23.1635 17.833C23.1635 19.9996 19.9135 21.083 19.9135 21.083" stroke="var(--icon-color)" stroke-width="1.5" stroke-linecap="round" stroke-linejoin="round"/>
<path d="M20 25.417H20.01" stroke="var(--icon-color)" stroke-width="1.5" stroke-linecap="round" stroke-linejoin="round"/>
</svg>
