<!--
  The SVGs code is based on the Lucide library, licensed under the LGPL License.
  https://github.com/lucide-icons/lucide

  Copyright (c) Lucide Authors

  Modifications made by Passbolt SA.
   - Renaming colors and file name of SVGs.

  @url https://github.com/lucide-icons/lucide/tree/main/icons
-->
<svg width="40" height="40" viewBox="0 0 40 40" fill="none">
<path d="M25.4165 10.25C25.701 9.96547 26.0388 9.73977 26.4106 9.58578C26.7823 9.43179 27.1808 9.35254 27.5832 9.35254C27.9856 9.35254 28.384 9.43179 28.7558 9.58578C29.1275 9.73977 29.4653 9.96547 29.7498 10.25C30.0344 10.5345 30.2601 10.8723 30.4141 11.2441C30.568 11.6158 30.6473 12.0143 30.6473 12.4167C30.6473 12.8191 30.568 13.2175 30.4141 13.5893C30.2601 13.961 30.0344 14.2988 29.7498 14.5833L15.1248 29.2083L9.1665 30.8333L10.7915 24.875L25.4165 10.25Z" stroke="var(--icon-color)" stroke-width="var(--icon-stroke-width)"  stroke-linecap="round" stroke-linejoin="round"/>
</svg>
