<!--
  The SVGs code is based on the Lucide library, licensed under the LGPL License.
  https://github.com/lucide-icons/lucide

  Copyright (c) Lucide Authors

  Modifications made by Passbolt SA.
   - Renaming colors and file name of SVGs.

  @url https://github.com/lucide-icons/lucide/tree/main/icons
-->
<svg width="40" height="40" viewBox="0 0 40 40" fill="none">
<path d="M9.1665 10.25H15.6665C16.8158 10.25 17.918 10.7065 18.7306 11.5192C19.5433 12.3319 19.9998 13.4341 19.9998 14.5833V29.75C19.9998 28.888 19.6574 28.0614 19.0479 27.4519C18.4384 26.8424 17.6118 26.5 16.7498 26.5H9.1665V10.25Z" stroke="var(--icon-color)" stroke-width="var(--icon-stroke-width)"  stroke-linecap="round" stroke-linejoin="round"/>
<path d="M30.8333 10.25H24.3333C23.1841 10.25 22.0819 10.7065 21.2692 11.5192C20.4565 12.3319 20 13.4341 20 14.5833V29.75C20 28.888 20.3424 28.0614 20.9519 27.4519C21.5614 26.8424 22.388 26.5 23.25 26.5H30.8333V10.25Z" stroke="var(--icon-color)" stroke-width="var(--icon-stroke-width)"  stroke-linecap="round" stroke-linejoin="round"/>
</svg>
