<!--
  The SVGs code is based on the Lucide library, licensed under the LGPL License.
  https://github.com/lucide-icons/lucide

  Copyright (c) Lucide Authors

  Modifications made by Passbolt SA.
   - Renaming colors and file name of SVGs.

  @url https://github.com/lucide-icons/lucide/tree/main/icons
-->
<svg width="40" height="40" viewBox="0 0 40 40" fill="none">
<path d="M27.6208 15.4502C27.4963 15.5468 25.2986 16.7851 25.2986 19.5387C25.2986 22.7237 28.0951 23.8504 28.1788 23.8784C28.1659 23.947 27.7345 25.4215 26.7044 26.9238C25.7858 28.2459 24.8264 29.5658 23.367 29.5658C21.9076 29.5658 21.532 28.718 19.8472 28.718C18.2054 28.718 17.6216 29.5937 16.2867 29.5937C14.9517 29.5937 14.0203 28.3704 12.9493 26.868C11.7088 25.1038 10.7065 22.3631 10.7065 19.7619C10.7065 15.5897 13.4193 13.377 16.0892 13.377C17.5079 13.377 18.6904 14.3084 19.5811 14.3084C20.4289 14.3084 21.7509 13.3212 23.3649 13.3212C23.9765 13.3212 26.1742 13.377 27.6208 15.4502ZM22.5987 11.5548C23.2661 10.7629 23.7383 9.66403 23.7383 8.56518C23.7383 8.4128 23.7254 8.25827 23.6975 8.13379C22.6115 8.17457 21.3195 8.85706 20.5405 9.76061C19.9288 10.456 19.3579 11.5548 19.3579 12.6687C19.3579 12.8361 19.3858 13.0035 19.3987 13.0572C19.4674 13.0701 19.579 13.0851 19.6906 13.0851C20.6649 13.0851 21.8904 12.4326 22.5987 11.5548Z" stroke="var(--icon-color)" stroke-width="var(--icon-stroke-width)" />
</svg>
