<?xml version="1.0" encoding="UTF-8"?>
<svg width="452px" height="6px" viewBox="0 0 452 6" version="1.1" xmlns="http://www.w3.org/2000/svg" xmlns:xlink="http://www.w3.org/1999/xlink">
    <g id="Page-1" stroke="none" stroke-width="1" fill="none" fill-rule="evenodd">
        <g id="Login" transform="translate(-374.000000, -252.000000)" fill-rule="nonzero">
            <g id="Group-6" transform="translate(374.000000, 170.000000)">
                <g id="Loading-bar" transform="translate(226.000000, 85.000000) scale(1, -1) translate(-226.000000, -85.000000) translate(0.000000, 82.000000)">
                    <path id="Rectangle4" d="M3,0 L449,0 C450.656854,-3.04359188e-16 452,1.34314575 452,3 L452,6 L0,6 L0,3 C-2.02906125e-16,1.34314575 1.34314575,3.04359188e-16 3,0 Z" fill="#D40000" transform="translate(226.000000, 3.000000) scale(1, -1) translate(-226.000000, -3.000000) "></path>
                    <rect id="Rectangle5" fill="#DE8888" transform="translate(255.500000, 3.000000) scale(1, -1) translate(-255.500000, -3.000000) " x="151" y="0" width="209" height="6"></rect>
                    <rect id="Rectangle6" fill="#A72D2D" transform="translate(56.500000, 3.000000) scale(1, -1) translate(-56.500000, -3.000000) " x="13" y="0" width="87" height="6"></rect>
                </g>
            </g>
        </g>
    </g>
</svg>