<!--
  The SVGs code is based on the Lucide library, licensed under the LGPL License.
  https://github.com/lucide-icons/lucide

  Copyright (c) Lucide Authors

  Modifications made by Passbolt SA.
   - Renaming colors and file name of SVGs.

  @url https://github.com/lucide-icons/lucide/tree/main/icons
-->
<svg width="40" height="40" viewBox="0 0 40 40" fill="none">
<path d="M12.904 12.5355L9.1665 19.9997V26.4997C9.1665 27.0743 9.39478 27.6254 9.80111 28.0317C10.2074 28.4381 10.7585 28.6663 11.3332 28.6663H28.6665C29.2411 28.6663 29.7922 28.4381 30.1986 28.0317C30.6049 27.6254 30.8332 27.0743 30.8332 26.4997V19.9997L27.0957 12.5355C26.9163 12.1745 26.6398 11.8707 26.2972 11.6583C25.9546 11.4459 25.5596 11.3332 25.1565 11.333H14.8432C14.4401 11.3332 14.045 11.4459 13.7025 11.6583C13.3599 11.8707 13.0834 12.1745 12.904 12.5355V12.5355Z" stroke="var(--icon-color)" stroke-width="var(--icon-stroke-width)"  stroke-linecap="round" stroke-linejoin="round"/>
<path d="M30.8332 20H24.3332L22.1665 23.25H17.8332L15.6665 20H9.1665" stroke="var(--icon-color)" stroke-width="var(--icon-stroke-width)"  stroke-linecap="round" stroke-linejoin="round"/>
</svg>
