<!--
 Passbolt ~ Open source password manager for teams
 Copyright (c) Passbolt SA (https://www.passbolt.com)

 Licensed under GNU Affero General Public License version 3 of the or any later version.
 For full copyright and license information, please see the LICENSE.txt
 Redistributions of files must retain the above copyright notice.

 @copyright     Copyright (c) Passbolt SA (https://www.passbolt.com)
 @license       https://opensource.org/licenses/AGPL-3.0 AGPL License
 @link          https://www.passbolt.com Passbolt(tm)
 @since         5.2.0
-->
<svg width="40" height="40" viewBox="0 0 40 40" fill="none">
<path d="M20.0002 8.08366C22.6091 8.08366 25.1459 8.93983 27.2213 10.5208C29.2967 12.1017 30.7959 14.32 31.4888 16.8353C32.1818 19.3505 32.0301 22.0236 31.0572 24.4443C30.0842 26.8651 28.3438 28.8996 26.1029 30.2357C23.8621 31.5718 21.2447 32.1356 18.6525 31.8405C16.0603 31.5455 13.6366 30.4079 11.7533 28.6024C9.87003 26.7969 8.63131 24.4233 8.22727 21.8458C7.82323 19.2684 8.2762 16.6296 9.51665 14.3344L20.0002 20.0003L20.0002 8.08366Z" stroke="var(--icon-color)" stroke-width="var(--icon-stroke-width)"  stroke-linejoin="round"/>
<path d="M16.7743 8.52858C14.7464 9.09883 12.9059 10.1965 11.4403 11.7097L11.4643 11.7329C12.9258 10.224 14.7611 9.12945 16.7834 8.5608L16.7743 8.52858Z" stroke="var(--icon-color)" stroke-width="var(--icon-stroke-width)"  stroke-linejoin="round"/>
</svg>
