<!--
  The SVGs code is based on the Lucide library, licensed under the LGPL License.
  https://github.com/lucide-icons/lucide

  Copyright (c) Lucide Authors

  Modifications made by Passbolt SA.
   - Renaming colors and file name of SVGs.

  @url https://github.com/lucide-icons/lucide/tree/main/icons
-->
<svg width="40" height="40" viewBox="0 0 40 40" fill="none">
<path d="M27.5833 10.25H12.4167C11.22 10.25 10.25 11.22 10.25 12.4167V27.5833C10.25 28.78 11.22 29.75 12.4167 29.75H27.5833C28.78 29.75 29.75 28.78 29.75 27.5833V12.4167C29.75 11.22 28.78 10.25 27.5833 10.25Z" stroke="var(--icon-color)" stroke-width="var(--icon-stroke-width)"  stroke-linecap="round" stroke-linejoin="round"/>
<path d="M27.5833 10.25H12.4167C11.22 10.25 10.25 11.22 10.25 12.4167V27.5833C10.25 28.78 11.22 29.75 12.4167 29.75L24.3371 17.8794L29.75 23.2507V12.4167C29.75 11.22 28.78 10.25 27.5833 10.25Z" stroke="var(--icon-color)" stroke-width="var(--icon-stroke-width)"  stroke-linecap="round" stroke-linejoin="round"/>
<path d="M16.2085 17.833C17.106 17.833 17.8335 17.1055 17.8335 16.208C17.8335 15.3105 17.106 14.583 16.2085 14.583C15.311 14.583 14.5835 15.3105 14.5835 16.208C14.5835 17.1055 15.311 17.833 16.2085 17.833Z" stroke="var(--icon-color)" stroke-width="var(--icon-stroke-width)"  stroke-linecap="round" stroke-linejoin="round"/>
<path d="M29.7498 23.2497L24.3332 17.833L12.4165 29.7497" stroke="var(--icon-color)" stroke-width="var(--icon-stroke-width)"  stroke-linecap="round" stroke-linejoin="round"/>
</svg>
