<svg xmlns="http://www.w3.org/2000/svg" viewBox="0 0 128 128"><path d="M0 0h128v128H0z" style="fill:none;stroke-width:0"/><path d="M57.011 56.577h3.558v35.206h-3.558zM64 28.489c4.829 0 8.768-3.94 8.768-8.77 0-.636-.127-1.271-.254-1.907-2.796-.508-5.591-.89-8.514-.762-2.796 0-5.718.254-8.514.762-.127.636-.254 1.271-.254 1.907 0 4.83 3.94 8.77 8.768 8.77" style="fill:#fff;stroke-width:0"/><path d="M88.144 23.659c.38 1.652.508 3.177.508 4.83 0 9.786-5.845 18.301-14.105 22.242l-.635 10.421 7.497 7.5-7.497 7.498 4.955 4.957-4.955 4.957.635 9.278L64 105.89 53.453 95.34V50.73a24.55 24.55 0 0 1-14.105-22.243c0-1.652.254-3.177.509-4.83-14.232 8.516-22.873 23.768-22.873 40.29 0 26.056 21.094 47.027 47.016 47.027 26.05 0 47.016-21.098 47.016-47.026-.127-16.523-8.767-31.775-22.872-40.29" style="fill:#fff;stroke-width:0"/><path d="M64 3.1C30.42 3.1 3.1 30.42 3.1 64s27.32 60.9 60.9 60.9 60.9-27.32 60.9-60.9S97.58 3.1 64 3.1m0 116.676C33.259 119.776 8.249 94.755 8.249 64S33.259 8.224 64 8.224 119.751 33.245 119.751 64 94.741 119.776 64 119.776" style="fill:#fff;stroke-width:0"/></svg>
