<svg xmlns="http://www.w3.org/2000/svg" fill="none" viewBox="0 0 24 24"><rect width="24" height="24" fill="#1e1b4b" rx="6"/><path fill="#c4b5fd" d="M12 4.5c-.9 0-1.6.7-1.6 1.6v.4H9.2c-.5 0-.9.4-.9.9V9c0 .5.4.9.9.9h1.2v.2c0 .9.7 1.6 1.6 1.6h.8c.9 0 1.6-.7 1.6-1.6v-.2h1.2c.5 0 .9-.4.9-.9V7.4c0-.5-.4-.9-.9-.9h-2v-.4c0-.9-.7-1.6-1.6-1.6h-.8Z"/><path fill="#f5d565" d="M8.2 8.8h7.6l-.6 1.4H8.8zm.9 1.8h5.8l-.5 1.2H9.6z"/><circle cx="12" cy="14.8" r="2.1" fill="#c4b5fd"/><rect width="1.6" height="3.2" x="11.2" y="16.7" fill="#c4b5fd" rx=".8"/></svg>
