<svg width="18" height="19" viewBox="0 0 18 19" fill="none" xmlns="http://www.w3.org/2000/svg">
<path d="M7.45356 12.4689C7.3866 12.2094 7.25131 11.9725 7.06177 11.783C6.87223 11.5934 6.63536 11.4581 6.37581 11.3912L1.77456 10.2047C1.69606 10.1824 1.62697 10.1351 1.57777 10.07C1.52857 10.0049 1.50195 9.92554 1.50195 9.84394C1.50195 9.76233 1.52857 9.68296 1.57777 9.61785C1.62697 9.55275 1.69606 9.50547 1.77456 9.48319L6.37581 8.29594C6.63527 8.22904 6.87208 8.09387 7.06161 7.90447C7.25114 7.71507 7.38648 7.47835 7.45356 7.21894L8.64006 2.61769C8.66212 2.53888 8.70935 2.46944 8.77455 2.41998C8.83975 2.37052 8.91934 2.34375 9.00118 2.34375C9.08302 2.34375 9.16262 2.37052 9.22782 2.41998C9.29302 2.46944 9.34025 2.53888 9.36231 2.61769L10.5481 7.21894C10.615 7.47849 10.7503 7.71536 10.9398 7.9049C11.1294 8.09444 11.3663 8.22973 11.6258 8.29669L16.2271 9.48244C16.3062 9.50426 16.376 9.55144 16.4257 9.61674C16.4754 9.68204 16.5023 9.76186 16.5023 9.84394C16.5023 9.92602 16.4754 10.0058 16.4257 10.0711C16.376 10.1364 16.3062 10.1836 16.2271 10.2054L11.6258 11.3912C11.3663 11.4581 11.1294 11.5934 10.9398 11.783C10.7503 11.9725 10.615 12.2094 10.5481 12.4689L9.36156 17.0702C9.3395 17.149 9.29227 17.2184 9.22707 17.2679C9.16187 17.3174 9.08227 17.3441 9.00043 17.3441C8.9186 17.3441 8.839 17.3174 8.7738 17.2679C8.7086 17.2184 8.66137 17.149 8.63931 17.0702L7.45356 12.4689Z" fill="var(--Badges-Sparkles)"/>
<path d="M15 3.09375V6.09375" stroke="var(--Badges-Sparkles)" stroke-linecap="round" stroke-linejoin="round"/>
<path d="M16.5 4.59375H13.5" stroke="var(--Badges-Sparkles)" stroke-linecap="round" stroke-linejoin="round"/>
<path d="M3 13.5938V15.0938" stroke="var(--Badges-Sparkles)" stroke-linecap="round" stroke-linejoin="round"/>
<path d="M3.75 14.3438H2.25" stroke="var(--Badges-Sparkles)" stroke-linecap="round" stroke-linejoin="round"/>
</svg>
