<?xml version="1.0" encoding="UTF-8"?>
<svg width="1695px" height="700px" viewBox="0 0 1695 700" version="1.1" xmlns="http://www.w3.org/2000/svg" xmlns:xlink="http://www.w3.org/1999/xlink">
    <title>Cloud workspace is archived</title>
    <g id="Page-1" stroke="none" stroke-width="1" fill="none" fill-rule="evenodd">
        <g id="Passbolt-Landing-Page" transform="translate(-1236.000000, -944.000000)">
            <g id="Group-2" transform="translate(1236.000000, 944.000000)">
                <g id="Background_Elemens">
                    <rect id="Rectangle" fill="#ED2724" x="119.874105" y="695.259843" width="353.887768" height="3.96850394"></rect>
                    <rect id="Rectangle" fill="#ED2724" x="1182.41965" y="695.259843" width="60.9847105" height="3.96850394"></rect>
                    <rect id="Rectangle" fill="#ED2724" x="896.353936" y="556.141732" width="200.047495" height="3.96850394"></rect>
                    <rect id="Rectangle" fill="#14233E" x="1096.18087" y="556.141732" width="595.400455" height="3.96850394"></rect>
                    <rect id="Rectangle" fill="#ED2724" x="1252.33702" y="641.464567" width="183.83637" height="3.96850394"></rect>
                    <rect id="Rectangle" stroke="#221F1F" stroke-width="0.6363" fill="#FFFFFF" x="893.927781" y="641.464567" width="358.519519" height="3.96850394"></rect>
                    <rect id="Rectangle" fill="#D66327" x="473.872154" y="695.259843" width="130.681522" height="3.96850394"></rect>
                    <rect id="Rectangle" fill="#741F13" x="604.553676" y="695.259843" width="40.031555" height="3.96850394"></rect>
                    <rect id="Rectangle" fill="#741F13" x="773.722837" y="556.141732" width="122.6311" height="3.96850394"></rect>
                    <rect id="Rectangle" stroke="#221F1F" stroke-width="0.6363" fill="#FFFFFF" x="636.093689" y="556.141732" width="137.629148" height="3.96850394"></rect>
                    <rect id="Rectangle" fill="#ED2724" x="436.707872" y="556.141732" width="199.385817" height="3.96850394"></rect>
                    <rect id="Rectangle" fill="#14233E" x="0.882238126" y="556.141732" width="225.301561" height="3.96850394"></rect>
                    <rect id="Rectangle" fill="#741F13" x="1243.29408" y="695.259843" width="191.555953" height="3.96850394"></rect>
                    <rect id="Rectangle" fill="#F48C88" x="1383.7905" y="654.362205" width="198.393299" height="3.96850394"></rect>
                    <rect id="Rectangle" fill="#ED2724" x="1383.7905" y="668.472441" width="165.750488" height="3.96850394"></rect>
                    <rect id="Rectangle" fill="#14233E" x="1436.17339" y="641.464567" width="146.672088" height="3.96850394"></rect>
                    <polygon id="Rectangle" fill="#F48C88" transform="translate(121.361338, 612.550488) rotate(-180.000000) translate(-121.361338, -612.550488) " points="1.54237285 610.566236 241.180304 610.566236 241.180304 614.53474 1.54237285 614.53474"></polygon>
                    <polygon id="Rectangle" fill="#ED2724" transform="translate(72.275263, 626.561953) rotate(-180.000000) translate(-72.275263, -626.561953) " points="34.1184644 624.577701 110.432062 624.577701 110.432062 628.546205 34.1184644 628.546205"></polygon>
                    <polygon id="Rectangle" fill="#F48C88" transform="translate(704.949728, 571.434803) rotate(-180.000000) translate(-704.949728, -571.434803) " points="636.135154 569.450551 773.764302 569.450551 773.764302 573.419055 636.135154 573.419055"></polygon>
                    <g id="Group" transform="translate(100.354587, 0.000000)" stroke="#F8B8BA" stroke-linecap="round" stroke-linejoin="round" stroke-width="1.2725">
                        <path d="M333.044893,319.464567 L527.46812,319.574803 C541.47365,319.574803 553.714704,310.204724 557.353936,296.645669 L625.837671,41.6692913 C640.50488,-12.8976378 718.031555,-12.8976378 732.809044,41.6692913 L761.261223,147.496063 C768.319128,173.732283 792.139558,191.811024 819.37866,191.590551 L957.779766,190.488189 L998.914118,271.181102 L1377.06344,271.181102 C1387.42973,271.181102 1395.03904,281.102362 1392.39232,291.133858 L1381.25407,332.692913 C1378.49707,343.055118 1383.12882,353.968504 1392.5026,359.149606 L1532.55791,437.19685" id="Path"></path>
                        <path d="M13.1232921,392.330709 L574.55758,392.440945 C588.56311,392.440945 600.804164,383.070866 604.443396,369.511811 L629.918022,275.03937 C634.880612,256.409449 656.826285,248.251969 672.816851,259.165354 L714.833442,299.070866 C723.876383,305.244094 735.896877,305.244094 744.939818,299.070866 L760.709824,284.299213 C784.419974,262.141732 821.143136,261.480315 845.514964,282.976378 L907.712752,337.543307" id="Path"></path>
                        <ellipse id="Oval" cx="326.648666" cy="319.464567" rx="6.39622642" ry="6.39370079"></ellipse>
                        <ellipse id="Oval" cx="1532.33735" cy="438.519685" rx="6.39622642" ry="6.39370079"></ellipse>
                        <ellipse id="Oval" cx="6.72706571" cy="392.330709" rx="6.39622642" ry="6.39370079"></ellipse>
                    </g>
                    <path d="M824.672088,526.598425 L749.571568,425.952756 C743.065062,417.133858 729.83149,417.244094 723.324984,426.062992 L711.525049,442.15748 C708.216656,446.566929 702.151269,447.889764 697.298959,445.133858 L669.287899,429.03937 C660.575797,424.07874 649.54782,425.070866 641.938517,431.574803 L566.617437,495.952756 C565.07352,497.275591 563.088484,497.606299 561.103448,497.055118 L543.899805,491.433071 C542.025049,490.771654 539.929733,490.88189 538.054977,491.653543 L446.853611,527.149606 C444.096617,528.251969 444.868575,532.330709 447.846129,532.330709 L821.915094,532.330709 C824.782368,532.440945 826.436565,529.023622 824.672088,526.598425 Z" id="Path" fill="#FCDEDB"></path>
                    <path d="M1314.86565,526.598425 L1389.96617,425.952756 C1396.47267,417.133858 1409.70625,417.244094 1416.21275,426.062992 L1428.01269,442.15748 C1431.32108,446.566929 1437.38647,447.889764 1442.23878,445.133858 L1470.24984,429.03937 C1478.96194,424.07874 1489.98992,425.070866 1497.59922,431.574803 L1572.9203,495.952756 C1574.46422,497.275591 1576.44925,497.606299 1578.43429,497.055118 L1595.63793,491.433071 C1597.51269,490.771654 1599.608,490.88189 1601.48276,491.653543 L1692.68412,527.149606 C1695.44112,528.251969 1694.66916,532.330709 1691.69161,532.330709 L1317.8432,532.330709 C1314.75537,532.440945 1313.10117,529.023622 1314.86565,526.598425 Z" id="Path" fill="#FCDEDB"></path>
                </g>
            </g>
        </g>
    </g>
</svg>