<?xml version="1.0" encoding="UTF-8"?>
<svg width="585px" height="308px" viewBox="0 0 585 308" version="1.1" xmlns="http://www.w3.org/2000/svg" xmlns:xlink="http://www.w3.org/1999/xlink">
    <title>Group 8</title>
    <defs>
        <path d="M0.515984615,0.00889112903 L0.453115385,0.0690967742 C0.206884615,0.329818548 0.0615153846,0.73466129 0.0615153846,1.25889919 L0.0615153846,1.13552419 L0.0615153846,1.13552419 L0.0615153846,19.8627823 C0.0615153846,19.8644758 0.0615153846,19.865746 0.0615153846,19.8671008 C0.0615153846,19.8654919 0.0615153846,19.8641371 0.0615153846,19.8624435 L0.0615153846,19.7387298 C0.0615153846,20.3064073 0.231,20.7340282 0.514969231,20.9904315 L10.9986462,10.4993226 L0.515984615,0.00889112903 M0.0725924165,19.8681169 C0.0725924165,19.9147742 0.0742088897,19.9600766 0.0772263062,20.0047016 C0.0742088897,19.9604153 0.0725924165,19.9147742 0.0725924165,19.8681169" id="path-1"></path>
        <linearGradient x1="61.2768294%" y1="95.5670711%" x2="25.9963354%" y2="27.8361624%" id="linearGradient-3">
            <stop stop-color="#00A0FF" offset="0%"></stop>
            <stop stop-color="#00A1FF" offset="0.657445%"></stop>
            <stop stop-color="#00BEFF" offset="26.01%"></stop>
            <stop stop-color="#00D2FF" offset="51.22%"></stop>
            <stop stop-color="#00DFFF" offset="76.04%"></stop>
            <stop stop-color="#00E3FF" offset="100%"></stop>
        </linearGradient>
        <path d="M3.28365049,0.0177058824 L3.28365049,0.0177058824 L3.35681553,0.0617647059 L7.15712621,2.35125882 C7.51945631,2.56965882 7.76093204,2.83442353 7.88139806,3.11458824 C7.76124272,2.83442353 7.51968932,2.56932941 7.15712621,2.35092941 L3.35681553,0.0614352941 L3.28365049,0.0177058824 M3.28458252,0.138352941 L0.0764271845,3.54051765 L3.28427184,6.94210588 L7.15712621,4.60921176 C7.64893204,4.31290588 7.92504854,3.93103529 7.97118447,3.54084706 C7.97118447,3.54051765 7.97118447,3.53985882 7.97118447,3.53928235 C7.92504854,3.15 7.64893204,2.7678 7.15712621,2.47157647 L3.28458252,0.138352941" id="path-4"></path>
        <linearGradient x1="107.590142%" y1="50.8682001%" x2="-130.463869%" y2="50.8682001%" id="linearGradient-6">
            <stop stop-color="#FFE000" offset="0%"></stop>
            <stop stop-color="#FFBD00" offset="40.87%"></stop>
            <stop stop-color="#FFA500" offset="77.54%"></stop>
            <stop stop-color="#FF9C00" offset="100%"></stop>
        </linearGradient>
        <path d="M0.772994012,0.033 C0.50357485,0.033 0.26848503,0.128930233 0.0851616766,0.310131783 L0.0854730539,0.310472868 C0.268796407,0.129271318 0.504197605,0.033 0.773616766,0.033 C0.79697006,0.033 0.820712575,0.0336821705 0.844766467,0.0349612403 C0.820401198,0.0336821705 0.796347305,0.033 0.772994012,0.033 M0.773305389,0.157921577 C0.503886228,0.157581395 0.268796407,0.253852713 0.0854730539,0.435054264 L0.0854730539,0.435054264 L0.0854730539,0.435310078 L9.72929341,10.9993178 L12.9446527,7.47658915 L12.9446527,7.47658915 L1.64539521,0.444007752 C1.33277246,0.249844961 1.03657485,0.157921577 0.773305389,0.157921577 M0.103832848,0.316554637 C0.0811709967,0.337944034 0.0589230604,0.360623244 0.0370890392,0.384162329 L0.103832848,0.316554637" id="path-7"></path>
        <linearGradient x1="86.7252262%" y1="73.2084168%" x2="-50.4795896%" y2="-54.5281003%" id="linearGradient-9">
            <stop stop-color="#FF3A44" offset="0%"></stop>
            <stop stop-color="#C31162" offset="100%"></stop>
        </linearGradient>
        <path d="M9.6514491,0.0839384615 L9.6514491,0.0839384615 L0.00669461078,10.5673615 C0.190017964,10.7468308 0.424796407,10.8420231 0.693904192,10.8420231 C0.957874251,10.8420231 1.25430539,10.7504692 1.5675509,10.5574615 L12.866497,3.57897692 L9.6514491,0.0839384615 M12.9392036,3.65792308 L1.5675509,10.681 C1.25430539,10.8740923 0.957874251,10.9656462 0.693904192,10.9656462 C0.692658683,10.9656462 0.691802395,10.9656462 0.690556886,10.9656462 C0.692113772,10.9656462 0.693281437,10.9656462 0.695149701,10.9656462 C0.958497006,10.9656462 1.25461677,10.8744308 1.5675509,10.6813385 L12.9392036,3.65792308" id="path-10"></path>
        <linearGradient x1="-19.3296937%" y1="123.74071%" x2="41.8411754%" y2="67.7931223%" id="linearGradient-12">
            <stop stop-color="#32A071" offset="0%"></stop>
            <stop stop-color="#2DA771" offset="6.85%"></stop>
            <stop stop-color="#15CF74" offset="47.62%"></stop>
            <stop stop-color="#06E775" offset="80.09%"></stop>
            <stop stop-color="#00F076" offset="100%"></stop>
        </linearGradient>
        <polyline id="path-13" points="0.0393955536 0.172799991 0.0393955536 0.172799991 0.17336888 0.248888876 0.0393955536 0.172799991"></polyline>
        <linearGradient x1="6809.6%" y1="4300.35%" x2="-17387.4%" y2="4300.35%" id="linearGradient-15">
            <stop stop-color="#CCB300" offset="0%"></stop>
            <stop stop-color="#CC9700" offset="40.87%"></stop>
            <stop stop-color="#CC8400" offset="77.54%"></stop>
            <stop stop-color="#CC7D00" offset="100%"></stop>
        </linearGradient>
        <path d="M0.828166667,0.0351818182 C0.53975,0.0351818182 0.28775,0.137818182 0.0915,0.331 L0.0911666667,0.330636364 C0.0905,0.331363636 0.0895,0.332363636 0.0885833333,0.333090909 L0.0348333333,0.390272727 C0.0331666667,0.392090909 0.0315833333,0.394181818 0.0295833333,0.396272727 L0.0915,0.463818182 C0.28775,0.270636364 0.539416667,0.168 0.827833333,0.168363636 C1.10966667,0.168363636 1.42675,0.266363636 1.76141667,0.473363636 L13.8574167,7.97090909 L13.9349167,7.88636364 L13.8564167,7.83772727 L1.76141667,0.340545455 C1.45641667,0.152 1.16633333,0.0536363636 0.904333333,0.0372727273 C0.878583333,0.0359090909 0.853166667,0.0351818182 0.828166667,0.0351818182" id="path-16"></path>
        <linearGradient x1="86.2468837%" y1="73.1345712%" x2="-50.1414325%" y2="-11.7778176%" id="linearGradient-18">
            <stop stop-color="#CC2E36" offset="0%"></stop>
            <stop stop-color="#9C0E4E" offset="100%"></stop>
        </linearGradient>
        <path d="M0.765,0.044875 L0.765,0.044875 C0.349285714,0.42975 0.103857143,1.026875 0.103857143,1.80125 L0.103857143,1.983375 C0.103857143,1.2095 0.349285714,0.611875 0.765,0.227 L0.871142857,0.138125 L0.765,0.044875" id="path-19"></path>
        <linearGradient x1="387.155942%" y1="1531.75135%" x2="-102.379475%" y2="449.567965%" id="linearGradient-21">
            <stop stop-color="#008DE0" offset="0%"></stop>
            <stop stop-color="#008DE0" offset="0.657445%"></stop>
            <stop stop-color="#00A7E0" offset="26.01%"></stop>
            <stop stop-color="#00B8E0" offset="51.22%"></stop>
            <stop stop-color="#00C4E0" offset="76.04%"></stop>
            <stop stop-color="#00C7E0" offset="100%"></stop>
        </linearGradient>
        <polyline id="path-22" points="0.0504888864 0.0510577752 0.0504888864 0.0510577752 0.0504888864 0.0510577752 0.156159992 0.157155548 0.156159992 0.156728881 0.0504888864 0.0510577752"></polyline>
        <linearGradient x1="14404.35%" y1="10180.7%" x2="-8353.95%" y2="-12577.6%" id="linearGradient-24">
            <stop stop-color="#E0333C" offset="0%"></stop>
            <stop stop-color="#AB0F56" offset="100%"></stop>
        </linearGradient>
        <path d="M0.0999180328,0.0523255814 L0.0999180328,0.0523255814 L0.0236885246,0.117209302 L4.1104918,2.09386047 C4.6295082,2.34481395 4.92090164,2.66860465 4.96959016,2.99839535 C4.96959016,2.87734884 4.93786885,2.75637209 4.87483607,2.63860465 C4.74770492,2.40125581 4.49286885,2.17695349 4.1104918,1.99193023 L0.0999180328,0.0523255814" id="path-25"></path>
        <linearGradient x1="112.78588%" y1="100.021313%" x2="-288.225058%" y2="100.021313%" id="linearGradient-27">
            <stop stop-color="#E0C500" offset="0%"></stop>
            <stop stop-color="#E0A600" offset="40.87%"></stop>
            <stop stop-color="#E09100" offset="77.54%"></stop>
            <stop stop-color="#E08900" offset="100%"></stop>
        </linearGradient>
        <path d="M4.96959016,-0.000279069767 C4.92090164,0.33027907 4.6295082,0.653790698 4.1104918,0.904813953 L0.0233606557,2.88118605 L0.0995901639,2.94606977 L0.0999180328,2.94606977 L4.1104918,1.00646512 C4.68270492,0.72955814 4.9692623,0.364674419 4.96959016,-0.000279069767" id="path-28"></path>
        <linearGradient x1="112.785032%" y1="-0.0236792877%" x2="-288.199324%" y2="-0.0236792877%" id="linearGradient-30">
            <stop stop-color="#FFE840" offset="0%"></stop>
            <stop stop-color="#FFCE40" offset="40.87%"></stop>
            <stop stop-color="#FFBC40" offset="77.54%"></stop>
            <stop stop-color="#FFB540" offset="100%"></stop>
        </linearGradient>
        <path d="M0.0519285714,0.013125 L0.0519285714,0.19575 C0.0519285714,0.19825 0.0519285714,0.20025 0.0519285714,0.202625 C0.0519285714,0.203125 0.0519285714,0.203625 0.0519285714,0.204125 C0.0519285714,0.273 0.0554933734,0.340375 0.0621476703,0.40575 C0.0621476703,0.40675 0.0621476703,0.40775 0.0621476703,0.40875 C0.0621476703,0.409625 0.0621476703,0.410625 0.0628606307,0.411625 C0.0628606307,0.413625 0.0628606307,0.4155 0.0628606307,0.4175 C0.0628606307,0.418 0.0628606307,0.4185 0.0628606307,0.419 C0.134394323,1.0855 0.527948457,1.6055 1.1517888,1.952625 L1.1517888,1.952625 L1.1517888,1.952625 L1.32551348,1.860875 C0.527948457,1.482375 0.0519285714,0.851125 0.0519285714,0.013125" id="path-31"></path>
        <linearGradient x1="978.657379%" y1="23.3823801%" x2="-369.68846%" y2="-1009.83193%" id="linearGradient-33">
            <stop stop-color="#40B8FF" offset="0%"></stop>
            <stop stop-color="#40B9FF" offset="0.657445%"></stop>
            <stop stop-color="#40CEFF" offset="26.01%"></stop>
            <stop stop-color="#40DDFF" offset="51.22%"></stop>
            <stop stop-color="#40E7FF" offset="76.04%"></stop>
            <stop stop-color="#40EAFF" offset="100%"></stop>
        </linearGradient>
        <path d="M13.8570833,0.027 L1.76141667,7.52454545 C1.42608333,7.73190909 1.10875,7.83027273 0.826166667,7.83027273 C0.538083333,7.83027273 0.28675,7.728 0.0905,7.53518182 L0.0295833333,7.60190909 L0.0295833333,7.60190909 C0.0488333333,7.62390909 0.0683333333,7.64527273 0.0888333333,7.66545455 C0.0895,7.66618182 0.0905,7.66690909 0.0911666667,7.66763636 C0.285833333,7.859 0.5345,7.96127273 0.82,7.96309091 L0.82,7.96309091 C0.820666667,7.96309091 0.821583333,7.96309091 0.822583333,7.96309091 C0.823916667,7.96309091 0.824833333,7.96309091 0.826166667,7.96309091 C1.10875,7.96309091 1.42608333,7.86472727 1.76141667,7.65727273 L13.9349167,0.111818182 L13.9345833,0.111545455 L13.8570833,0.027" id="path-34"></path>
        <linearGradient x1="-18.8069326%" y1="92.2719518%" x2="42.0959584%" y2="54.3534038%" id="linearGradient-36">
            <stop stop-color="#65B895" offset="0%"></stop>
            <stop stop-color="#62BD95" offset="6.85%"></stop>
            <stop stop-color="#50DB97" offset="47.62%"></stop>
            <stop stop-color="#44ED98" offset="80.09%"></stop>
            <stop stop-color="#40F498" offset="100%"></stop>
        </linearGradient>
    </defs>
    <g id="Page-1" stroke="none" stroke-width="1" fill="none" fill-rule="evenodd">
        <g id="Group-8">
            <g id="Group-7" fill-rule="nonzero">
                <rect id="Rectangle-4" fill="#2E2E2E" x="0" y="0" width="168" height="308" rx="24"></rect>
                <rect id="Rectangle-5" fill="#FFFFFF" x="9" y="38" width="151" height="223"></rect>
                <circle id="Oval-2" stroke="#393737" fill="#2D2D2D" cx="86" cy="285" r="13"></circle>
            </g>
            <g id="Group-7" transform="translate(212.000000, 0.000000)" fill-rule="nonzero">
                <rect id="Rectangle-4" fill="#2E2E2E" x="0" y="0" width="168" height="308" rx="24"></rect>
                <rect id="Rectangle-5" fill="#FFFFFF" x="9" y="38" width="151" height="223"></rect>
                <circle id="Oval-2" stroke="#393737" fill="#2D2D2D" cx="86" cy="285" r="13"></circle>
            </g>
            <g id="Group-7" transform="translate(417.000000, 0.000000)" fill-rule="nonzero">
                <rect id="Rectangle-4" fill="#2E2E2E" x="0" y="0" width="168" height="308" rx="24"></rect>
                <rect id="Rectangle-5" fill="#FFFFFF" x="9" y="38" width="151" height="223"></rect>
                <circle id="Oval-2" stroke="#393737" fill="#2D2D2D" cx="86" cy="285" r="13"></circle>
            </g>
            <g id="Group-2" transform="translate(28.000000, 110.000000)">
                <g id="Group" fill-rule="nonzero">
                    <g id="Path">
                        <path d="M103.710242,-0.0001235 L8.97849033,-0.0001235 C8.63318117,-0.0001235 8.29201533,-0.0001235 7.94761958,0.0019 C7.65932833,0.0038 7.37333475,0.0093195 7.082275,0.013965 C6.44995872,0.0214717134 5.81912943,0.0775924469 5.19526917,0.1818395 C4.57228518,0.288355997 3.96881662,0.489169953 3.40527383,0.7774895 C2.84242028,1.06824813 2.32812489,1.44605915 1.88104508,1.8972165 C1.43161818,2.34710515 1.05698616,2.86711556 0.771554583,3.437252 C0.485335228,4.00625366 0.286869803,4.61599138 0.183012917,5.245406 C0.0781686363,5.87402566 0.0217509751,6.50989452 0.01426625,7.147306 C0.00552758333,7.438576 0.00460475,7.730815 0,8.022123 L0,29.98067 C0.00460475,30.275645 0.00552758333,30.561405 0.01426625,30.856475 C0.0217532703,31.4938549 0.0781709324,32.129692 0.183012917,32.75828 C0.286583022,33.3880626 0.485060182,33.9981503 0.771554583,34.567365 C1.05685656,35.1356577 1.43154127,35.6535629 1.88104508,36.10095 C2.32642971,36.5541133 2.84105752,36.9321814 3.40527383,37.220715 C3.96881234,37.5098062 4.57221583,37.7118154 5.19526917,37.819975 C5.81923548,37.923387 6.44999989,37.9795305 7.082275,37.987935 C7.37333475,37.994395 7.65932833,37.9981 7.94761958,37.9981 C8.29200592,38 8.6332,38 8.97849033,38 L103.710242,38 C104.048677,38 104.392573,38 104.731008,37.9981 C105.017934,37.9981 105.312205,37.994395 105.599131,37.987935 C106.230211,37.9799775 106.859788,37.9238304 107.482464,37.819975 C108.107528,37.711054 108.713094,37.5090983 109.279353,37.220715 C109.84306,36.9320144 110.357213,36.5539566 110.802216,36.10095 C111.25056,35.6518107 111.626045,35.1342844 111.914889,34.567365 C112.199234,33.9977362 112.395822,33.3876973 112.497875,32.75828 C112.602885,32.1296057 112.661304,31.4939101 112.672648,30.856475 C112.676321,30.561405 112.676321,30.275645 112.676321,29.98067 C112.683666,29.635535 112.683666,29.2923 112.683666,28.94156 L112.683666,9.0593235 C112.683666,8.711424 112.683666,8.366308 112.676321,8.022123 C112.676321,7.730815 112.676321,7.438576 112.672648,7.147268 C112.661307,6.50980132 112.602887,5.87407389 112.497875,5.245368 C112.395537,4.61631752 112.198961,4.00662811 111.914889,3.437214 C111.333621,2.29443628 110.411898,1.36422413 109.279353,0.777404 C108.713093,0.489789011 108.107461,0.289028389 107.482464,0.181754 C106.859895,0.077047644 106.230253,0.0209073766 105.599131,0.013832 C105.312205,0.009196 105.017934,0.003629 104.731008,0.0017765 C104.392573,-0.0001235 104.048677,-0.0001235 103.710242,-0.0001235 L103.710242,-0.0001235 Z" fill="#A6A6A6"></path>
                        <path d="M7.95221492,37.16875 C7.66530792,37.16875 7.38533158,37.165045 7.10067517,37.158585 C6.51098634,37.1508337 5.92267575,37.0990438 5.34056833,37.00364 C4.79778253,36.9093318 4.271969,36.7339013 3.7804715,36.483135 C3.29348077,36.2344465 2.84930608,35.9083592 2.46496317,35.517365 C2.07505698,35.1309765 1.75044226,34.6828318 1.50398292,34.19069 C1.2548078,33.6953497 1.0823638,33.1644046 0.992657917,32.61635 C0.895783354,32.0274591 0.843370202,31.4319976 0.835870417,30.8351 C0.82990025,30.634745 0.822084417,29.967655 0.822084417,29.967655 L0.822084417,8.022123 C0.822084417,8.022123 0.83040875,7.3652835 0.8359175,7.17231 C0.843098487,6.57635795 0.895206856,5.98182044 0.991791583,5.3938435 C1.08166305,4.84428758 1.25424055,4.31181142 1.50354975,3.8148485 C1.74910329,3.32304666 2.07191582,2.87456728 2.45947325,2.486796 C2.84659508,2.09534035 3.2921906,1.76757391 3.78001008,1.5154495 C4.27037798,1.26548892 4.79519779,1.09129592 5.33688642,0.9987065 C5.92090557,0.902344332 6.51125854,0.85024628 7.10299167,0.8428495 L7.95267633,0.83125 L104.726394,0.83125 L105.58623,0.843315 C106.172581,0.850344238 106.757571,0.901977506 107.336223,0.9977755 C107.883396,1.09152631 108.413685,1.26693476 108.909654,1.518233 C109.886933,2.02633675 110.682127,2.8302048 111.183779,3.8171665 C111.429109,4.31069869 111.599025,4.83883142 111.687759,5.3836405 C111.785494,5.97644181 111.840193,6.57565142 111.851421,7.17649 C111.854152,7.44553 111.854152,7.73452 111.854152,8.022123 C111.861591,8.378373 111.861591,8.7174565 111.861591,9.0593235 L111.861591,28.94156 C111.861591,29.286695 111.861591,29.62347 111.854152,29.963 C111.854152,30.27194 111.854152,30.554945 111.850479,30.846215 C111.839495,31.4363319 111.785707,32.024846 111.689548,32.60704 C111.601681,33.1590481 111.430176,33.6941375 111.181048,34.19354 C110.932847,34.6803401 110.610096,35.1246029 110.224692,35.509955 C109.840003,35.9030504 109.395044,36.2310456 108.906923,36.48133 C108.412328,36.734024 107.882819,36.9101033 107.336223,37.00364 C106.75416,37.0995529 106.165793,37.1513461 105.57606,37.158585 C105.300246,37.165045 105.011437,37.16875 104.731008,37.16875 L103.710242,37.17065 L7.95221492,37.16875 Z" fill="#000000"></path>
                    </g>
                    <g id="_Group_" transform="translate(9.361275, 8.047059)" fill="#FFFFFF">
                        <g id="_Group_3">
                            <path d="M13.9627542,11.2385872 C13.9833362,9.62693984 14.8208412,8.13826798 16.1818482,7.29413018 C15.3193499,6.05142831 13.9265113,5.29177561 12.4235058,5.24433418 C10.8422215,5.07688718 9.30923524,6.19892268 8.50344166,6.19892268 C7.68205407,6.19892268 6.44140824,5.26095918 5.10543749,5.28868968 C3.34764835,5.34598267 1.748638,6.32979038 0.893437824,7.88016618 C-0.92774551,11.0611652 0.430693407,15.7361627 2.17523449,18.3074422 C3.04806532,19.5665247 4.06815399,20.9729522 5.40291941,20.9230772 C6.70906757,20.8684237 7.19688857,20.0828212 8.77352107,20.0828212 C10.3355201,20.0828212 10.7931983,20.9230772 12.1550461,20.8913662 C13.5566039,20.8684142 14.4396518,19.6266882 15.2818597,18.3556832 C15.9089872,17.4585409 16.3915608,16.4670033 16.7117052,15.4177987 C15.0470801,14.7075134 13.964697,13.0619738 13.9627542,11.2385872 L13.9627542,11.2385872 Z" id="_Path_"></path>
                            <path d="M11.3904692,3.55328668 C12.1546568,2.62778899 12.531143,1.43821851 12.4399756,0.237197676 C11.2724669,0.36090714 10.194016,0.923838368 9.41950441,1.81382718 C8.65470979,2.69192075 8.2672666,3.84070222 8.34251082,5.00714768 C9.52567434,5.0194376 10.6490631,4.48358673 11.3904692,3.55328668 L11.3904692,3.55328668 Z" id="_Path_2"></path>
                        </g>
                        <g id="Group" transform="translate(22.655392, 8.550000)">
                            <path d="M7.81797092,9.18560868 L3.36068592,9.18560868 L2.29027458,12.3742362 L0.402345917,12.3742362 L4.62421425,0.577136176 L6.58570592,0.577136176 L10.8075742,12.3742362 L8.88745,12.3742362 L7.81797092,9.18560868 Z M3.82231917,7.71422018 L7.3554525,7.71422018 L5.61373642,2.53931368 L5.56499575,2.53931368 L3.82231917,7.71422018 Z" id="Shape"></path>
                            <path d="M19.9253747,8.07418468 C19.9253747,10.7469907 18.5073566,12.4642202 16.3674567,12.4642202 C15.2613612,12.5225926 14.2194797,11.9381203 13.6849968,10.9594202 L13.6445052,10.9594202 L13.6445052,15.2195812 L11.8945118,15.2195812 L11.8945118,3.77320218 L13.5884383,3.77320218 L13.5884383,5.20376918 L13.6206245,5.20376918 C14.1788523,4.2312047 15.2218573,3.64698407 16.3352706,3.68320868 C18.4990417,3.68321818 19.9253747,5.40879818 19.9253747,8.07418468 Z M18.1266407,8.07418468 C18.1266407,6.33283468 17.2346282,5.18799918 15.8736279,5.18799918 C14.5365366,5.18799918 13.6371696,6.35694568 13.6371696,8.07418468 C13.6371696,9.80719368 14.5365366,10.9677897 15.8736279,10.9677897 C17.2346376,10.9677897 18.1266407,9.83131418 18.1266407,8.07418468 Z" id="Shape"></path>
                            <path d="M29.3089324,8.07418468 C29.3089324,10.7469907 27.8909143,12.4642202 25.7510144,12.4642202 C24.6449189,12.5225926 23.6030373,11.9381203 23.0685545,10.9594202 L23.0280628,10.9594202 L23.0280628,15.2195812 L21.2780695,15.2195812 L21.2780695,3.77320218 L22.9719583,3.77320218 L22.9719583,5.20376918 L23.0041445,5.20376918 C23.5623764,4.23120529 24.6053854,3.6469881 25.7188,3.68321818 C27.882637,3.68321818 29.3089324,5.40879818 29.3089324,8.07418468 Z M27.5102078,8.07418468 C27.5102078,6.33283468 26.6181858,5.18799918 25.2571856,5.18799918 C23.9200943,5.18799918 23.0207273,6.35694568 23.0207273,8.07418468 C23.0207273,9.80719368 23.9200943,10.9677897 25.2571856,10.9677897 C26.6181953,10.9677897 27.5102078,9.83131418 27.5102078,8.07418468 L27.5102078,8.07418468 Z" id="Shape"></path>
                            <path d="M35.5106926,9.08726468 C35.6403601,10.2571422 36.7668759,11.0252647 38.3062655,11.0252647 C39.7813016,11.0252647 40.8425128,10.2571042 40.8425128,9.20226218 C40.8425128,8.28658568 40.2024714,7.73831218 38.6869813,7.36256818 L37.1714912,6.99425318 C35.024237,6.47101218 34.0273887,5.45792268 34.0273887,3.81397618 C34.0273887,1.77852518 35.7856592,0.380429176 38.2823566,0.380429176 C40.7532899,0.380429176 42.447207,1.77852518 42.5042249,3.81397618 L40.7376582,3.81397618 C40.6319091,2.63667918 39.6672469,1.92604118 38.257506,1.92604118 C36.8477651,1.92604118 35.8831123,2.64503918 35.8831123,3.69152118 C35.8831123,4.52555468 36.4992448,5.01632468 38.0064577,5.39202118 L39.2948083,5.71116418 C41.6940337,6.28357718 42.6908821,7.25586418 42.6908821,8.98142518 C42.6908821,11.1885032 40.9482432,12.5708292 38.1765792,12.5708292 C35.5833139,12.5708292 33.8324072,11.2209742 33.7192942,9.08717918 L35.5106926,9.08726468 Z" id="Path"></path>
                            <path d="M46.4676811,1.73775118 L46.4676811,3.77320218 L48.0889298,3.77320218 L48.0889298,5.17129818 L46.4676811,5.17129818 L46.4676811,9.91294768 C46.4676811,10.6495682 46.7923018,10.9928317 47.5049834,10.9928317 C47.697452,10.9894458 47.8896092,10.9758102 48.0806525,10.9519817 L48.0806525,12.3417272 C47.76023,12.4021278 47.4345475,12.4294829 47.1086359,12.4233702 C45.3825609,12.4233702 44.7094105,11.7693142 44.7094105,10.1012472 L44.7094105,5.17129818 L43.4698005,5.17129818 L43.4698005,3.77320218 L44.7093917,3.77320218 L44.7093917,1.73775118 L46.4676811,1.73775118 Z" id="Path"></path>
                            <path d="M49.027875,8.07418468 C49.027875,5.36798618 50.6077374,3.66744818 53.0713446,3.66744818 C55.5432196,3.66744818 57.1157276,5.36794818 57.1157276,8.07418468 C57.1157276,10.7878122 55.5514968,12.4809212 53.0713446,12.4809212 C50.5920681,12.4809212 49.027875,10.7878027 49.027875,8.07418468 Z M55.3326252,8.07418468 C55.3326252,6.21778968 54.4893533,5.12213568 53.0713352,5.12213568 C51.653317,5.12213568 50.8109679,6.22614018 50.8109679,8.07418468 C50.8109679,9.93799918 51.653317,11.0253122 53.0713352,11.0253122 C54.4893533,11.0253122 55.3326252,9.93799918 55.3326252,8.07418468 L55.3326252,8.07418468 Z" id="Shape"></path>
                            <path d="M58.5585304,3.77320218 L60.2276063,3.77320218 L60.2276063,5.23715218 L60.268098,5.23715218 C60.5008554,4.29474116 61.3567895,3.64614116 62.3187937,3.68319918 C62.5204649,3.6824888 62.7215796,3.70458439 62.9183717,3.74907218 L62.9183717,5.40043818 C62.6637742,5.32195233 62.3981853,5.2859169 62.1320801,5.29375318 C61.6175988,5.27269684 61.1196951,5.47954917 60.7691037,5.85999685 C60.4185123,6.24044453 60.2502596,6.75647838 60.3085237,7.27260318 L60.3085237,12.3742172 L58.5585304,12.3742172 L58.5585304,3.77320218 Z" id="Path"></path>
                            <path d="M70.9868825,9.84800568 C70.7514658,11.4093782 69.2442436,12.4809117 67.3158515,12.4809117 C64.8356993,12.4809117 63.2963003,10.8044942 63.2963003,8.11499668 C63.2963003,5.41714868 64.8439765,3.66743868 67.2422885,3.66743868 C69.6010505,3.66743868 71.0843638,5.30210368 71.0843638,7.90996768 L71.0843638,8.51485168 L65.0628481,8.51485168 L65.0628481,8.62153668 C65.0066281,9.26186672 65.2257956,9.89570465 65.6646013,10.3618226 C66.1034069,10.8279406 66.7195576,11.0814128 67.3563243,11.0577642 C68.2055591,11.1380388 69.0062214,10.64607 69.3251798,9.84799618 L70.9868825,9.84800568 Z M65.0711088,7.28097268 L69.3334477,7.28097268 C69.3652058,6.70558379 69.1575976,6.14292311 68.7606413,5.72854115 C68.363685,5.31415919 67.8133724,5.08562757 67.2422885,5.09800568 C66.666687,5.09454029 66.1135604,5.32317907 65.7058515,5.73310276 C65.2981426,6.14302644 65.069634,6.70026895 65.0711088,7.28097268 L65.0711088,7.28097268 Z" id="Shape"></path>
                        </g>
                    </g>
                </g>
                <g id="_Group_4" transform="translate(34.000000, 7.000000)" fill="#FFFFFF" fill-rule="nonzero">
                    <g id="Group">
                        <path d="M2.20286198,0.731 C2.94040517,0.674384181 3.66281241,0.974547428 4.17124596,1.54887182 C4.6796795,2.12319621 4.92054765,2.91114479 4.82755307,3.69584 C4.82755307,5.60209 3.86440974,6.69784 2.20286198,6.69784 L0.188017394,6.69784 L0.188017394,0.731 L2.20286198,0.731 Z M1.05438552,5.854 L2.10608677,5.854 C2.63317321,5.88770201 3.14639836,5.66555901 3.50325881,5.24925179 C3.86011927,4.83294457 4.02262264,4.26679442 3.94564782,3.708 C4.01702236,3.15152453 3.85217877,2.59004622 3.49620312,2.17713398 C3.14022748,1.76422175 2.63037216,1.5430863 2.10608677,1.57421 L1.05438552,1.57421 L1.05438552,5.854 Z" id="Shape"></path>
                        <path d="M5.80621485,4.44434 C5.73403273,3.63722505 6.09583343,2.85611193 6.73987869,2.42859737 C7.38392396,2.0010828 8.19886026,2.0010828 8.84290553,2.42859737 C9.4869508,2.85611193 9.84875149,3.63722505 9.77656938,4.44434 C9.85012484,5.25232226 9.48865438,6.03495038 8.84403807,6.4633853 C8.19942175,6.89182022 7.38336247,6.89182022 6.73874616,6.4633853 C6.09412984,6.03495038 5.73265938,5.25232226 5.80621485,4.44434 Z M8.92206444,4.44434 C8.92206444,3.46827 8.51214402,2.89747 7.79276166,2.89747 C7.07063086,2.89747 6.66440307,3.46827 6.66440307,4.44435 C6.66440307,5.42824 7.0706589,5.99464 7.79276166,5.99464 C8.51216271,5.99464 8.92206444,5.42432 8.92206444,4.44434 L8.92206444,4.44434 Z" id="Shape"></path>
                        <polygon id="Path" points="15.0542493 6.69775 14.1924433 6.69775 13.3224199 3.38134 13.2566909 3.38134 12.3903134 6.69775 11.5367153 6.69775 10.3763756 2.19482 11.2190174 2.19482 11.9731012 5.63082 12.0351843 5.63082 12.9006456 2.19482 13.6976389 2.19482 14.5631002 5.63082 14.6288292 5.63082 15.3792577 2.19482 16.2100269 2.19482"></polygon>
                        <path d="M17.1859496,2.19482 L17.9856819,2.19482 L17.9856819,2.91015 L18.047765,2.91015 C18.2636535,2.38347794 18.7681223,2.06130747 19.3039638,2.1079 C19.7188639,2.07453177 20.1254367,2.2447899 20.4088865,2.57060207 C20.6923363,2.89641424 20.8219034,3.34242376 20.7610047,3.7827 L20.7610047,6.6977 L19.9302355,6.6977 L19.9302355,4.00586 C19.9302355,3.28223 19.6362733,2.92236 19.0218648,2.92236 C18.7404443,2.90833912 18.4673332,3.02648257 18.2741329,3.24581678 C18.0809325,3.465151 17.9869113,3.76380101 18.0167188,4.06347 L18.0167188,6.69775 L17.1859496,6.69775 L17.1859496,2.19482 Z" id="Path"></path>
                        <polygon id="Path" points="22.0847647 0.437 22.9155339 0.437 22.9155339 6.69774 22.0847647 6.69774"></polygon>
                        <path d="M24.0703954,4.44434 C23.9982687,3.63717225 24.3601265,2.85603936 25.0042195,2.4285182 C25.6483126,2.00099704 26.4632908,2.00099704 27.1073838,2.4285182 C27.7514769,2.85603936 28.1133347,3.63717225 28.041208,4.44434 C28.11467,5.25235119 27.7531333,6.03495719 27.108485,6.46337324 C26.4638367,6.89178929 25.6477666,6.89178929 25.0031183,6.46337324 C24.35847,6.03495719 23.9969333,5.25235119 24.0703954,4.44434 L24.0703954,4.44434 Z M27.186245,4.44434 C27.186245,3.46827 26.7763246,2.89747 26.0569422,2.89747 C25.3348114,2.89747 24.9285836,3.46827 24.9285836,4.44435 C24.9285836,5.42824 25.3348394,5.99464 26.0569422,5.99464 C26.7763339,5.99464 27.186245,5.42432 27.186245,4.44434 L27.186245,4.44434 Z" id="Shape"></path>
                        <path d="M28.9158028,5.42432 C28.9158028,4.61377 29.4800007,4.14649 30.4814821,4.08008 L31.6217413,4.00977 L31.6217413,3.6211 C31.6217413,3.14551 31.3277791,2.87696 30.7599352,2.87696 C30.2961677,2.87696 29.9748145,3.05909 29.8826013,3.37745 L29.078307,3.37745 C29.1632096,2.60401 29.8433472,2.10792 30.7982732,2.10792 C31.8536297,2.10792 32.4488646,2.66992 32.4488646,3.6211 L32.4488646,6.69776 L31.6491322,6.69776 L31.6491322,6.06495 L31.5834033,6.06495 C31.3117826,6.52707633 30.8287526,6.79716323 30.3189872,6.77195 C29.9616295,6.81171181 29.6052244,6.68791066 29.3378816,6.43115244 C29.0705388,6.17439423 28.9172107,5.80864331 28.9158028,5.42432 L28.9158028,5.42432 Z M31.6217413,5.03955 L31.6217413,4.66309 L30.5937757,4.7334 C30.0140593,4.7749 29.751134,4.98584 29.751134,5.38281 C29.751134,5.78808 30.0797883,6.02392 30.53173,6.02392 C30.7992698,6.05288986 31.0663461,5.96447505 31.2718196,5.77891559 C31.477293,5.59335613 31.6035694,5.32654106 31.6217413,5.03955 Z" id="Shape"></path>
                        <path d="M33.5407268,4.44434 C33.5407268,3.02149 34.2245196,2.12012 35.288084,2.12012 C35.8251311,2.09365013 36.3281255,2.40147287 36.5789749,2.91012 L36.641058,2.91012 L36.641058,0.437 L37.4718272,0.437 L37.4718272,6.69774 L36.6757501,6.69774 L36.6757501,5.98631 L36.6100211,5.98631 C36.3402099,6.49073698 35.8310185,6.79335648 35.2880934,6.77195 C34.2172184,6.772 33.5407268,5.87061 33.5407268,4.44434 Z M34.398915,4.44434 C34.398915,5.39942 34.8197825,5.97413 35.5236558,5.97413 C36.2238551,5.97413 36.6566044,5.39113 36.6566044,4.44825 C36.6566044,3.50977 36.2193117,2.91846 35.5236558,2.91846 C34.8243165,2.91846 34.398887,3.49707 34.398887,4.44434 L34.398915,4.44434 Z" id="Shape"></path>
                        <path d="M40.9090299,4.44434 C40.8368478,3.63722505 41.1986485,2.85611193 41.8426938,2.42859737 C42.486739,2.0010828 43.3016753,2.0010828 43.9457206,2.42859737 C44.5897659,2.85611193 44.9515666,3.63722505 44.8793845,4.44434 C44.9529399,5.25232226 44.5914695,6.03495038 43.9468531,6.4633853 C43.3022368,6.89182022 42.4861776,6.89182022 41.8415612,6.4633853 C41.1969449,6.03495038 40.8354745,5.25232226 40.9090299,4.44434 L40.9090299,4.44434 Z M44.0248702,4.44434 C44.0248702,3.46827 43.6149591,2.89747 42.8955767,2.89747 C42.1734459,2.89747 41.7672181,3.46827 41.7672181,4.44435 C41.7672181,5.42824 42.173474,5.99464 42.8955767,5.99464 C43.6149684,5.99464 44.0248702,5.42432 44.0248702,4.44434 Z" id="Shape"></path>
                        <path d="M45.9940756,2.19482 L46.7938079,2.19482 L46.7938079,2.91015 L46.855891,2.91015 C47.0717795,2.38347794 47.5762483,2.06130747 48.1120897,2.1079 C48.5269899,2.07453177 48.9335627,2.2447899 49.2170125,2.57060207 C49.5004623,2.89641424 49.6300294,3.34242376 49.5691307,3.7827 L49.5691307,6.6977 L48.7383615,6.6977 L48.7383615,4.00586 C48.7383615,3.28223 48.4443993,2.92236 47.8299908,2.92236 C47.5485703,2.90833912 47.2754592,3.02648257 47.0822588,3.24581678 C46.8890585,3.465151 46.7950373,3.76380101 46.8248448,4.06347 L46.8248448,6.69775 L45.9940756,6.69775 L45.9940756,2.19482 Z" id="Path"></path>
                        <path d="M54.2634483,1.07373 L54.2634483,2.21533 L55.1754743,2.21533 L55.1754743,2.96387 L54.2634483,2.96387 L54.2634483,5.2793 C54.2634483,5.75098 54.4451262,5.95752 54.8586832,5.95752 C54.9645597,5.95715754 55.0703298,5.95030966 55.1754743,5.93701 L55.1754743,6.67724 C55.0262818,6.70579072 54.875123,6.72098004 54.72357,6.72265 C53.7996808,6.72265 53.431763,6.37499 53.431763,5.50683 L53.431763,2.96383 L52.763498,2.96383 L52.763498,2.21529 L53.431763,2.21529 L53.431763,1.07373 L54.2634483,1.07373 Z" id="Path"></path>
                        <path d="M56.3102459,0.437 L57.133714,0.437 L57.133714,2.91845 L57.199443,2.91845 C57.4257016,2.38716856 57.9389994,2.06458754 58.4829859,2.11181 C58.8955301,2.08779728 59.2965992,2.26180371 59.5769509,2.58643385 C59.8573026,2.91106399 59.9877366,3.35250564 59.9327257,3.79052 L59.9327257,6.69775 L59.1011245,6.69775 L59.1011245,4.00975 C59.1011245,3.29051 58.7879513,2.92625 58.2009711,2.92625 C57.9119439,2.90089367 57.6271901,3.01329096 57.4228359,3.2333935 C57.2184816,3.45349605 57.1153648,3.75886031 57.1410525,4.06785 L57.1410525,6.69775 L56.3102833,6.69775 L56.3102459,0.437 Z" id="Path"></path>
                        <path d="M64.7768056,5.48193 C64.5438487,6.33130948 63.7754448,6.88010304 62.952763,6.78466 C62.391448,6.8005102 61.851993,6.5516307 61.4775283,6.10405516 C61.1030636,5.65647963 60.9314459,5.05545594 61.0082095,4.46045 C60.9334848,3.86379048 61.1044595,3.26180373 61.476839,2.81044696 C61.8492184,2.35909018 62.3863607,2.10277675 62.9491078,2.10791 C64.1204038,2.10791 64.8270162,2.96391 64.8270162,4.37791 L64.8270162,4.688 L61.8544971,4.688 L61.8544971,4.7378 C61.8281924,5.07194014 61.9348758,5.40244775 62.1483104,5.6480407 C62.3617451,5.89363365 62.6621269,6.03152392 62.9755826,6.0278 C63.3820271,6.07999468 63.7776731,5.86433304 63.9770733,5.4819 L64.7768056,5.48193 Z M61.8544784,4.03076 L63.9807005,4.03076 C64.0018775,3.72516044 63.9014241,3.42420507 63.7040955,3.20205909 C63.5067669,2.97991311 63.2309146,2.85723623 62.9445177,2.86426 C62.6542406,2.86035891 62.3747928,2.98202124 62.1695647,3.20164888 C61.9643365,3.42127653 61.8507232,3.72025374 61.8544971,4.03076 L61.8544784,4.03076 Z" id="Shape"></path>
                    </g>
                </g>
                <path d="M107.851852,45 L4.14814815,45 C1.86666667,45 0,46.9125 0,49.25 L0,74.75 C0,77.0875 1.86666667,79 4.14814815,79 L107.851852,79 C110.133333,79 112,77.0875 112,74.75 L112,49.25 C112,46.9125 110.133333,45 107.851852,45" id="path16" fill="#000000" fill-rule="nonzero" transform="translate(56.000000, 62.000000) scale(-1, 1) rotate(-180.000000) translate(-56.000000, -62.000000) "></path>
                <path d="M107.851852,79 L4.14814815,79 C1.86666667,79 0,77.0875 0,74.75 L0,49.25 C0,46.9125 1.86666667,45 4.14814815,45 L107.851852,45 C110.133333,45 112,46.9125 112,49.25 L112,74.75 C112,77.0875 110.133333,79 107.851852,79 M107.851852,78.32 C109.773274,78.32 111.336296,76.71826 111.336296,74.75 L111.336296,49.25 C111.336296,47.2814 109.773274,45.67966 107.851852,45.67966 L4.14814815,45.67966 C2.22705778,45.67966 0.663703704,47.2814 0.663703704,49.25 L0.663703704,74.75 C0.663703704,76.71826 2.22705778,78.32 4.14814815,78.32 L107.851852,78.32" id="path18" fill="#A6A6A6" fill-rule="nonzero" transform="translate(56.000000, 62.000000) scale(-1, 1) rotate(-180.000000) translate(-56.000000, -62.000000) "></path>
                <path d="M39,53.305692 C39,52.6374194 38.795513,52.1052262 38.385962,51.708235 C37.9207767,51.2361847 37.3144864,51 36.5691514,51 C35.8553838,51 35.2485164,51.2392955 34.749456,51.7185247 C34.249489,52.1974348 34,52.7912865 34,53.4998405 C34,54.2087135 34.249489,54.8022462 34.749456,55.2814753 C35.2485164,55.7603854 35.8553838,56 36.5691514,56 C36.9233153,56 37.2623961,55.9329973 37.5843334,55.7993108 C37.9062706,55.6653053 38.1644962,55.487429 38.3576915,55.2646449 L37.9230021,54.8437241 C37.5956251,55.2222896 37.1448635,55.4114128 36.5691514,55.4114128 C36.0485791,55.4114128 35.5984769,55.2344139 35.2185975,54.8801768 C34.8386358,54.5255408 34.6487373,54.0656946 34.6487373,53.4998405 C34.6487373,52.9339863 34.8386358,52.4741401 35.2185975,52.1195042 C35.5984769,51.7652671 36.0485791,51.5882681 36.5691514,51.5882681 C37.1213735,51.5882681 37.5817783,51.7662242 37.950366,52.122615 C38.1896347,52.3548114 38.3280199,52.6775413 38.365027,53.0920011 L36.5691514,53.0920011 L36.5691514,53.6668687 L38.9655479,53.6668687 C38.9887083,53.5418767 39,53.4219099 39,53.305692" id="path20" fill="#FFFFFF" fill-rule="nonzero" transform="translate(36.500000, 53.500000) scale(-1, 1) rotate(-180.000000) translate(-36.500000, -53.500000) "></path>
                <path d="M38.9202083,53.3117001 L38.8404177,53.3117001 C38.8397794,52.6788545 38.649,52.1873113 38.2693564,51.8182866 L38.2684787,51.8176682 L38.2681596,51.8170499 C37.832104,51.3753643 37.2716549,51.1555265 36.5669443,51.1545989 C35.8943894,51.1555265 35.3314668,51.3777606 34.8614204,51.8282582 C34.3924113,52.2796834 34.1604601,52.8307467 34.1595824,53.4998454 C34.1604601,54.1692533 34.3924113,54.7200075 34.8614204,55.1711234 C35.3314668,55.6219302 35.8943894,55.8444736 36.5669443,55.8454012 C36.8995115,55.8454012 37.2162004,55.7825572 37.5182078,55.6572558 C37.8205343,55.5310268 38.0593476,55.3656073 38.2372806,55.1602243 L38.2984002,55.2100821 L38.2419882,55.2647323 L37.8211727,54.8565172 L37.8775846,54.8021761 L37.9390234,54.8516474 C37.6073339,55.2366729 37.1417558,55.4307702 36.5669443,55.4296107 C36.044316,55.4302291 35.5845626,55.2493499 35.2042806,54.8930023 C34.8203283,54.5354952 34.6273946,54.0648226 34.628033,53.4998454 C34.6273946,52.9348683 34.8203283,52.4641957 35.2042806,52.1066886 C35.5845626,51.750341 36.044316,51.5694617 36.5669443,51.5700801 C37.1192548,51.5691525 37.5899395,51.7506502 37.960487,52.1105535 L37.960487,52.1105535 C38.2079974,52.3509529 38.3482693,52.6839562 38.3850528,53.0979688 L38.3924733,53.1819153 L36.6467349,53.1819153 L36.6467349,53.5844103 L38.8868558,53.5844103 L38.8868558,53.6617092 L38.8082621,53.6481046 C38.8301247,53.5309195 38.8404177,53.4195319 38.8404177,53.3117001 L38.9202083,53.3117001 L39,53.3117001 C39,53.4291943 38.9887484,53.5499351 38.9653697,53.6755457 L38.9535607,53.739008 L36.4871538,53.739008 L36.4871538,53.1046165 L36.4871538,53.0273177 L38.3055016,53.0273177 L38.3055016,53.1046165 L38.2260301,53.1112642 C38.1908425,52.7222965 38.0630179,52.4294112 37.8476631,52.2198541 L37.8476631,52.2198541 C37.504803,51.8889378 37.0840672,51.7256053 36.5669443,51.7246777 C36.081658,51.7252961 35.6699385,51.8871599 35.3149502,52.217767 C34.9633928,52.5472146 34.7884918,52.9677976 34.7876141,53.4998454 C34.7884918,54.0318933 34.9633928,54.4524762 35.3149502,54.7819238 C35.6699385,55.1125309 36.081658,55.2743947 36.5669443,55.2750131 C37.1064883,55.2737763 37.5138991,55.1010907 37.8165448,54.7523184 L37.8726376,54.6876966 L38.3548121,55.1554318 L38.4065164,55.2055214 L38.35944,55.2596306 C38.1633945,55.4860389 37.9022399,55.6657587 37.5811626,55.7991765 C37.2595267,55.9329807 36.9200975,56 36.5669443,56 C35.857606,56.0006172 35.2454526,55.7590584 34.7489157,55.2810424 C34.2505437,54.803954 33.9993629,54.2042697 34,53.4998454 C33.9993629,52.7957304 34.2505437,52.1957368 34.7492349,51.7183392 C35.2454526,51.2406325 35.857606,50.9993828 36.5669443,51 C37.3056456,50.9993828 37.9184374,51.2370767 38.383457,51.7102229 L38.3257684,51.7636364 L38.3821803,51.7089861 C38.7954956,52.1090848 39.0005574,52.6495583 39,53.3117001 L38.9202083,53.3117001" id="path22" fill="#FFFFFF" fill-rule="nonzero" transform="translate(36.500000, 53.500000) scale(-1, 1) rotate(-180.000000) translate(-36.500000, -53.500000) "></path>
                <polyline id="path24" fill="#FFFFFF" fill-rule="nonzero" transform="translate(41.500000, 53.500000) scale(-1, 1) rotate(-180.000000) translate(-41.500000, -53.500000) " points="43 55.38575 40.6597482 55.38575 40.6597482 53.8004167 42.7702058 53.8004167 42.7702058 53.1995833 40.6597482 53.1995833 40.6597482 51.61425 43 51.61425 43 51 40 51 40 56 43 56 43 55.38575"></polyline>
                <polyline id="path26" fill="#FFFFFF" fill-rule="nonzero" transform="translate(41.500000, 53.500000) scale(-1, 1) rotate(-180.000000) translate(-41.500000, -53.500000) " points="42.918978 55.3249194 42.918978 55.4055645 40.6241121 55.4055645 40.6241121 53.7100806 42.6205742 53.7100806 42.6205742 53.2901613 40.6241121 53.2899194 40.6241121 51.5944355 42.8379561 51.5944355 42.8379561 51.1612903 40.1620439 51.1612903 40.1620439 55.8387097 42.8379561 55.8387097 42.8379561 55.3249194 42.918978 55.3249194 42.918978 55.4055645 42.918978 55.3249194 43 55.3249194 43 55.9193548 43 56 40 56 40 51 43 51 43 51.6750806 43 51.7557258 40.786156 51.7557258 40.786156 53.128629 42.7826181 53.128629 42.7826181 53.7907258 42.7826181 53.871371 40.786156 53.871371 40.786156 55.2442742 43 55.2442742 43 55.3249194 42.918978 55.3249194"></polyline>
                <polyline id="path28" fill="#FFFFFF" fill-rule="nonzero" transform="translate(46.500000, 53.500000) scale(-1, 1) rotate(-180.000000) translate(-46.500000, -53.500000) " points="46.7806747 51 46.2193253 51 46.2193253 55.38575 45 55.38575 45 56 48 56 48 55.38575 46.7806747 55.38575 46.7806747 51"></polyline>
                <polyline id="path30" fill="#FFFFFF" fill-rule="nonzero" transform="translate(46.500000, 53.500000) scale(-1, 1) rotate(-180.000000) translate(-46.500000, -53.500000) " points="46.7676899 51.0806452 46.7676899 51.1612903 46.3017048 51.1612903 46.3017048 55.4055645 45.1387893 55.4055645 45.1387893 55.8387097 47.8612107 55.8387097 47.8612107 55.4055645 46.6982952 55.4055645 46.6982952 51.0806452 46.7676899 51.0806452 46.7676899 51.1612903 46.7676899 51.0806452 46.8370845 51.0806452 46.8370845 55.2442742 48 55.2442742 48 55.9193548 48 56 45 56 45 55.3249194 45 55.2442742 46.1629155 55.2442742 46.1629155 51 46.7676899 51 46.8370845 51 46.8370845 51.0806452 46.7676899 51.0806452"></polyline>
                <polyline id="path32" fill="#FFFFFF" fill-rule="nonzero" transform="translate(50.500000, 53.500000) scale(-1, 1) rotate(-180.000000) translate(-50.500000, -53.500000) " points="50 51 50 56 51 56 51 51 50 51"></polyline>
                <polyline id="path34" fill="#FFFFFF" fill-rule="nonzero" transform="translate(50.500000, 53.500000) scale(-1, 1) rotate(-180.000000) translate(-50.500000, -53.500000) " points="50.1030184 51.0806452 50.2060369 51.0806452 50.2060369 55.8387097 50.7939631 55.8387097 50.7939631 51.1612903 50.1030184 51.1612903 50.1030184 51.0806452 50.2060369 51.0806452 50.1030184 51.0806452 50.1030184 51 50.8969816 51 51 51 51 56 50.1030184 56 50 56 50 51 50.1030184 51 50.1030184 51.0806452"></polyline>
                <polyline id="path36" fill="#FFFFFF" fill-rule="nonzero" transform="translate(53.500000, 53.500000) scale(-1, 1) rotate(-180.000000) translate(-53.500000, -53.500000) " points="53.7806452 51 53.2192821 51 53.2192821 55.38575 52 55.38575 52 56 55 56 55 55.38575 53.7806452 55.38575 53.7806452 51"></polyline>
                <polyline id="path38" fill="#FFFFFF" fill-rule="nonzero" transform="translate(53.500000, 53.500000) scale(-1, 1) rotate(-180.000000) translate(-53.500000, -53.500000) " points="53.7676613 51.0806452 53.7676613 51.1612903 53.3016655 51.1612903 53.3016655 55.4055645 52.1387925 55.4055645 52.1387925 55.8387097 54.8612075 55.8387097 54.8612075 55.4055645 53.6982651 55.4055645 53.6982651 51.0806452 53.7676613 51.0806452 53.7676613 51.1612903 53.7676613 51.0806452 53.8370576 51.0806452 53.8370576 55.2442742 55 55.2442742 55 55.9193548 55 56 52 56 52 55.3249194 52 55.2442742 53.162873 55.2442742 53.162873 51 53.7676613 51 53.8370576 51 53.8370576 51.0806452 53.7676613 51.0806452"></polyline>
                <path d="M58.1780873,52.1260449 C58.5381372,51.7674207 58.9786937,51.5882681 59.4996757,51.5882681 C60.0206577,51.5882681 60.4614574,51.7674207 60.8209398,52.1260449 C61.181314,52.4846691 61.361866,52.9430796 61.361866,53.4998405 C61.361866,54.0566014 61.181314,54.5150118 60.8209398,54.873636 C60.4614574,55.2322602 60.0206577,55.4114128 59.4996757,55.4114128 C58.9786937,55.4114128 58.5381372,55.2322602 58.1780873,54.873636 C57.8186049,54.5150118 57.638134,54.0566014 57.638134,53.4998405 C57.638134,52.9430796 57.8186049,52.4846691 58.1780873,52.1260449 Z M61.2833052,51.7253845 C60.8050493,51.2415289 60.2102899,51 59.4996757,51 C58.7883318,51 58.1938967,51.2415289 57.7166948,51.7253845 C57.2381145,52.2086816 57,52.8002999 57,53.4998405 C57,54.199381 57.2381145,54.7910791 57.7166948,55.2742965 C58.1938967,55.7582318 58.7883318,56 59.4996757,56 C60.2065605,56 60.7996984,55.7569555 61.2801433,55.2711856 C61.7599397,54.7854157 62,54.1949939 62,53.4998405 C62,52.8002999 61.7605072,52.2086816 61.2833052,51.7253845" id="path40" fill="#FFFFFF" fill-rule="nonzero" transform="translate(59.500000, 53.500000) scale(-1, 1) rotate(-180.000000) translate(-59.500000, -53.500000) "></path>
                <path d="M58.2196102,52.1685329 L58.1637773,52.1141919 C58.5254741,51.7527434 58.9766921,51.5691591 59.499684,51.5700832 C60.0223619,51.5691591 60.474208,51.7527434 60.8352766,52.1141919 C61.1993293,52.4759497 61.382455,52.943993 61.3819065,53.4998477 C61.382455,54.0557024 61.1993293,54.5237458 60.8352766,54.8855035 L60.8352766,54.8855035 C60.474208,55.246952 60.0223619,55.4305364 59.499684,55.4296123 C58.9766921,55.4305364 58.5254741,55.246952 58.1637773,54.8855035 L58.1637773,54.8855035 C57.8005885,54.5237458 57.6171486,54.0557024 57.6180874,53.4998477 C57.6171486,52.943993 57.8005885,52.4759497 58.1637773,52.1141919 L58.2196102,52.1685329 L58.2754431,52.2228738 C57.9423303,52.5565722 57.7757738,52.9763039 57.7751456,53.4998477 C57.7757738,54.0233915 57.9423303,54.4431233 58.2754431,54.7768216 L58.2754431,54.7768216 C58.6116186,55.1104426 59.0131288,55.2740839 59.499684,55.2750115 C59.9858467,55.2740839 60.3882992,55.1104426 60.7236108,54.7768216 L60.7236108,54.7768216 C61.0573519,54.4431233 61.2239083,54.0233915 61.2245366,53.4998477 C61.2239083,52.9763039 61.0573519,52.5565722 60.7236108,52.2228738 C60.3882992,51.8892528 59.9858467,51.7256116 59.499684,51.724684 C59.0131288,51.7256116 58.6116186,51.8892528 58.2754431,52.2228738 L58.2196102,52.1685329 Z M61.227285,51.7802617 L61.171138,51.8339843 C60.7208623,51.3798546 60.1702288,51.1555339 59.499684,51.1546064 C58.8288252,51.1555339 58.2781916,51.3798546 57.8287798,51.8339843 L57.8266595,51.8363805 L57.8287798,51.8339843 C57.3794465,52.2896599 57.1576853,52.8391761 57.1570571,53.4998477 C57.1576853,54.1605194 57.3794465,54.7100355 57.8287798,55.1657111 L57.8287798,55.1657111 C58.2781916,55.6198408 58.8288252,55.8444707 59.499684,55.8453983 C60.1659098,55.8444707 60.7152869,55.6189132 61.1680754,55.1623873 C61.6189793,54.7046246 61.8419969,54.1559587 61.8429392,53.4998477 C61.8419969,52.8391761 61.6196075,52.2896599 61.171138,51.8339843 L61.227285,51.7802617 L61.2837462,51.7265391 C61.7597788,52.2078006 62.0005435,52.8047782 62.0000012,53.4998477 C62.0005435,54.190975 61.7588364,54.7867158 61.2806051,55.2701416 C60.8021381,55.7554226 60.2027391,56.0008459 59.499684,55.9999978 C58.7929382,56.0008459 58.191733,55.7565821 57.7162501,55.2731563 L57.7162501,55.2734655 C57.2392752,54.7918948 56.9993742,54.1949173 57.0000012,53.4998477 C56.9993742,52.8047782 57.2392752,52.2078006 57.7162501,51.7262299 L57.7183704,51.7240656 L57.7162501,51.7265391 C58.191733,51.2431133 58.7929382,50.9993906 59.499684,51.0000079 C60.2061158,50.9993906 60.8073209,51.2431133 61.2837462,51.7265391 L61.227285,51.7802617" id="path42" fill="#FFFFFF" fill-rule="nonzero" transform="translate(59.500001, 53.500003) scale(-1, 1) rotate(-180.000000) translate(-59.500001, -53.500003) "></path>
                <polyline id="path44" fill="#FFFFFF" fill-rule="nonzero" transform="translate(65.000000, 53.500000) scale(-1, 1) rotate(-180.000000) translate(-65.000000, -53.500000) " points="63 51 63 56 63.8113624 56 66.3328722 52.1103333 66.3615807 52.1103333 66.3328722 53.0739167 66.3328722 56 67 56 67 51 66.3041636 51 63.6660902 55.0781667 63.6373816 55.0781667 63.6660902 54.11425 63.6660902 51 63 51"></polyline>
                <polyline id="path46" fill="#FFFFFF" fill-rule="nonzero" transform="translate(65.000000, 53.500000) scale(-1, 1) rotate(-180.000000) translate(-65.000000, -53.500000) " points="63.0828878 51.0806452 63.1657756 51.0806452 63.1657756 55.8387097 63.8146214 55.8387097 66.23163 52.0745161 66.3051515 52.0745161 66.3902773 52.0745161 66.3605205 53.088871 66.3605205 55.8387097 66.8342244 55.8387097 66.8342244 51.1612903 66.2961167 51.1612903 63.7673754 55.1079032 63.6938539 55.1079032 63.6087281 55.1079032 63.6384848 54.0931452 63.6384848 51.1612903 63.0828878 51.1612903 63.0828878 51.0806452 63.1657756 51.0806452 63.0828878 51.0806452 63.0828878 51 63.7213726 51 63.8042604 51 63.8042604 54.0957258 63.7767417 55.0294355 63.6938539 55.0272581 63.6938539 54.9466129 63.7213726 54.9466129 63.7213726 55.0272581 63.6510838 54.9843548 66.2041112 51 66.9171122 51 67 51 67 56 66.2776327 56 66.1947449 56 66.1947449 53.0866935 66.2222637 52.1529839 66.3051515 52.1551613 66.3051515 52.2358065 66.2776327 52.2358065 66.2776327 52.1551613 66.3479216 52.1979839 63.906544 56 63.0828878 56 63 56 63 51 63.0828878 51 63.0828878 51.0806452"></polyline>
                <path d="M88.4090676,63.3511736 L89.9498303,63.3511736 L89.9498303,73.6288075 L88.4090676,73.6288075 L88.4090676,63.3511736 Z M102.286665,69.9265836 L100.520486,65.4707116 L100.467641,65.4707116 L98.634579,69.9265836 L96.9749151,69.9265836 L99.7236819,63.6986887 L98.1564968,60.234472 L99.7641414,60.234472 L104,69.9265836 L102.286665,69.9265836 Z M93.5490716,64.5185185 C93.043741,64.5185185 92.3402417,64.7696798 92.3402417,65.3913758 C92.3402417,66.1846508 93.2171388,66.4887573 93.9734831,66.4887573 C94.6513856,66.4887573 94.9692815,66.3433222 95.3813075,66.1447774 C95.2615805,65.1929132 94.4383542,64.5185185 93.5490716,64.5185185 L93.5490716,64.5185185 Z M93.7348548,70.1514367 C92.6193295,70.1514367 91.4641704,69.6620216 90.9860881,68.5777942 L92.353453,68.0093723 C92.645752,68.5777942 93.1898906,68.7631027 93.7612773,68.7631027 C94.5580812,68.7631027 95.3680962,68.2868418 95.3813075,67.4406215 L95.3813075,67.3349776 C95.1022197,67.493649 94.5052361,67.731574 93.7744886,67.731574 C92.300608,67.731574 90.7994791,66.9252271 90.7994791,65.4177663 C90.7994791,64.0425864 92.0083089,63.156575 93.3624626,63.156575 C94.3987204,63.156575 94.9692815,63.619353 95.3284625,64.1613845 L95.3813075,64.1613845 L95.3813075,63.3681917 L96.8683994,63.3681917 L96.8683994,67.3086694 C96.8683994,69.133062 95.5010345,70.1514367 93.7348548,70.1514367 L93.7348548,70.1514367 Z M84.2128428,68.6754635 L82.0214258,68.6754635 L82.0214258,72.1983804 L84.2128428,72.1983804 C85.3646991,72.1983804 86.0186562,71.2488182 86.0186562,70.436963 C86.0186562,69.6404818 85.3646991,68.6754635 84.2128428,68.6754635 Z M84.173209,73.6288075 L80.4814889,73.6288075 L80.4814889,63.3511736 L82.0214258,63.3511736 L82.0214258,67.2450364 L84.173209,67.2450364 C85.8807637,67.2450364 87.5594188,68.4760143 87.5594188,70.436963 C87.5594188,72.3978296 85.8807637,73.6288075 84.173209,73.6288075 Z M64.0417334,64.5166276 C62.9773191,64.5166276 62.0861374,65.4039545 62.0861374,66.6226826 C62.0861374,67.854236 62.9773191,68.7550458 64.0417334,68.7550458 C65.0926062,68.7550458 65.9173188,67.854236 65.9173188,66.6226826 C65.9173188,65.4039545 65.0926062,64.5166276 64.0417334,64.5166276 L64.0417334,64.5166276 Z M65.8108856,69.3510914 L65.7576277,69.3510914 C65.4119057,69.7615818 64.7464713,70.1324454 63.9085474,70.1324454 C62.1526065,70.1324454 60.5431454,68.5961278 60.5431454,66.6226826 C60.5431454,64.6623916 62.1526065,63.139228 63.9085474,63.139228 C64.7464713,63.139228 65.4119057,63.5101739 65.7576277,63.9337362 L65.8108856,63.9337362 L65.8108856,63.4305093 C65.8108856,62.092572 65.0926062,61.3773996 63.9353002,61.3773996 C62.9908606,61.3773996 62.4055195,62.0531097 62.1658178,62.6225182 L60.8224808,62.0662638 C61.2082495,61.1391458 62.2326172,60 63.9353002,60 C65.7444165,60 67.2741972,61.0598101 67.2741972,63.6424549 L67.2741972,69.9204999 L65.8108856,69.9204999 L65.8108856,69.3510914 Z M68.3382813,63.3511736 L69.8813559,63.3511736 L69.8813559,73.6291364 L68.3382813,73.6291364 L68.3382813,63.3511736 Z M72.1561688,66.7418095 C72.1162048,68.0929009 73.2070416,68.7814363 73.9917901,68.7814363 C74.6041318,68.7814363 75.1226736,68.4770009 75.2952456,68.0395445 L72.1561688,66.7418095 Z M76.9450011,67.9072635 C76.6527021,68.6889464 75.7609423,70.1324454 73.9385323,70.1324454 C72.129416,70.1324454 70.6263881,68.7152547 70.6263881,66.6358367 C70.6263881,64.6755457 72.1162048,63.139228 74.1114346,63.139228 C75.7213086,63.139228 76.6527021,64.1193735 77.0383056,64.688782 L75.8410356,65.483619 C75.4422208,64.9007276 74.8964308,64.5166276 74.1114346,64.5166276 C73.326686,64.5166276 72.7680977,64.8743372 72.4087515,65.5761089 L77.1043618,67.5100095 L76.9450011,67.9072635 Z M39.5338645,69.0595634 L39.5338645,67.5761911 L43.0988391,67.5761911 C42.9924059,66.7418095 42.7130704,66.1326099 42.2873377,65.7087187 C41.7687134,65.1920089 40.957212,64.6226004 39.5338645,64.6226004 C37.338897,64.6226004 35.6230027,66.3841 35.6230027,68.5694907 C35.6230027,70.7548814 37.338897,72.5166276 39.5338645,72.5166276 C40.7178406,72.5166276 41.5822696,72.0529453 42.2208686,71.4568997 L43.2717414,72.5031447 C42.3805596,73.3510092 41.1965009,74 39.5338645,74 C36.5273957,74 34,71.5628725 34,68.5694907 C34,65.5761089 36.5273957,63.139228 39.5338645,63.139228 C41.1568671,63.139228 42.3805596,63.6687631 43.3382105,64.6623916 C44.3226141,65.6425371 44.6287024,67.0199367 44.6287024,68.1323632 C44.6287024,68.4770009 44.6021973,68.7945904 44.5486917,69.0595634 L39.5338645,69.0595634 Z M48.6817503,64.5166276 C47.617336,64.5166276 46.6994015,65.3908003 46.6994015,66.6358367 C46.6994015,67.8941094 47.617336,68.7550458 48.6817503,68.7550458 C49.7457518,68.7550458 50.6636863,67.8941094 50.6636863,66.6358367 C50.6636863,65.3908003 49.7457518,64.5166276 48.6817503,64.5166276 L48.6817503,64.5166276 Z M48.6817503,70.1324454 C46.7393655,70.1324454 45.1563269,68.6623094 45.1563269,66.6358367 C45.1563269,64.6226004 46.7393655,63.139228 48.6817503,63.139228 C50.6237222,63.139228 52.2067609,64.6226004 52.2067609,66.6358367 C52.2067609,68.6623094 50.6237222,70.1324454 48.6817503,70.1324454 Z M56.3716916,64.5166276 C55.3076901,64.5166276 54.389673,65.3908003 54.389673,66.6358367 C54.389673,67.8941094 55.3076901,68.7550458 56.3716916,68.7550458 C57.4357756,68.7550458 58.3537101,67.8941094 58.3537101,66.6358367 C58.3537101,65.3908003 57.4357756,64.5166276 56.3716916,64.5166276 Z M56.3716916,70.1324454 C54.4293894,70.1324454 52.846681,68.6623094 52.846681,66.6358367 C52.846681,64.6226004 54.4293894,63.139228 56.3716916,63.139228 C58.3137461,63.139228 59.8967847,64.6226004 59.8967847,66.6358367 C59.8967847,68.6623094 58.3137461,70.1324454 56.3716916,70.1324454" id="path48" fill="#FFFFFF" fill-rule="nonzero" transform="translate(69.000000, 67.000000) scale(-1, 1) rotate(-180.000000) translate(-69.000000, -67.000000) "></path>
                <g id="g52-Clipped" transform="translate(13.500000, 62.500000) scale(-1, 1) rotate(-180.000000) translate(-13.500000, -62.500000) translate(8.000000, 52.000000)">
                    <mask id="mask-2" fill="white">
                        <use xlink:href="#path-1"></use>
                    </mask>
                    <g id="path54"></g>
                    <g id="g52" mask="url(#mask-2)" fill="url(#linearGradient-3)" fill-rule="nonzero">
                        <path d="M0.515984615,0.00889112903 L0.453115385,0.0690967742 C0.206884615,0.329818548 0.0615153846,0.73466129 0.0615153846,1.25889919 L0.0615153846,1.13552419 L0.0615153846,1.13552419 L0.0615153846,19.8627823 C0.0615153846,19.8644758 0.0615153846,19.865746 0.0615153846,19.8671008 C0.0615153846,19.8654919 0.0615153846,19.8641371 0.0615153846,19.8624435 L0.0615153846,19.7387298 C0.0615153846,20.3064073 0.231,20.7340282 0.514969231,20.9904315 L10.9986462,10.4993226 L0.515984615,0.00889112903 M0.0725924165,19.8681169 C0.0725924165,19.9147742 0.0742088897,19.9600766 0.0772263062,20.0047016 C0.0742088897,19.9604153 0.0725924165,19.9147742 0.0725924165,19.8681169" id="path72"></path>
                    </g>
                </g>
                <g id="g76-Clipped" transform="translate(23.000000, 62.500000) scale(-1, 1) rotate(-180.000000) translate(-23.000000, -62.500000) translate(19.000000, 59.000000)">
                    <mask id="mask-5" fill="white">
                        <use xlink:href="#path-4"></use>
                    </mask>
                    <g id="path78"></g>
                    <g id="g76" mask="url(#mask-5)" fill="url(#linearGradient-6)" fill-rule="nonzero">
                        <path d="M3.28365049,0.0177058824 L3.28365049,0.0177058824 L3.35681553,0.0617647059 L7.15712621,2.35125882 C7.51945631,2.56965882 7.76093204,2.83442353 7.88139806,3.11458824 C7.76124272,2.83442353 7.51968932,2.56932941 7.15712621,2.35092941 L3.35681553,0.0614352941 L3.28365049,0.0177058824 M3.28458252,0.138352941 L0.0764271845,3.54051765 L3.28427184,6.94210588 L7.15712621,4.60921176 C7.64893204,4.31290588 7.92504854,3.93103529 7.97118447,3.54084706 C7.97118447,3.54051765 7.97118447,3.53985882 7.97118447,3.53928235 C7.92504854,3.15 7.64893204,2.7678 7.15712621,2.47157647 L3.28458252,0.138352941" id="path92"></path>
                    </g>
                </g>
                <g id="g96-Clipped" transform="translate(15.500000, 67.500000) scale(-1, 1) rotate(-180.000000) translate(-15.500000, -67.500000) translate(9.000000, 62.000000)">
                    <mask id="mask-8" fill="white">
                        <use xlink:href="#path-7"></use>
                    </mask>
                    <g id="path98"></g>
                    <g id="g96" mask="url(#mask-8)" fill="url(#linearGradient-9)" fill-rule="nonzero">
                        <path d="M0.772994012,0.033 C0.50357485,0.033 0.26848503,0.128930233 0.0851616766,0.310131783 L0.0854730539,0.310472868 C0.268796407,0.129271318 0.504197605,0.033 0.773616766,0.033 C0.79697006,0.033 0.820712575,0.0336821705 0.844766467,0.0349612403 C0.820401198,0.0336821705 0.796347305,0.033 0.772994012,0.033 M0.773305389,0.157921577 C0.503886228,0.157581395 0.268796407,0.253852713 0.0854730539,0.435054264 L0.0854730539,0.435054264 L0.0854730539,0.435310078 L9.72929341,10.9993178 L12.9446527,7.47658915 L12.9446527,7.47658915 L1.64539521,0.444007752 C1.33277246,0.249844961 1.03657485,0.157921577 0.773305389,0.157921577 M0.103832848,0.316554637 C0.0811709967,0.337944034 0.0589230604,0.360623244 0.0370890392,0.384162329 L0.103832848,0.316554637" id="path108"></path>
                    </g>
                </g>
                <g id="g112-Clipped" transform="translate(15.500000, 56.500000) scale(-1, 1) rotate(-180.000000) translate(-15.500000, -56.500000) translate(9.000000, 51.000000)">
                    <mask id="mask-11" fill="white">
                        <use xlink:href="#path-10"></use>
                    </mask>
                    <g id="path114"></g>
                    <g id="g112" mask="url(#mask-11)" fill="url(#linearGradient-12)" fill-rule="nonzero">
                        <path d="M9.6514491,0.0839384615 L9.6514491,0.0839384615 L0.00669461078,10.5673615 C0.190017964,10.7468308 0.424796407,10.8420231 0.693904192,10.8420231 C0.957874251,10.8420231 1.25430539,10.7504692 1.5675509,10.5574615 L12.866497,3.57897692 L9.6514491,0.0839384615 M12.9392036,3.65792308 L1.5675509,10.681 C1.25430539,10.8740923 0.957874251,10.9656462 0.693904192,10.9656462 C0.692658683,10.9656462 0.691802395,10.9656462 0.690556886,10.9656462 C0.692113772,10.9656462 0.693281437,10.9656462 0.695149701,10.9656462 C0.958497006,10.9656462 1.25461677,10.8744308 1.5675509,10.6813385 L12.9392036,3.65792308" id="path130"></path>
                    </g>
                </g>
                <path d="M10,65 C10.2629693,65.0146845 10.5541258,65.1029544 10.8602541,65.272152 L23,72 L23,72 L10.8602541,65.272152 C10.5543767,65.1026281 10.2629693,65.0146845 10,65" id="path132" fill="#000000" fill-rule="nonzero" transform="translate(16.500000, 68.500000) scale(-1, 1) rotate(-180.000000) translate(-16.500000, -68.500000) "></path>
                <g id="g136-Clipped" transform="translate(23.500000, 66.500000) scale(-1, 1) rotate(-180.000000) translate(-23.500000, -66.500000) translate(23.000000, 66.000000)">
                    <mask id="mask-14" fill="white">
                        <use xlink:href="#path-13"></use>
                    </mask>
                    <g id="path138"></g>
                    <g id="g136" mask="url(#mask-14)" fill="url(#linearGradient-15)" fill-rule="nonzero">
                        <polyline id="path152" points="0.0738666648 0.323999992 0.0738666648 0.323999992 0.325066659 0.466666655 0.0738666648 0.323999992"></polyline>
                    </g>
                </g>
                <g id="g156-Clipped" transform="translate(16.000000, 69.000000) scale(-1, 1) rotate(-180.000000) translate(-16.000000, -69.000000) translate(9.000000, 65.000000)">
                    <mask id="mask-17" fill="white">
                        <use xlink:href="#path-16"></use>
                    </mask>
                    <g id="path158"></g>
                    <g id="g156" mask="url(#mask-17)" fill="url(#linearGradient-18)" fill-rule="nonzero">
                        <path d="M0.828166667,0.0351818182 C0.53975,0.0351818182 0.28775,0.137818182 0.0915,0.331 L0.0911666667,0.330636364 C0.0905,0.331363636 0.0895,0.332363636 0.0885833333,0.333090909 L0.0348333333,0.390272727 C0.0331666667,0.392090909 0.0315833333,0.394181818 0.0295833333,0.396272727 L0.0915,0.463818182 C0.28775,0.270636364 0.539416667,0.168 0.827833333,0.168363636 C1.10966667,0.168363636 1.42675,0.266363636 1.76141667,0.473363636 L13.8574167,7.97090909 L13.9349167,7.88636364 L13.8564167,7.83772727 L1.76141667,0.340545455 C1.45641667,0.152 1.16633333,0.0536363636 0.904333333,0.0372727273 C0.878583333,0.0359090909 0.853166667,0.0351818182 0.828166667,0.0351818182" id="path168"></path>
                    </g>
                </g>
                <path d="M9,71 C8.37121867,71.4381359 8,72.1184632 8,72.9994308 L8,73 C8,72.1184632 8.37121867,71.4387051 9,71.0005692 L9,71.0005692 L9,71.0005692 L9,71" id="path170" fill="#000000" fill-rule="nonzero" transform="translate(8.500000, 72.000000) scale(-1, 1) rotate(-180.000000) translate(-8.500000, -72.000000) "></path>
                <g id="g174-Clipped" transform="translate(8.500000, 71.000000) scale(-1, 1) rotate(-180.000000) translate(-8.500000, -71.000000) translate(8.000000, 70.000000)">
                    <mask id="mask-20" fill="white">
                        <use xlink:href="#path-19"></use>
                    </mask>
                    <g id="path176"></g>
                    <g id="g174" mask="url(#mask-20)" fill="url(#linearGradient-21)" fill-rule="nonzero">
                        <path d="M0.765,0.044875 L0.765,0.044875 C0.349285714,0.42975 0.103857143,1.026875 0.103857143,1.80125 L0.103857143,1.983375 C0.103857143,1.2095 0.349285714,0.611875 0.765,0.227 L0.871142857,0.138125 L0.765,0.044875" id="path194"></path>
                    </g>
                </g>
                <g id="g198-Clipped" transform="translate(9.500000, 72.500000) scale(-1, 1) rotate(-180.000000) translate(-9.500000, -72.500000) translate(9.000000, 72.000000)">
                    <mask id="mask-23" fill="white">
                        <use xlink:href="#path-22"></use>
                    </mask>
                    <g id="path200"></g>
                    <g id="g198" mask="url(#mask-23)" fill="url(#linearGradient-24)" fill-rule="nonzero">
                        <polyline id="path210" points="0.0946666643 0.0957333309 0.0946666643 0.0957333309 0.0946666643 0.0957333309 0.292799993 0.294666659 0.292799993 0.293866659 0.0946666643 0.0957333309"></polyline>
                    </g>
                </g>
                <path d="M27.9466981,62 C28.0176136,62.3268784 28.0533019,62.6626646 28.0533019,62.9986445 C28.0533019,62.9992254 28.0533019,63 28.0533019,63 C28.0533019,62.6634392 28.0176136,62.327653 27.9466981,62" id="path212" fill="#000000" fill-rule="nonzero" transform="translate(28.000000, 62.500000) scale(-1, 1) rotate(-180.000000) translate(-28.000000, -62.500000) "></path>
                <g id="g216-Clipped" transform="translate(25.500000, 63.500000) scale(-1, 1) rotate(-180.000000) translate(-25.500000, -63.500000) translate(23.000000, 62.000000)">
                    <mask id="mask-26" fill="white">
                        <use xlink:href="#path-25"></use>
                    </mask>
                    <g id="path218"></g>
                    <g id="g216" mask="url(#mask-26)" fill="url(#linearGradient-27)" fill-rule="nonzero">
                        <path d="M0.0999180328,0.0523255814 L0.0999180328,0.0523255814 L0.0236885246,0.117209302 L4.1104918,2.09386047 C4.6295082,2.34481395 4.92090164,2.66860465 4.96959016,2.99839535 C4.96959016,2.87734884 4.93786885,2.75637209 4.87483607,2.63860465 C4.74770492,2.40125581 4.49286885,2.17695349 4.1104918,1.99193023 L0.0999180328,0.0523255814" id="path232"></path>
                    </g>
                </g>
                <path d="M28,59 L28,59.0002841 C27.9996622,59.3718216 27.7054555,59.743288 27.1179679,60.0251906 L23.0003366,61.9997869 L23,61.9997869 L23.0003366,62 L27.1179679,60.0254747 C27.7061288,59.7435721 28.0006721,59.3715375 28,59" id="path234" fill="#404040" fill-rule="nonzero" transform="translate(25.500000, 60.500000) scale(-1, 1) rotate(-180.000000) translate(-25.500000, -60.500000) "></path>
                <g id="g238-Clipped" transform="translate(25.500000, 60.500000) scale(-1, 1) rotate(-180.000000) translate(-25.500000, -60.500000) translate(23.000000, 59.000000)">
                    <mask id="mask-29" fill="white">
                        <use xlink:href="#path-28"></use>
                    </mask>
                    <g id="path240"></g>
                    <g id="g238" mask="url(#mask-29)" fill="url(#linearGradient-30)" fill-rule="nonzero">
                        <path d="M4.96959016,-0.000279069767 C4.92090164,0.33027907 4.6295082,0.653790698 4.1104918,0.904813953 L0.0233606557,2.88118605 L0.0995901639,2.94606977 L0.0999180328,2.94606977 L4.1104918,1.00646512 C4.68270492,0.72955814 4.9692623,0.364674419 4.96959016,-0.000279069767" id="path254"></path>
                    </g>
                </g>
                <path d="M8,51 C8.08232032,52.264992 8.87651951,52.9956902 10,53 C9.51290254,52.9975372 9.08864719,52.8590075 8.75652236,52.599803 L8.75652236,52.6002955 L8.75254141,52.5968477 C8.71756593,52.5695111 8.68429658,52.5405738 8.65145376,52.5107745 L8.65145376,52.5107745 C8.27823985,52.1688216 8.04279519,51.6565694 8,51" id="path256" fill="#404040" fill-rule="nonzero" transform="translate(9.000000, 52.000000) scale(-1, 1) rotate(-180.000000) translate(-9.000000, -52.000000) "></path>
                <g id="g260-Clipped" transform="translate(9.000000, 53.000000) scale(-1, 1) rotate(-180.000000) translate(-9.000000, -53.000000) translate(8.000000, 52.000000)">
                    <mask id="mask-32" fill="white">
                        <use xlink:href="#path-31"></use>
                    </mask>
                    <g id="path262"></g>
                    <g id="g260" mask="url(#mask-32)" fill="url(#linearGradient-33)" fill-rule="nonzero">
                        <path d="M0.0519285714,0.013125 L0.0519285714,0.19575 C0.0519285714,0.19825 0.0519285714,0.20025 0.0519285714,0.202625 C0.0519285714,0.203125 0.0519285714,0.203625 0.0519285714,0.204125 C0.0519285714,0.273 0.0554933734,0.340375 0.0621476703,0.40575 C0.0621476703,0.40675 0.0621476703,0.40775 0.0621476703,0.40875 C0.0621476703,0.409625 0.0621476703,0.410625 0.0628606307,0.411625 C0.0628606307,0.413625 0.0628606307,0.4155 0.0628606307,0.4175 C0.0628606307,0.418 0.0628606307,0.4185 0.0628606307,0.419 C0.134394323,1.0855 0.527948457,1.6055 1.1517888,1.952625 L1.1517888,1.952625 L1.1517888,1.952625 L1.32551348,1.860875 C0.527948457,1.482375 0.0519285714,0.851125 0.0519285714,0.013125" id="path280"></path>
                    </g>
                </g>
                <path d="M9.99834764,51 C9.99920047,51 10.0003731,51 10.0016524,51 C10.0003731,51 9.99920047,51 9.99834764,51" id="path282" fill="#404040" fill-rule="nonzero" transform="translate(10.000000, 51.000000) scale(-1, 1) rotate(-180.000000) translate(-10.000000, -51.000000) "></path>
                <g id="g286-Clipped" transform="translate(16.000000, 55.000000) scale(-1, 1) rotate(-180.000000) translate(-16.000000, -55.000000) translate(9.000000, 51.000000)">
                    <mask id="mask-35" fill="white">
                        <use xlink:href="#path-34"></use>
                    </mask>
                    <g id="path288"></g>
                    <g id="g286" mask="url(#mask-35)" fill="url(#linearGradient-36)" fill-rule="nonzero">
                        <path d="M13.8570833,0.027 L1.76141667,7.52454545 C1.42608333,7.73190909 1.10875,7.83027273 0.826166667,7.83027273 C0.538083333,7.83027273 0.28675,7.728 0.0905,7.53518182 L0.0295833333,7.60190909 L0.0295833333,7.60190909 C0.0488333333,7.62390909 0.0683333333,7.64527273 0.0888333333,7.66545455 C0.0895,7.66618182 0.0905,7.66690909 0.0911666667,7.66763636 C0.285833333,7.859 0.5345,7.96127273 0.82,7.96309091 L0.82,7.96309091 C0.820666667,7.96309091 0.821583333,7.96309091 0.822583333,7.96309091 C0.823916667,7.96309091 0.824833333,7.96309091 0.826166667,7.96309091 C1.10875,7.96309091 1.42608333,7.86472727 1.76141667,7.65727273 L13.9349167,0.111818182 L13.9345833,0.111545455 L13.8570833,0.027" id="path304"></path>
                    </g>
                </g>
            </g>
            <g id="camera" transform="translate(280.000000, 76.000000)" fill="#000000" fill-rule="nonzero">
                <path d="M17,11.7115385 C18.4048611,11.7115385 19.6060764,12.2024239 20.6036458,13.1841947 C21.6012153,14.1659655 22.1,15.3481571 22.1,16.7307692 C22.1,18.1133814 21.6012153,19.2955729 20.6036458,20.2773438 C19.6060764,21.2591146 18.4048611,21.75 17,21.75 C15.5951389,21.75 14.3939236,21.2591146 13.3963542,20.2773438 C12.3987847,19.2955729 11.9,18.1133814 11.9,16.7307692 C11.9,15.3481571 12.3987847,14.1659655 13.3963542,13.1841947 C14.3939236,12.2024239 15.5951389,11.7115385 17,11.7115385 Z M29.4666667,4.46153846 C30.7180556,4.46153846 31.7864583,4.89723558 32.671875,5.76862981 C33.5572917,6.64002404 34,7.69150641 34,8.92307692 L34,24.5384615 C34,25.7700321 33.5572917,26.8215144 32.671875,27.6929087 C31.7864583,28.5643029 30.7180556,29 29.4666667,29 L4.53333333,29 C3.28194444,29 2.21354167,28.5643029 1.328125,27.6929087 C0.442708333,26.8215144 0,25.7700321 0,24.5384615 L0,8.92307692 C0,7.69150641 0.442708333,6.64002404 1.328125,5.76862981 C2.21354167,4.89723558 3.28194444,4.46153846 4.53333333,4.46153846 L8.5,4.46153846 L9.403125,2.09134615 C9.62743056,1.52203526 10.0376736,1.03114984 10.6338542,0.618689904 C11.2300347,0.206229968 11.8409722,0 12.4666667,0 L21.5333333,0 C22.1590278,0 22.7699653,0.206229968 23.3661458,0.618689904 C23.9623264,1.03114984 24.3725694,1.52203526 24.596875,2.09134615 L25.5,4.46153846 L29.4666667,4.46153846 Z M17,24.5384615 C19.1840278,24.5384615 21.0522569,23.7745393 22.6046875,22.2466947 C24.1571181,20.7188502 24.9333333,18.8802083 24.9333333,16.7307692 C24.9333333,14.5813301 24.1571181,12.7426883 22.6046875,11.2148438 C21.0522569,9.6869992 19.1840278,8.92307692 17,8.92307692 C14.8159722,8.92307692 12.9477431,9.6869992 11.3953125,11.2148438 C9.84288194,12.7426883 9.06666667,14.5813301 9.06666667,16.7307692 C9.06666667,18.8802083 9.84288194,20.7188502 11.3953125,22.2466947 C12.9477431,23.7745393 14.8159722,24.5384615 17,24.5384615 Z" id="Shape"></path>
            </g>
            <rect id="Rectangle" stroke="#DFDFDF" stroke-width="7" x="262.5" y="140.5" width="67" height="67" rx="9"></rect>
            <rect id="Rectangle" fill="#FFFFFF" x="282" y="129" width="29" height="90"></rect>
            <rect id="Rectangle" fill="#FFFFFF" transform="translate(296.500000, 174.000000) rotate(-270.000000) translate(-296.500000, -174.000000) " x="282" y="129" width="29" height="90"></rect>
            <g id="Font_Awesome_5_solid_qrcode" transform="translate(279.000000, 156.000000)" fill="#000000" fill-rule="nonzero">
                <path d="M0,15.4285714 L15.4285714,15.4285714 L15.4285714,0 L0,0 L0,15.4285714 Z M5.14285714,5.14285714 L10.2857143,5.14285714 L10.2857143,10.2857143 L5.14285714,10.2857143 L5.14285714,5.14285714 Z M20.5714286,0 L20.5714286,15.4285714 L36,15.4285714 L36,0 L20.5714286,0 Z M30.8571429,10.2857143 L25.7142857,10.2857143 L25.7142857,5.14285714 L30.8571429,5.14285714 L30.8571429,10.2857143 Z M0,36 L15.4285714,36 L15.4285714,20.5714286 L0,20.5714286 L0,36 Z M5.14285714,25.7142857 L10.2857143,25.7142857 L10.2857143,30.8571429 L5.14285714,30.8571429 L5.14285714,25.7142857 Z M33.4285714,20.5714286 L36,20.5714286 L36,30.8571429 L28.2857143,30.8571429 L28.2857143,28.2857143 L25.7142857,28.2857143 L25.7142857,36 L20.5714286,36 L20.5714286,20.5714286 L28.2857143,20.5714286 L28.2857143,23.1428571 L33.4285714,23.1428571 L33.4285714,20.5714286 Z M33.4285714,33.4285714 L36,33.4285714 L36,36 L33.4285714,36 L33.4285714,33.4285714 Z M28.2857143,33.4285714 L30.8571429,33.4285714 L30.8571429,36 L28.2857143,36 L28.2857143,33.4285714 Z" id="Shape"></path>
            </g>
            <g id="chevron" transform="translate(463.000000, 116.000000)" fill-rule="nonzero" stroke="#029A03" stroke-width="7.28571429">
                <ellipse id="successAnimationCircle" stroke-linecap="round" cx="38" cy="38.5" rx="38" ry="38.5"></ellipse>
                <polyline id="successAnimationCheck" points="18.6122449 36.4866071 36.0289116 51.0714286 56.6122449 25.1428571"></polyline>
            </g>
        </g>
    </g>
</svg>