<svg width="40" height="40" viewBox="0 0 40 40" fill="none">
<path d="M29.8332 21.1669C29.8332 27.0002 25.7498 29.9169 20.8965 31.6085C20.6424 31.6947 20.3663 31.6905 20.1148 31.5969C15.2498 29.9169 11.1665 27.0002 11.1665 21.1669V13.0002C11.1665 12.6908 11.2894 12.394 11.5082 12.1752C11.727 11.9564 12.0238 11.8335 12.3332 11.8335C14.6665 11.8335 17.5832 10.4335 19.6132 8.6602C19.8603 8.44903 20.1748 8.33301 20.4998 8.33301C20.8249 8.33301 21.1393 8.44903 21.3865 8.6602C23.4282 10.4452 26.3332 11.8335 28.6665 11.8335C28.9759 11.8335 29.2727 11.9564 29.4915 12.1752C29.7103 12.394 29.8332 12.6908 29.8332 13.0002V21.1669Z" stroke="var(--icon-color)" stroke-width="var(--icon-stroke-width)" stroke-linecap="round" stroke-linejoin="round"/>
<path d="M17 20.0003L19.3333 22.3337L24 17.667" stroke="var(--icon-color)" stroke-width="var(--icon-stroke-width)" stroke-linecap="round" stroke-linejoin="round"/>
</svg>
