<svg width="40" height="40" viewBox="0 0 40 40" fill="none">
<path d="M9.75 9.16699V10.2503C9.75 11.3337 11.9167 11.3337 11.9167 12.417C11.9167 13.5003 9.75 13.5003 9.75 14.5837C9.75 15.667 11.9167 15.667 11.9167 16.7503C11.9167 17.8337 9.75 17.8337 9.75 18.917C9.75 20.0003 11.9167 20.0003 11.9167 21.0837" stroke="var(--icon-color)" stroke-width="var(--icon-stroke-width)" stroke-linecap="round" stroke-linejoin="round"/>
<path d="M26 13.5H26.012" stroke="var(--icon-color)" stroke-width="var(--icon-stroke-width)" stroke-linecap="round" stroke-linejoin="round"/>
<path d="M13 26.5H13.012" stroke="var(--icon-color)" stroke-width="var(--icon-stroke-width)" stroke-linecap="round" stroke-linejoin="round"/>
<path d="M29.0656 16.5656C29.4682 16.163 29.7876 15.6851 30.0055 15.159C30.2234 14.633 30.3355 14.0692 30.3355 13.4998C30.3355 12.9304 30.2234 12.3666 30.0055 11.8406C29.7876 11.3146 29.4682 10.8366 29.0656 10.434C28.663 10.0314 28.1851 9.71199 27.659 9.4941C27.133 9.27621 26.5692 9.16406 25.9998 9.16406C25.4304 9.16406 24.8666 9.27621 24.3406 9.4941C23.8145 9.71199 23.3366 10.0314 22.934 10.434L9.93397 23.434C9.12086 24.2471 8.66406 25.3499 8.66406 26.4998C8.66406 27.0692 8.77621 27.633 8.9941 28.159C9.21199 28.6851 9.53136 29.163 9.93397 29.5656C10.3366 29.9682 10.8146 30.2876 11.3406 30.5055C11.8666 30.7234 12.4304 30.8355 12.9998 30.8355C14.1497 30.8355 15.2525 30.3787 16.0656 29.5656L29.0656 16.5656Z" stroke="var(--icon-color)" stroke-width="var(--icon-stroke-width)" stroke-linecap="round" stroke-linejoin="round"/>
<path d="M26 19.6317V30.8333C27.1493 30.8333 28.2515 30.3768 29.0641 29.5641C29.8768 28.7515 30.3333 27.6493 30.3333 26.5V13.5" stroke="var(--icon-color)" stroke-width="var(--icon-stroke-width)" stroke-linecap="round" stroke-linejoin="round"/>
</svg>
