<svg width="40" height="40" viewBox="0 0 40 40" fill="none">
<path d="M12.3312 23.4271C14.6529 23.4271 16.535 21.545 16.535 19.2233C16.535 16.9016 14.6529 15.0195 12.3312 15.0195C10.0095 15.0195 8.12744 16.9016 8.12744 19.2233C8.12744 21.545 10.0095 23.4271 12.3312 23.4271Z" stroke="var(--icon-color)" stroke-width="var(--icon-stroke-width)" stroke-linecap="round" stroke-linejoin="round"/>
<path d="M24.7548 6.7998L15.2988 16.2558" stroke="var(--icon-color)" stroke-width="var(--icon-stroke-width)" stroke-linecap="round" stroke-linejoin="round"/>
<path d="M23.1885 12.2193L25.607 9.80078" stroke="var(--icon-color)" stroke-width="var(--icon-stroke-width)" stroke-linecap="round" stroke-linejoin="round"/>
<path d="M25.9502 33.2012C29.2211 33.2012 31.8726 30.5497 31.8726 27.2788C31.8726 24.008 29.2211 21.3564 25.9502 21.3564C22.6794 21.3564 20.0278 24.008 20.0278 27.2788C20.0278 30.5497 22.6794 33.2012 25.9502 33.2012Z" stroke="var(--icon-color)" stroke-width="var(--icon-stroke-width)" stroke-linecap="round" stroke-linejoin="round"/>
<path d="M25.9502 23.7207V27.2786L28.3259 28.4609" stroke="var(--icon-color)" stroke-width="var(--icon-stroke-width)" stroke-linecap="round" stroke-linejoin="round"/>
<path d="M22.1899 22.6399V20.0277C22.1899 17.9448 23.8788 16.2559 25.9618 16.2559C28.0448 16.2559 29.7337 17.9448 29.7337 20.0277V22.6399" stroke="var(--icon-color)" stroke-width="var(--icon-stroke-width)" stroke-linecap="round" stroke-linejoin="round"/>
</svg>
