<svg width="32" height="32" viewBox="0 0 32 32" fill="none" xmlns="http://www.w3.org/2000/svg">
  <path d="M16.0003 6.49233C16.5517 6.49233 16.9987 6.04535 16.9987 5.49397C16.9987 4.94259 16.5517 4.49561 16.0003 4.49561C15.4489 4.49561 15.002 4.94259 15.002 5.49397C15.002 6.04535 15.4489 6.49233 16.0003 6.49233Z" fill="var(--icon-color)" stroke="var(--icon-color)" stroke-width="1.5" stroke-linecap="round" stroke-linejoin="round"/>
  <path d="M22.9886 6.49233C23.54 6.49233 23.987 6.04535 23.987 5.49397C23.987 4.94259 23.54 4.49561 22.9886 4.49561C22.4372 4.49561 21.9902 4.94259 21.9902 5.49397C21.9902 6.04535 22.4372 6.49233 22.9886 6.49233Z" fill="var(--icon-color)" stroke="var(--icon-color)" stroke-width="1.5" stroke-linecap="round" stroke-linejoin="round"/>
  <path d="M9.01106 6.49233C9.56244 6.49233 10.0094 6.04535 10.0094 5.49397C10.0094 4.94259 9.56244 4.49561 9.01106 4.49561C8.45968 4.49561 8.0127 4.94259 8.0127 5.49397C8.0127 6.04535 8.45968 6.49233 9.01106 6.49233Z" fill="var(--icon-color)" stroke="var(--icon-color)" stroke-width="1.5" stroke-linecap="round" stroke-linejoin="round"/>
  <path d="M16.0003 13.4801C16.5517 13.4801 16.9987 13.0331 16.9987 12.4818C16.9987 11.9304 16.5517 11.4834 16.0003 11.4834C15.4489 11.4834 15.002 11.9304 15.002 12.4818C15.002 13.0331 15.4489 13.4801 16.0003 13.4801Z" fill="var(--icon-color)" stroke="var(--icon-color)" stroke-width="1.5" stroke-linecap="round" stroke-linejoin="round"/>
  <path d="M22.9886 13.4801C23.54 13.4801 23.987 13.0331 23.987 12.4818C23.987 11.9304 23.54 11.4834 22.9886 11.4834C22.4372 11.4834 21.9902 11.9304 21.9902 12.4818C21.9902 13.0331 22.4372 13.4801 22.9886 13.4801Z" fill="var(--icon-color)" stroke="var(--icon-color)" stroke-width="1.5" stroke-linecap="round" stroke-linejoin="round"/>
  <path d="M9.01106 13.4801C9.56244 13.4801 10.0094 13.0331 10.0094 12.4818C10.0094 11.9304 9.56244 11.4834 9.01106 11.4834C8.45968 11.4834 8.0127 11.9304 8.0127 12.4818C8.0127 13.0331 8.45968 13.4801 9.01106 13.4801Z" fill="var(--icon-color)" stroke="var(--icon-color)" stroke-width="1.5" stroke-linecap="round" stroke-linejoin="round"/>
  <path d="M16.0003 20.4694C16.5517 20.4694 16.9987 20.0224 16.9987 19.471C16.9987 18.9196 16.5517 18.4727 16.0003 18.4727C15.4489 18.4727 15.002 18.9196 15.002 19.471C15.002 20.0224 15.4489 20.4694 16.0003 20.4694Z" fill="var(--icon-color)" stroke="var(--icon-color)" stroke-width="1.5" stroke-linecap="round" stroke-linejoin="round"/>
  <path d="M22.9886 20.4694C23.54 20.4694 23.987 20.0224 23.987 19.471C23.987 18.9196 23.54 18.4727 22.9886 18.4727C22.4372 18.4727 21.9902 18.9196 21.9902 19.471C21.9902 20.0224 22.4372 20.4694 22.9886 20.4694Z" fill="var(--icon-color)" stroke="var(--icon-color)" stroke-width="1.5" stroke-linecap="round" stroke-linejoin="round"/>
  <path d="M9.01106 20.4694C9.56244 20.4694 10.0094 20.0224 10.0094 19.471C10.0094 18.9196 9.56244 18.4727 9.01106 18.4727C8.45968 18.4727 8.0127 18.9196 8.0127 19.471C8.0127 20.0224 8.45968 20.4694 9.01106 20.4694Z" fill="var(--icon-color)" stroke="var(--icon-color)" stroke-width="1.5" stroke-linecap="round" stroke-linejoin="round"/>
  <path d="M16.0003 27.5041C16.5517 27.5041 16.9987 27.0571 16.9987 26.5057C16.9987 25.9543 16.5517 25.5073 16.0003 25.5073C15.4489 25.5073 15.002 25.9543 15.002 26.5057C15.002 27.0571 15.4489 27.5041 16.0003 27.5041Z" fill="var(--icon-color)" stroke="var(--icon-color)" stroke-width="1.5" stroke-linecap="round" stroke-linejoin="round"/>
</svg>
