<svg xmlns="http://www.w3.org/2000/svg" width="18" height="18" viewBox="0 0 18 18" fill="none">
    <g clip-path="url(#clip0_2086_326765)">
        <path d="M9 7.5H3C2.17157 7.5 1.5 8.17157 1.5 9V15C1.5 15.8284 2.17157 16.5 3 16.5H9C9.82843 16.5 10.5 15.8284 10.5 15V9C10.5 8.17157 9.82843 7.5 9 7.5Z" stroke="var(--icon-color)" stroke-width="1.5" stroke-linecap="round" stroke-linejoin="round"/>
        <path d="M13.44 10.5002L16.065 7.87522C16.3433 7.56659 16.4973 7.16578 16.4973 6.75022C16.4973 6.33466 16.3433 5.93385 16.065 5.62522L12.315 1.93522C12.0064 1.65695 11.6056 1.50293 11.19 1.50293C10.7744 1.50293 10.3736 1.65695 10.065 1.93522L7.5 4.50022" stroke="var(--icon-color)" stroke-width="1.5" stroke-linecap="round" stroke-linejoin="round"/>
        <path d="M4.5 13.5H4.5075" stroke="var(--icon-color)" stroke-width="1.5" stroke-linecap="round" stroke-linejoin="round"/>
        <path d="M7.5 10.5H7.5075" stroke="var(--icon-color)" stroke-width="1.5" stroke-linecap="round" stroke-linejoin="round"/>
        <path d="M11.25 4.5H11.2575" stroke="var(--icon-color)" stroke-width="1.5" stroke-linecap="round" stroke-linejoin="round"/>
        <path d="M13.5 6.75H13.5075" stroke="var(--icon-color)" stroke-width="1.5" stroke-linecap="round" stroke-linejoin="round"/>
    </g>
</svg>