<svg width="128" height="129" viewBox="0 0 128 129" fill="none" xmlns="http://www.w3.org/2000/svg">
<circle cx="64" cy="64.8438" r="62.5" stroke="var(--Palette-Contrast-1)" stroke-width="3"/>
<path d="M69.9316 57.0335C76.3184 50.6321 82.7052 47.4404 89.0921 47.4404C93.6002 47.4404 97.9238 49.2313 101.112 52.4191C104.299 55.6068 106.09 59.9304 106.09 64.4385C106.09 68.9467 104.299 73.2703 101.112 76.458C97.9238 79.6458 93.6002 81.4367 89.0921 81.4367C80.593 81.4367 72.0939 75.7848 63.5949 64.4385C55.0958 53.0923 46.5968 47.4404 38.0977 47.4404C33.5895 47.4404 29.266 49.2313 26.0782 52.4191C22.8905 55.6068 21.0996 59.9304 21.0996 64.4385C21.0996 68.9467 22.8905 73.2703 26.0782 76.458C29.266 79.6458 33.5895 81.4367 38.0977 81.4367C44.47 81.4367 50.8423 78.2595 57.2146 71.8872" stroke="var(--Palette-Contrast-1)" stroke-width="7" stroke-linecap="round" stroke-linejoin="round"/>
</svg>
