<svg xmlns="http://www.w3.org/2000/svg" viewBox="0 0 484 307" fill="none"><rect width="483" height="306" x=".5" y=".5" fill="#232222" rx="16.3"/><rect width="483" height="306" x=".5" y=".5" stroke="#4F4F4F" rx="16.3"/><circle cx="21.613" cy="18.2" r="4.594" fill="#EE6B5F" stroke="#E93F30" stroke-width=".438"/><circle cx="36.487" cy="18.2" r="4.594" fill="#F5BE50" stroke="#F2AD21" stroke-width=".438"/><circle cx="51.362" cy="18.2" r="4.594" fill="#62C655" stroke="#47AC3A" stroke-width=".438"/><rect width="25.106" height="24.105" x="146.275" y="6.147" fill="#2C2A2A" rx="12.053"/><rect width="25.106" height="24.105" x="146.275" y="6.147" stroke="#474747" rx="12.053"/><path fill="#DFE0E1" d="m165.841 17.203-6.06-5.592a1.419 1.419 0 0 0-.951-.364c-.352 0-.691.13-.95.364l-3.803 3.524a3.38 3.38 0 0 1 1.306.858c.361.382.624.843.768 1.344h5.134a.486.486 0 0 1 .337.137.471.471 0 0 1 .138.33v.768a.471.471 0 0 1-.475.467h-.593v1.085a.457.457 0 0 1-.292.432.476.476 0 0 1-.182.036h-1.301a.48.48 0 0 1-.439-.289.476.476 0 0 1-.035-.178v-1.086h-2.292a3.229 3.229 0 0 1-.759 1.36 3.32 3.32 0 0 1-1.315.86l3.82 3.53a1.42 1.42 0 0 0 1.901 0l6.05-5.59a1.364 1.364 0 0 0-.007-1.996Z"/><path fill="#DFE0E1" d="M152.951 16.66c-.247.005-.49.062-.712.169-.248.12-.459.304-.61.531a1.497 1.497 0 0 0-.076 1.543c.129.24.321.442.556.586a1.577 1.577 0 0 0 2.161-.518c.141-.234.216-.5.216-.772a1.473 1.473 0 0 0-.436-1.086 1.558 1.558 0 0 0-1.099-.453Z"/><rect width="185.694" height="24.2" x="186.381" y="6.1" fill="#2C2A2A" rx="12.1"/><rect width="185.694" height="24.2" x="186.381" y="6.1" stroke="#474747" rx="12.1"/><mask id="a" fill="#fff"><path fill-rule="evenodd" d="M172.799 44.954a5.598 5.598 0 0 0 3.245 1.036h74.14c12.372 0 22.401 10.03 22.401 22.4v178.137c0 12.372-10.029 22.401-22.401 22.401H68.307c-12.372 0-22.4-10.029-22.4-22.401V68.391c0-12.372 10.028-22.4 22.4-22.4h74.139a5.598 5.598 0 0 0 3.245-1.037L156 37.625a5.6 5.6 0 0 1 6.49 0l10.309 7.33Z" clip-rule="evenodd"/></mask><path fill="#3B3C3F" fill-rule="evenodd" d="M172.799 44.954a5.598 5.598 0 0 0 3.245 1.036h74.14c12.372 0 22.401 10.03 22.401 22.4v178.137c0 12.372-10.029 22.401-22.401 22.401H68.307c-12.372 0-22.4-10.029-22.4-22.401V68.391c0-12.372 10.028-22.4 22.4-22.4h74.139a5.598 5.598 0 0 0 3.245-1.037L156 37.625a5.6 5.6 0 0 1 6.49 0l10.309 7.33Z" clip-rule="evenodd"/><path fill="#7E7F80" d="m145.691 44.954-.405-.57.405.57Zm27.108 0 .405-.57-.405.57Zm3.245 1.036v.7h74.14v-1.4h-74.14v.7Zm74.14 0v.7c11.985 0 21.701 9.716 21.701 21.7h1.4c0-12.757-10.343-23.1-23.101-23.1v.7Zm22.401 22.4h-.7v178.137h1.4V68.391h-.7Zm0 178.137h-.7c0 11.985-9.716 21.701-21.701 21.701v1.4c12.758 0 23.101-10.343 23.101-23.101h-.7Zm-22.401 22.401v-.7H68.307v1.4h181.877v-.7Zm-181.877 0v-.7c-11.985 0-21.7-9.716-21.7-21.701h-1.4c0 12.758 10.342 23.101 23.1 23.101v-.7Zm-22.4-22.401h.7V68.391h-1.4v178.136h.7Zm0-178.136h.7c0-11.985 9.715-21.7 21.7-21.7v-1.4c-12.758 0-23.1 10.342-23.1 23.1h.7Zm22.4-22.4v.7h74.139v-1.4h-74.14v.7Zm77.384-1.037.406.57 10.309-7.328-.406-.57-.405-.571-10.309 7.329.405.57Zm16.799-7.329-.406.57 10.309 7.33.406-.57.405-.571-10.309-7.33-.405.571Zm-20.044 8.365v.7a6.3 6.3 0 0 0 3.651-1.165l-.406-.57-.405-.571c-.83.59-1.822.906-2.84.906v.7ZM156 37.625l.406.57a4.9 4.9 0 0 1 5.678 0l.406-.57.405-.57a6.299 6.299 0 0 0-7.3 0l.405.57Zm20.044 8.365v-.7a4.903 4.903 0 0 1-2.84-.906l-.405.57-.406.57a6.3 6.3 0 0 0 3.651 1.166v-.7Z" mask="url(#a)"/><path stroke="#fff" stroke-linecap="round" stroke-opacity=".1" stroke-width="7.388" d="M72.024 63.89h174.452M82.016 75.09h154.467M108.661 86.29h101.178"/><path stroke="#fff" stroke-linecap="round" stroke-opacity=".1" stroke-width="3.694" d="M72.024 108.689h174.452M108.661 119.89h101.178M72.024 131.089h174.452M82.016 142.29h154.467M108.661 153.489h101.178"/><g opacity=".5"><rect width="191.8" height="22.4" x="63.35" y="175.89" fill="#007CFF" rx="11.2"/><path stroke="#fff" stroke-linecap="round" stroke-width="2.8" d="M130.051 187.089h58.398"/></g><g opacity=".5"><rect width="191.8" height="22.4" x="63.35" y="203.89" fill="#727273" rx="11.2"/><path stroke="#fff" stroke-linecap="round" stroke-width="2.8" d="M130.051 215.089h58.398"/></g><rect width="191.8" height="22" x="63.35" y="231.89" fill="#575759" rx="11"/><rect width="191.8" height="22" x="63.35" y="231.89" stroke="#D40101" stroke-width="3" rx="11"/><path fill="#fff" d="M82.929 246.89h-.923l2.67-7.273h.91l2.67 7.273h-.924l-2.173-6.123h-.057l-2.173 6.123Zm.34-2.841h3.722v.781H83.27v-.781Zm6.844-4.432v7.273h-.838v-7.273h.838Zm2.77 7.273-1.661-5.455h.88l1.18 4.176h.056l1.165-4.176h.895l1.15 4.162h.057l1.18-4.162h.88l-1.662 5.455h-.824l-1.193-4.191h-.085l-1.193 4.191h-.824Zm8.495.127c-.346 0-.659-.065-.941-.195a1.607 1.607 0 0 1-.671-.572c-.166-.251-.249-.554-.249-.909 0-.312.062-.565.185-.76.123-.196.288-.35.493-.461.206-.112.434-.194.682-.249.251-.057.503-.102.757-.135.331-.042.6-.074.806-.096.208-.023.36-.062.454-.117.097-.054.146-.149.146-.284v-.028c0-.351-.096-.623-.288-.817-.189-.194-.477-.291-.863-.291-.4 0-.713.087-.941.263-.227.175-.387.362-.479.561l-.795-.285c.141-.331.331-.589.568-.774.239-.187.499-.317.781-.39a3.23 3.23 0 0 1 .838-.114c.175 0 .376.021.604.064.229.04.451.124.664.252.215.128.394.321.536.579.142.258.213.604.213 1.037v3.594h-.838v-.739h-.043a1.453 1.453 0 0 1-.284.38c-.132.135-.309.25-.529.344-.22.095-.489.142-.806.142Zm.128-.752c.331 0 .611-.065.838-.196a1.324 1.324 0 0 0 .696-1.154v-.767c-.036.043-.114.082-.234.117a3.777 3.777 0 0 1-.412.089 18.073 18.073 0 0 1-.803.107 3.174 3.174 0 0 0-.611.138 1.051 1.051 0 0 0-.454.281c-.114.123-.171.291-.171.504 0 .291.108.511.323.66.218.147.494.221.828.221Zm4.246 2.67c-.142 0-.269-.012-.38-.035a1.07 1.07 0 0 1-.231-.064l.213-.739c.204.052.384.071.54.057a.646.646 0 0 0 .416-.21c.123-.123.235-.323.337-.6l.156-.426-2.017-5.483h.909l1.506 4.347h.057l1.505-4.347h.91l-2.316 6.25a2.361 2.361 0 0 1-.387.7 1.447 1.447 0 0 1-.536.415c-.201.09-.429.135-.682.135Zm8.89-6.278-.752.213a1.415 1.415 0 0 0-.21-.366 1.014 1.014 0 0 0-.369-.298 1.347 1.347 0 0 0-.6-.117c-.334 0-.612.076-.835.23-.22.152-.33.345-.33.579 0 .209.076.373.227.494.152.121.388.221.71.302l.81.198c.488.119.851.3 1.09.544.239.241.359.553.359.934 0 .312-.09.592-.27.838-.178.246-.426.44-.746.582a2.722 2.722 0 0 1-1.115.213c-.556 0-1.017-.12-1.381-.362-.365-.241-.596-.594-.693-1.058l.796-.199c.075.294.219.514.429.66.213.147.492.221.835.221.391 0 .701-.083.93-.249.232-.168.348-.369.348-.604a.63.63 0 0 0-.199-.475c-.132-.131-.336-.228-.61-.292l-.909-.213c-.5-.118-.867-.302-1.101-.55-.232-.251-.348-.565-.348-.941 0-.308.086-.58.259-.817.175-.237.413-.423.714-.558a2.52 2.52 0 0 1 1.03-.202c.539 0 .963.118 1.271.355.31.237.53.549.66.938Zm4.586 4.233h-.923l2.67-7.273h.909l2.671 7.273h-.924l-2.173-6.123h-.057l-2.173 6.123Zm.341-2.841h3.721v.781h-3.721v-.781Zm6.843-4.432v7.273h-.838v-7.273h.838Zm2.373 0v7.273h-.838v-7.273h.838Zm3.751 7.386c-.493 0-.925-.117-1.296-.351a2.39 2.39 0 0 1-.867-.984c-.206-.421-.309-.914-.309-1.477 0-.568.103-1.064.309-1.488.208-.424.497-.753.867-.987.371-.235.803-.352 1.296-.352.492 0 .923.117 1.292.352.372.234.661.563.867.987.208.424.312.92.312 1.488 0 .563-.104 1.056-.312 1.477a2.362 2.362 0 0 1-.867.984c-.369.234-.8.351-1.292.351Zm0-.753c.374 0 .682-.095.923-.287a1.7 1.7 0 0 0 .536-.757c.116-.312.174-.651.174-1.015a2.92 2.92 0 0 0-.174-1.019 1.721 1.721 0 0 0-.536-.764c-.241-.194-.549-.291-.923-.291s-.682.097-.924.291c-.241.194-.42.449-.536.764a2.92 2.92 0 0 0-.174 1.019c0 .364.058.703.174 1.015a1.7 1.7 0 0 0 .536.757c.242.192.55.287.924.287Zm4.801.64-1.662-5.455h.881l1.179 4.176h.056l1.165-4.176h.895l1.151 4.162h.056l1.179-4.162h.881l-1.662 5.455h-.824l-1.193-4.191h-.085l-1.193 4.191h-.824Zm11.917.113c-.492 0-.924-.117-1.296-.351a2.395 2.395 0 0 1-.866-.984c-.206-.421-.309-.914-.309-1.477 0-.568.103-1.064.309-1.488.208-.424.497-.753.866-.987.372-.235.804-.352 1.296-.352.493 0 .924.117 1.293.352.372.234.661.563.867.987.208.424.312.92.312 1.488 0 .563-.104 1.056-.312 1.477a2.362 2.362 0 0 1-.867.984c-.369.234-.8.351-1.293.351Zm0-.753c.374 0 .682-.095.924-.287a1.7 1.7 0 0 0 .536-.757c.116-.312.174-.651.174-1.015a2.92 2.92 0 0 0-.174-1.019 1.721 1.721 0 0 0-.536-.764c-.242-.194-.55-.291-.924-.291s-.681.097-.923.291c-.241.194-.42.449-.536.764a2.92 2.92 0 0 0-.174 1.019c0 .364.058.703.174 1.015a1.7 1.7 0 0 0 .536.757c.242.192.549.287.923.287Zm4.589-2.642v3.282h-.838v-5.455h.81v.852h.071c.128-.277.322-.499.582-.667.261-.171.597-.256 1.009-.256.369 0 .692.076.969.227.277.15.493.377.647.682.154.303.231.687.231 1.151v3.466h-.839v-3.409c0-.429-.111-.763-.333-1.002-.223-.241-.528-.362-.917-.362-.267 0-.506.058-.717.174a1.239 1.239 0 0 0-.493.508 1.67 1.67 0 0 0-.182.809Zm7.938 3.282v-7.273h4.389v.781h-3.508v2.458h3.281v.781h-3.281v2.471h3.565v.782h-4.446Zm10.323-5.455-2.017 5.455h-.852l-2.017-5.455h.909l1.506 4.347h.056l1.506-4.347h.909Zm3.198 5.568c-.526 0-.979-.116-1.36-.348a2.332 2.332 0 0 1-.877-.98c-.204-.421-.306-.911-.306-1.47 0-.559.102-1.051.306-1.477.206-.429.492-.763.859-1.002.37-.241.8-.362 1.293-.362.284 0 .564.047.841.142.277.095.53.249.757.462.227.21.408.49.543.838.135.348.203.776.203 1.285v.355h-4.205v-.724h3.352a1.79 1.79 0 0 0-.184-.824 1.4 1.4 0 0 0-.519-.572 1.455 1.455 0 0 0-.788-.209c-.334 0-.623.083-.867.249a1.631 1.631 0 0 0-.557.639c-.13.262-.196.544-.196.845v.483c0 .412.072.761.214 1.047.144.285.344.501.6.65.255.147.552.22.891.22.22 0 .419-.03.597-.092.18-.064.335-.159.465-.284a1.29 1.29 0 0 0 .302-.476l.809.227a1.791 1.791 0 0 1-.429.725c-.202.206-.45.367-.746.483-.296.113-.629.17-.998.17Zm3.533-.113v-5.455h.81v.824h.057c.099-.27.279-.489.54-.657.26-.168.554-.252.88-.252l.231.003c.092.003.162.006.21.011v.852a3.14 3.14 0 0 0-.512-.056c-.265 0-.502.055-.71.166a1.23 1.23 0 0 0-.668 1.112v3.452h-.838Zm4.427 2.045c-.142 0-.269-.012-.38-.035a1.07 1.07 0 0 1-.231-.064l.213-.739c.204.052.384.071.54.057a.642.642 0 0 0 .415-.21c.124-.123.236-.323.338-.6l.156-.426-2.017-5.483h.909l1.506 4.347h.057l1.505-4.347h.909l-2.315 6.25a2.361 2.361 0 0 1-.387.7 1.455 1.455 0 0 1-.536.415c-.202.09-.429.135-.682.135Zm9.274-2.045-1.989-7.273h.895l1.52 5.923h.071l1.548-5.923h.994l1.549 5.923h.071l1.52-5.923h.895l-1.989 7.273h-.909l-1.605-5.796h-.057l-1.605 5.796h-.909Zm9.836.113c-.525 0-.979-.116-1.36-.348a2.332 2.332 0 0 1-.877-.98c-.203-.421-.305-.911-.305-1.47 0-.559.102-1.051.305-1.477.206-.429.493-.763.859-1.002.37-.241.801-.362 1.293-.362.284 0 .565.047.842.142.277.095.529.249.756.462.227.21.409.49.543.838.135.348.203.776.203 1.285v.355h-4.205v-.724h3.353c0-.308-.062-.582-.185-.824a1.4 1.4 0 0 0-.519-.572 1.455 1.455 0 0 0-.788-.209c-.334 0-.623.083-.866.249a1.626 1.626 0 0 0-.558.639c-.13.262-.195.544-.195.845v.483c0 .412.071.761.213 1.047.144.285.344.501.6.65.256.147.553.22.891.22.221 0 .419-.03.597-.092.18-.064.335-.159.465-.284a1.29 1.29 0 0 0 .302-.476l.81.227a1.805 1.805 0 0 1-.43.725c-.201.206-.45.367-.746.483-.296.113-.628.17-.998.17Zm3.647-.113v-7.273h.838v2.685h.071c.062-.095.147-.216.256-.363.111-.149.27-.281.476-.397.208-.119.49-.178.845-.178.459 0 .864.115 1.215.345.35.229.623.555.82.976.196.422.295.919.295 1.492 0 .577-.099 1.078-.295 1.502a2.332 2.332 0 0 1-.817.98 2.14 2.14 0 0 1-1.204.344c-.35 0-.631-.058-.841-.174a1.56 1.56 0 0 1-.487-.401 6.065 6.065 0 0 1-.263-.376h-.099v.838h-.81Zm.824-2.728c0 .412.061.776.181 1.091.121.312.297.557.529.735.232.175.517.262.853.262.35 0 .642-.092.877-.277a1.7 1.7 0 0 0 .533-.752c.12-.318.181-.67.181-1.059 0-.383-.06-.729-.178-1.037a1.601 1.601 0 0 0-.529-.735c-.234-.182-.529-.273-.884-.273-.341 0-.628.086-.86.259-.232.171-.407.41-.525.717a2.938 2.938 0 0 0-.178 1.069Zm9.137-1.505-.753.213a1.383 1.383 0 0 0-.209-.366 1.014 1.014 0 0 0-.369-.298 1.349 1.349 0 0 0-.601-.117c-.333 0-.612.076-.834.23-.22.152-.33.345-.33.579 0 .209.075.373.227.494.151.121.388.221.71.302l.81.198c.488.119.851.3 1.09.544.239.241.359.553.359.934 0 .312-.09.592-.27.838-.178.246-.426.44-.746.582-.32.142-.691.213-1.115.213-.556 0-1.017-.12-1.381-.362-.365-.241-.596-.594-.693-1.058l.796-.199c.075.294.219.514.429.66.213.147.492.221.835.221.39 0 .701-.083.93-.249.232-.168.348-.369.348-.604a.63.63 0 0 0-.199-.475c-.132-.131-.336-.228-.61-.292l-.91-.213c-.499-.118-.866-.302-1.1-.55-.232-.251-.348-.565-.348-.941 0-.308.086-.58.259-.817.175-.237.413-.423.714-.558a2.52 2.52 0 0 1 1.029-.202c.54 0 .964.118 1.272.355.31.237.53.549.66.938Zm1.361 4.233v-5.455h.838v5.455h-.838Zm.426-6.364a.596.596 0 0 1-.422-.167.536.536 0 0 1-.174-.401c0-.156.058-.29.174-.401a.591.591 0 0 1 .422-.167.58.58 0 0 1 .419.167.529.529 0 0 1 .178.401c0 .156-.059.29-.178.401a.584.584 0 0 1-.419.167Zm4.319.909v.71h-2.826v-.71h2.826Zm-2.002-1.307h.838v5.199c0 .237.034.414.103.533a.531.531 0 0 0 .27.234c.111.038.228.057.351.057.092 0 .168-.005.227-.014l.142-.029.171.753a1.575 1.575 0 0 1-.238.064 1.73 1.73 0 0 1-.387.036c-.237 0-.469-.051-.696-.153a1.385 1.385 0 0 1-.561-.465c-.147-.209-.22-.471-.22-.789v-5.426Zm5.491 6.875c-.525 0-.978-.116-1.36-.348a2.339 2.339 0 0 1-.877-.98c-.203-.421-.305-.911-.305-1.47 0-.559.102-1.051.305-1.477.206-.429.493-.763.86-1.002.369-.241.8-.362 1.292-.362.284 0 .565.047.842.142.277.095.529.249.756.462.228.21.409.49.544.838.135.348.202.776.202 1.285v.355h-4.205v-.724h3.353c0-.308-.062-.582-.185-.824a1.404 1.404 0 0 0-.518-.572 1.461 1.461 0 0 0-.789-.209 1.5 1.5 0 0 0-.866.249 1.626 1.626 0 0 0-.558.639c-.13.262-.195.544-.195.845v.483c0 .412.071.761.213 1.047.144.285.344.501.6.65.256.147.553.22.891.22.221 0 .419-.03.597-.092.18-.064.335-.159.465-.284a1.29 1.29 0 0 0 .302-.476l.81.227a1.793 1.793 0 0 1-.43.725c-.201.206-.45.367-.746.483-.296.113-.628.17-.998.17Zm4.145-.057a.611.611 0 0 1-.451-.188.614.614 0 0 1-.189-.451c0-.175.063-.325.189-.451a.615.615 0 0 1 .451-.188c.175 0 .325.063.451.188a.618.618 0 0 1 .188.451.664.664 0 0 1-.32.554.604.604 0 0 1-.319.085Zm2.754 0a.611.611 0 0 1-.451-.188.614.614 0 0 1-.189-.451c0-.175.063-.325.189-.451a.615.615 0 0 1 .451-.188c.175 0 .325.063.451.188a.618.618 0 0 1 .188.451.664.664 0 0 1-.32.554.607.607 0 0 1-.319.085Zm2.753 0a.614.614 0 0 1-.451-.188.616.616 0 0 1-.188-.451c0-.175.063-.325.188-.451a.618.618 0 0 1 .451-.188c.176 0 .326.063.451.188a.615.615 0 0 1 .189.451.664.664 0 0 1-.32.554.608.608 0 0 1-.32.085Z"/><path fill="#D40101" d="M362.322 245.635a2.8 2.8 0 0 0 0-5.6v5.6Zm-96.363-4.78a2.801 2.801 0 0 0 0 3.96l17.819 17.819a2.801 2.801 0 0 0 3.96-3.96l-15.839-15.839 15.839-15.839a2.8 2.8 0 1 0-3.96-3.96l-17.819 17.819Zm96.363 1.98v-2.8h-94.383v5.6h94.383v-2.8Z"/></svg>