<svg xmlns="http://www.w3.org/2000/svg" viewBox="0 0 484 307" fill="none"><rect width="483" height="306" x=".5" y=".5" fill="#232222" rx="9.5"/><rect width="483" height="306" x=".5" y=".5" stroke="#4F4F4F" rx="9.5"/><circle cx="12.813" cy="12.813" r="4.594" fill="#EE6B5F" stroke="#E93F30" stroke-width=".438"/><circle cx="27.688" cy="12.813" r="4.594" fill="#464545" stroke="#464545" stroke-width=".438"/><circle cx="42.563" cy="12.813" r="4.594" fill="#464545" stroke="#464545" stroke-width=".438"/><path stroke="#fff" stroke-linecap="round" stroke-opacity=".1" stroke-width="3.694" d="M207.375 12.813h101.178"/><g stroke="#fff" stroke-width="3" opacity=".1"><circle cx="32" cy="34.83" r="7.705"/><path stroke-linecap="round" d="M16 52.034h32"/></g><g stroke="#fff" stroke-width="3" opacity=".1"><circle cx="78.667" cy="34.83" r="7.705"/><path stroke-linecap="round" d="M62.667 52.034h32"/></g><g stroke="#fff" stroke-width="3" opacity=".1"><circle cx="125.333" cy="34.83" r="7.705"/><path stroke-linecap="round" d="M109.333 52.034h32"/></g><g stroke="#fff" stroke-width="3" opacity=".1"><circle cx="172" cy="34.83" r="7.705"/><path stroke-linecap="round" d="M156 52.034h32"/></g><g stroke="#fff" stroke-width="3" opacity=".1"><circle cx="218.667" cy="34.83" r="7.705"/><path stroke-linecap="round" d="M202.667 52.034h32"/></g><g stroke="#fff" stroke-width="3" opacity=".1"><circle cx="265.333" cy="34.83" r="7.705"/><path stroke-linecap="round" d="M249.333 52.034h32"/></g><g stroke="#fff" stroke-width="3" opacity=".1"><circle cx="312" cy="34.83" r="7.705"/><path stroke-linecap="round" d="M296 52.034h32"/></g><g stroke="#3476F3" stroke-width="3" opacity=".5"><circle cx="358.667" cy="34.83" r="7.705"/><path stroke-linecap="round" d="M342.667 52.034h32"/></g><g stroke="#fff" stroke-width="3" opacity=".1"><circle cx="405.333" cy="34.83" r="7.705"/><path stroke-linecap="round" d="M389.333 52.034h32"/></g><g stroke="#fff" stroke-width="3" opacity=".1"><circle cx="452" cy="34.83" r="7.705"/><path stroke-linecap="round" d="M436 52.034h32"/></g><path stroke="#fff" stroke-opacity=".1" d="M8.5 60.534h105V284.5H8.5z"/><path stroke="#fff" stroke-linecap="round" stroke-opacity=".1" stroke-width="3.694" d="M24 76.034h74M24 98.034h32.85M24 120.034h74"/><g opacity=".25"><path fill="#005BD9" d="M8 136.034h106v19.126H8z"/><path fill="#D40101" d="m39.736 144.513-6.592-6.083a1.541 1.541 0 0 0-1.034-.396c-.383 0-.752.141-1.034.396l-4.137 3.833a3.69 3.69 0 0 1 1.42.933c.393.417.68.918.837 1.462h5.584a.538.538 0 0 1 .366.15.5.5 0 0 1 .15.359v.835a.5.5 0 0 1-.318.469.518.518 0 0 1-.198.039h-.645v1.181a.492.492 0 0 1-.15.359.512.512 0 0 1-.365.149h-1.416a.512.512 0 0 1-.515-.508v-1.181h-2.493a3.52 3.52 0 0 1-.826 1.479c-.393.42-.884.742-1.43.936l4.155 3.84c.281.254.65.395 1.034.395.383 0 .752-.141 1.034-.395l6.58-6.08a1.475 1.475 0 0 0-.008-2.172Z"/><path fill="#D40101" d="M25.715 143.921a1.886 1.886 0 0 0-.775.185c-.27.131-.5.33-.664.577a1.638 1.638 0 0 0 .522 2.316c.256.156.55.242.85.249.302.008.6-.063.864-.206a1.68 1.68 0 0 0 .637-.607c.153-.254.234-.544.235-.839a1.61 1.61 0 0 0-.474-1.182 1.694 1.694 0 0 0-1.195-.493Z"/><path stroke="#fff" stroke-linecap="round" stroke-width="3.694" d="M48.215 145.597H98"/></g><g clip-path="url(#a)"><g opacity=".5"><path fill="#D40101" d="m160.506 87.3-9.428-8.7a2.209 2.209 0 0 0-1.479-.566c-.548 0-1.076.202-1.479.566l-5.916 5.483c.775.282 1.471.74 2.032 1.335a5.13 5.13 0 0 1 1.195 2.09h7.987a.75.75 0 0 1 .523.214.722.722 0 0 1 .216.514v1.194a.718.718 0 0 1-.456.671.75.75 0 0 1-.283.056h-.923v1.689a.716.716 0 0 1-.453.671.752.752 0 0 1-.284.056h-2.025a.751.751 0 0 1-.523-.213.698.698 0 0 1-.213-.514v-1.69h-3.566a5.03 5.03 0 0 1-1.181 2.116 5.174 5.174 0 0 1-2.046 1.34l5.943 5.49c.403.364.931.566 1.479.566s1.076-.202 1.479-.566l9.412-8.695c.214-.201.384-.443.5-.71a2.105 2.105 0 0 0-.006-1.69 2.14 2.14 0 0 0-.505-.707Z"/><path fill="#D40101" d="M140.452 86.455a2.682 2.682 0 0 0-1.108.264 2.397 2.397 0 0 0-.949.826 2.331 2.331 0 0 0-.118 2.4c.2.373.498.688.864.911a2.456 2.456 0 0 0 2.451.062c.377-.205.692-.504.911-.868.22-.363.336-.777.337-1.2a2.283 2.283 0 0 0-.165-.912 2.333 2.333 0 0 0-.514-.778 2.427 2.427 0 0 0-1.709-.705Z"/><g stroke="#fff" stroke-linecap="round" stroke-width="3.694" opacity=".5"><path d="M169.191 84.851h128.476M169.191 92.851H380"/></g></g><mask id="b" fill="#fff"><path d="M122 117.668h354V269H122V117.668Z"/></mask><path fill="#fff" fill-opacity=".05" d="M122 117.668v1h354v-2H122v1Z" mask="url(#b)"/><path stroke="#fff" stroke-linecap="round" stroke-opacity=".1" stroke-width="3.694" d="M138 133.668h25.295M138 149.668h101.178"/><path stroke="#fff" stroke-linecap="round" stroke-opacity=".1" stroke-width="8" d="M138 165.668h32.849"/><path stroke="#fff" stroke-linecap="round" stroke-opacity=".1" stroke-width="3.694" d="m138 182.407 50.589-.739M138 198.407h101.178M138 214.407h32.849M138 241.907h39.985"/><rect width="221" height="26" x="188.485" y="228.907" fill="#2F2F2F" rx="9.5"/><rect width="221" height="26" x="188.485" y="228.907" stroke="#D40101" stroke-width="3" rx="9.5"/><path fill="#fff" d="M207.4 246.407h-1.108l3.204-8.727h1.091l3.205 8.727h-1.108l-2.608-7.346h-.068l-2.608 7.346Zm.409-3.409h4.466v.938h-4.466v-.938Zm8.211-5.318v8.727h-1.005v-8.727h1.005Zm3.325 8.727-1.994-6.545h1.057l1.415 5.011h.068l1.397-5.011h1.074l1.381 4.994h.068l1.415-4.994h1.057l-1.995 6.545h-.988l-1.432-5.028h-.102l-1.432 5.028h-.989Zm10.193.154a2.65 2.65 0 0 1-1.129-.235 1.94 1.94 0 0 1-.805-.686c-.199-.301-.298-.665-.298-1.091 0-.375.073-.679.221-.912.148-.235.345-.42.592-.554.248-.133.52-.233.819-.298.301-.068.603-.122.907-.162.398-.051.72-.089.968-.115.25-.028.431-.075.545-.141.117-.065.175-.179.175-.34v-.035c0-.42-.115-.747-.345-.98-.228-.233-.573-.349-1.036-.349-.48 0-.856.105-1.129.315-.273.21-.465.435-.575.674l-.955-.341c.17-.398.398-.708.682-.929.287-.225.599-.381.937-.469a3.888 3.888 0 0 1 1.006-.136c.21 0 .452.025.724.076.276.049.542.149.797.303.259.153.473.385.644.694.17.31.255.725.255 1.245v4.312h-1.005v-.886h-.051a1.794 1.794 0 0 1-.341.456c-.159.162-.371.3-.635.413-.264.114-.587.171-.968.171Zm.154-.904c.398 0 .733-.078 1.006-.234a1.597 1.597 0 0 0 .835-1.385v-.921c-.043.052-.137.098-.281.141-.142.04-.307.075-.495.107a20.6 20.6 0 0 1-.963.127c-.261.035-.506.09-.733.167a1.269 1.269 0 0 0-.545.336c-.137.148-.205.35-.205.605 0 .35.129.614.388.793.261.176.592.264.993.264Zm5.095 3.205c-.17 0-.322-.014-.456-.043a1.17 1.17 0 0 1-.277-.077l.256-.886c.244.063.46.085.648.068a.776.776 0 0 0 .498-.251c.148-.148.283-.388.405-.72l.188-.512-2.421-6.579h1.091l1.807 5.216h.068l1.807-5.216h1.091l-2.778 7.5a2.82 2.82 0 0 1-.465.839 1.74 1.74 0 0 1-.643.499 1.989 1.989 0 0 1-.819.162Zm10.669-7.534-.904.255a1.656 1.656 0 0 0-.251-.439 1.236 1.236 0 0 0-.443-.358c-.188-.093-.428-.14-.72-.14-.401 0-.735.092-1.002.277-.264.182-.396.413-.396.694 0 .25.091.448.273.593.181.145.465.265.852.362l.971.239c.586.142 1.022.359 1.309.652.287.289.43.663.43 1.12 0 .375-.108.711-.324 1.006a2.153 2.153 0 0 1-.895.699c-.383.17-.829.256-1.338.256-.667 0-1.22-.145-1.657-.435-.438-.29-.715-.713-.831-1.27l.954-.239c.091.353.263.617.516.793.255.176.589.264 1.001.264.469 0 .841-.099 1.117-.298.278-.202.417-.443.417-.725a.762.762 0 0 0-.238-.571c-.159-.156-.404-.272-.733-.349l-1.091-.256c-.6-.142-1.04-.362-1.321-.66-.279-.301-.418-.678-.418-1.129 0-.37.104-.696.311-.981.21-.284.496-.507.857-.669a3.019 3.019 0 0 1 1.236-.242c.647 0 1.156.142 1.525.426.372.284.636.659.793 1.125Zm5.502 5.079h-1.108l3.205-8.727h1.091l3.204 8.727h-1.108l-2.608-7.346h-.068l-2.608 7.346Zm.409-3.409h4.466v.938h-4.466v-.938Zm8.212-5.318v8.727h-1.006v-8.727h1.006Zm2.848 0v8.727h-1.006v-8.727h1.006Zm4.501 8.864c-.591 0-1.11-.141-1.556-.422a2.87 2.87 0 0 1-1.039-1.181c-.248-.505-.371-1.096-.371-1.772 0-.682.123-1.277.371-1.786.25-.508.596-.903 1.039-1.185.446-.281.965-.421 1.556-.421.591 0 1.108.14 1.551.421.446.282.792.677 1.04 1.185.25.509.375 1.104.375 1.786 0 .676-.125 1.267-.375 1.772a2.838 2.838 0 0 1-1.04 1.181c-.443.281-.96.422-1.551.422Zm0-.904c.449 0 .818-.115 1.108-.345.289-.23.504-.533.643-.908s.209-.781.209-1.218c0-.438-.07-.846-.209-1.223a2.067 2.067 0 0 0-.643-.917c-.29-.233-.659-.349-1.108-.349-.449 0-.818.116-1.108.349a2.06 2.06 0 0 0-.644.917 3.51 3.51 0 0 0-.209 1.223c0 .437.07.843.209 1.218.139.375.354.678.644.908.29.23.659.345 1.108.345Zm5.761.767-1.994-6.545h1.057l1.414 5.011h.069l1.397-5.011h1.074l1.381 4.994h.068l1.415-4.994h1.057l-1.995 6.545h-.988l-1.432-5.028h-.102l-1.432 5.028h-.989Zm14.301.137c-.591 0-1.109-.141-1.555-.422a2.872 2.872 0 0 1-1.04-1.181c-.247-.505-.371-1.096-.371-1.772 0-.682.124-1.277.371-1.786.25-.508.597-.903 1.04-1.185.446-.281.964-.421 1.555-.421s1.108.14 1.551.421a2.83 2.83 0 0 1 1.04 1.185c.25.509.375 1.104.375 1.786 0 .676-.125 1.267-.375 1.772a2.83 2.83 0 0 1-1.04 1.181c-.443.281-.96.422-1.551.422Zm0-.904c.449 0 .818-.115 1.108-.345.29-.23.504-.533.644-.908.139-.375.208-.781.208-1.218a3.51 3.51 0 0 0-.208-1.223 2.069 2.069 0 0 0-.644-.917c-.29-.233-.659-.349-1.108-.349-.449 0-.818.116-1.108.349-.29.233-.504.539-.643.917a3.51 3.51 0 0 0-.209 1.223c0 .437.07.843.209 1.218.139.375.353.678.643.908.29.23.659.345 1.108.345Zm5.507-3.17v3.937h-1.006v-6.545h.972v1.022h.085c.153-.332.386-.599.699-.801.312-.204.716-.306 1.21-.306.443 0 .831.09 1.164.272.332.179.59.452.775.818.185.364.277.824.277 1.381v4.159h-1.006v-4.091c0-.514-.133-.914-.4-1.201-.267-.29-.634-.435-1.1-.435-.321 0-.608.07-.86.209-.25.139-.448.342-.593.609-.145.267-.217.591-.217.972Zm9.525 3.937v-8.727h5.267v.937h-4.21v2.949h3.937v.938h-3.937v2.966h4.278v.937h-5.335Zm12.388-6.545-2.421 6.545h-1.022l-2.421-6.545h1.091l1.807 5.216h.068l1.807-5.216h1.091Zm3.837 6.682c-.63 0-1.174-.14-1.632-.418a2.802 2.802 0 0 1-1.052-1.176c-.245-.506-.367-1.094-.367-1.764 0-.671.122-1.262.367-1.773a2.894 2.894 0 0 1 1.031-1.202c.443-.29.96-.434 1.551-.434.341 0 .678.056 1.01.17.332.114.635.298.908.554.272.253.49.588.652 1.006.162.417.243.931.243 1.542v.426h-5.046v-.869h4.023c0-.369-.074-.699-.222-.989a1.676 1.676 0 0 0-.622-.686 1.746 1.746 0 0 0-.946-.251c-.401 0-.747.099-1.04.298a1.96 1.96 0 0 0-.669.767 2.26 2.26 0 0 0-.234 1.014v.58c0 .494.085.913.256 1.257.173.341.413.601.72.78a2.11 2.11 0 0 0 1.069.264c.264 0 .503-.037.716-.111.216-.076.402-.19.558-.341.157-.153.277-.343.363-.571l.971.273c-.102.33-.274.619-.515.869-.242.248-.54.441-.895.58a3.33 3.33 0 0 1-1.198.205Zm4.24-.137v-6.545h.972v.988h.068c.119-.323.335-.586.648-.788a1.904 1.904 0 0 1 1.057-.303 10.862 10.862 0 0 1 .528.018v1.022a3.308 3.308 0 0 0-.234-.038c-.12-.02-.246-.03-.38-.03-.318 0-.602.067-.852.2a1.47 1.47 0 0 0-.801 1.334v4.142h-1.006Zm5.312 2.455c-.17 0-.322-.014-.456-.043a1.156 1.156 0 0 1-.277-.077l.256-.886c.244.063.46.085.648.068a.778.778 0 0 0 .498-.251c.148-.148.283-.388.405-.72l.188-.512-2.421-6.579h1.091l1.807 5.216h.068l1.807-5.216h1.091l-2.779 7.5c-.125.338-.28.618-.464.839a1.735 1.735 0 0 1-.644.499 1.98 1.98 0 0 1-.818.162Zm11.129-2.455-2.387-8.727h1.074l1.824 7.108h.085l1.858-7.108h1.193l1.858 7.108h.086l1.823-7.108h1.074l-2.386 8.727h-1.091l-1.926-6.954h-.068l-1.926 6.954h-1.091Zm11.804.137c-.631 0-1.175-.14-1.632-.418a2.797 2.797 0 0 1-1.053-1.176c-.244-.506-.366-1.094-.366-1.764 0-.671.122-1.262.366-1.773a2.894 2.894 0 0 1 1.031-1.202c.443-.29.96-.434 1.551-.434.341 0 .678.056 1.01.17.333.114.635.298.908.554.273.253.49.588.652 1.006.162.417.243.931.243 1.542v.426h-5.046v-.869h4.023c0-.369-.074-.699-.221-.989a1.679 1.679 0 0 0-.623-.686 1.746 1.746 0 0 0-.946-.251c-.4 0-.747.099-1.039.298a1.96 1.96 0 0 0-.669.767 2.248 2.248 0 0 0-.235 1.014v.58c0 .494.085.913.256 1.257.173.341.413.601.72.78.307.176.663.264 1.07.264.264 0 .503-.037.716-.111.215-.076.402-.19.558-.341a1.54 1.54 0 0 0 .362-.571l.972.273c-.103.33-.275.619-.516.869-.241.248-.54.441-.895.58a3.324 3.324 0 0 1-1.197.205Zm4.376-.137v-8.727h1.006v3.222h.085c.074-.114.176-.259.307-.435a1.79 1.79 0 0 1 .571-.477c.25-.142.588-.213 1.014-.213.551 0 1.037.137 1.457.413.421.275.749.666.985 1.172.236.505.353 1.102.353 1.79 0 .693-.117 1.294-.353 1.802-.236.506-.563.898-.98 1.176a2.56 2.56 0 0 1-1.445.414c-.42 0-.757-.07-1.01-.209a1.878 1.878 0 0 1-.584-.482 6.743 6.743 0 0 1-.315-.451h-.119v1.005h-.972Zm.989-3.273c0 .495.072.931.217 1.309.145.375.357.669.635.882.278.21.619.315 1.023.315.42 0 .771-.111 1.052-.332.284-.225.497-.526.639-.904a3.54 3.54 0 0 0 .218-1.27c0-.46-.071-.875-.213-1.244a1.923 1.923 0 0 0-.635-.882c-.281-.219-.635-.328-1.061-.328-.409 0-.753.104-1.032.311a1.873 1.873 0 0 0-.63.861c-.142.366-.213.794-.213 1.282Zm10.964-1.806-.903.255a1.689 1.689 0 0 0-.252-.439 1.227 1.227 0 0 0-.443-.358c-.187-.093-.427-.14-.72-.14-.401 0-.734.092-1.001.277-.265.182-.397.413-.397.694 0 .25.091.448.273.593.182.145.466.265.852.362l.972.239c.585.142 1.021.359 1.308.652.287.289.431.663.431 1.12 0 .375-.108.711-.324 1.006a2.16 2.16 0 0 1-.895.699c-.384.17-.83.256-1.338.256-.668 0-1.22-.145-1.658-.435-.437-.29-.714-.713-.831-1.27l.955-.239c.091.353.262.617.515.793.256.176.59.264 1.002.264.468 0 .841-.099 1.116-.298.279-.202.418-.443.418-.725a.763.763 0 0 0-.239-.571c-.159-.156-.403-.272-.733-.349l-1.091-.256c-.599-.142-1.04-.362-1.321-.66-.278-.301-.417-.678-.417-1.129 0-.37.103-.696.311-.981.21-.284.495-.507.856-.669a3.026 3.026 0 0 1 1.236-.242c.648 0 1.156.142 1.526.426.372.284.636.659.792 1.125Zm1.633 5.079v-6.545h1.006v6.545h-1.006Zm.512-7.636a.717.717 0 0 1-.507-.2.642.642 0 0 1-.209-.482.64.64 0 0 1 .209-.481.713.713 0 0 1 .507-.201.7.7 0 0 1 .503.201.636.636 0 0 1 .213.481.639.639 0 0 1-.213.482.704.704 0 0 1-.503.2Zm5.183 1.091v.852h-3.392v-.852h3.392Zm-2.404-1.568h1.006v6.238c0 .284.041.497.123.639.086.14.194.233.324.282.134.045.274.068.422.068.111 0 .202-.006.273-.017l.17-.034.205.903a2.129 2.129 0 0 1-.75.119c-.284 0-.563-.061-.835-.183a1.659 1.659 0 0 1-.674-.558c-.176-.25-.264-.565-.264-.946v-6.511Zm6.59 8.25c-.63 0-1.174-.14-1.632-.418a2.802 2.802 0 0 1-1.052-1.176c-.245-.506-.367-1.094-.367-1.764 0-.671.122-1.262.367-1.773a2.894 2.894 0 0 1 1.031-1.202c.443-.29.96-.434 1.551-.434.341 0 .678.056 1.01.17.332.114.635.298.908.554.272.253.49.588.652 1.006.162.417.243.931.243 1.542v.426h-5.046v-.869h4.023c0-.369-.074-.699-.222-.989a1.676 1.676 0 0 0-.622-.686 1.746 1.746 0 0 0-.946-.251c-.4 0-.747.099-1.04.298a1.976 1.976 0 0 0-.669.767 2.26 2.26 0 0 0-.234 1.014v.58c0 .494.085.913.256 1.257.173.341.413.601.72.78a2.11 2.11 0 0 0 1.069.264c.265 0 .503-.037.716-.111.216-.076.402-.19.559-.341a1.54 1.54 0 0 0 .362-.571l.971.273c-.102.33-.274.619-.515.869-.242.248-.54.441-.895.58a3.326 3.326 0 0 1-1.198.205Zm4.973-.069a.74.74 0 0 1-.541-.225.742.742 0 0 1-.226-.542c0-.21.076-.39.226-.541a.741.741 0 0 1 .541-.226c.211 0 .391.076.542.226a.74.74 0 0 1 .225.541c0 .14-.035.267-.106.384a.801.801 0 0 1-.277.281.735.735 0 0 1-.384.102Zm3.305 0a.739.739 0 0 1-.541-.225.738.738 0 0 1-.226-.542c0-.21.075-.39.226-.541a.74.74 0 0 1 .541-.226.74.74 0 0 1 .541.226.737.737 0 0 1 .226.541c0 .14-.035.267-.106.384a.81.81 0 0 1-.277.281.735.735 0 0 1-.384.102Zm3.305 0a.739.739 0 0 1-.541-.225.738.738 0 0 1-.226-.542c0-.21.075-.39.226-.541a.74.74 0 0 1 .541-.226c.21 0 .39.076.541.226a.737.737 0 0 1 .226.541.793.793 0 0 1-.384.665.73.73 0 0 1-.383.102Z"/><path stroke="#fff" stroke-linecap="round" stroke-opacity=".1" stroke-width="3.694" d="M138 269.407h95.319M138 285.407h101.178"/></g><path stroke="#fff" stroke-opacity=".1" d="M122.5 60.534h353V284.5h-353z"/><path fill="#D40101" d="M307.467 125.325a2.8 2.8 0 0 0-5.6 0h5.6Zm-4.78 96.363a2.801 2.801 0 0 0 3.96 0l17.819-17.819a2.801 2.801 0 0 0-3.96-3.96l-15.839 15.839-15.84-15.839a2.8 2.8 0 0 0-3.959 3.96l17.819 17.819Zm1.98-96.363h-2.8v94.383h5.6v-94.383h-2.8Z"/><defs><clipPath id="a"><path fill="#fff" d="M122 60.034h354V285H122z"/></clipPath></defs></svg>