<svg width="18" height="18" viewBox="0 0 18 18" fill="none" xmlns="http://www.w3.org/2000/svg">
<path d="M9 2.25V15.75" stroke="var(--icon-color)" stroke-width="1.5" stroke-linecap="round" stroke-linejoin="round"/>
<path d="M14.25 6L16.5 12C15.8509 12.4868 15.0614 12.75 14.25 12.75C13.4386 12.75 12.6491 12.4868 12 12L14.25 6ZM14.25 6V5.25" stroke="var(--icon-color)" stroke-width="1.5" stroke-linecap="round" stroke-linejoin="round"/>
<path d="M2.25 5.25H3C5.0928 5.25 7.15342 4.73485 9 3.75C10.8466 4.73485 12.9072 5.25 15 5.25H15.75" stroke="var(--icon-color)" stroke-width="1.5" stroke-linecap="round" stroke-linejoin="round"/>
<path d="M3.75 6L6 12C5.35089 12.4868 4.56139 12.75 3.75 12.75C2.93861 12.75 2.14911 12.4868 1.5 12L3.75 6ZM3.75 6V5.25" stroke="var(--icon-color)" stroke-width="1.5" stroke-linecap="round" stroke-linejoin="round"/>
<path d="M5.25 15.75H12.75" stroke="var(--icon-color)" stroke-width="1.5" stroke-linecap="round" stroke-linejoin="round"/>
</svg>
