<!--
  The SVGs code is based on the Lucide library, licensed under the LGPL License.
  https://github.com/lucide-icons/lucide

  Copyright (c) Lucide Authors

  Modifications made by Passbolt SA.
   - Renaming colors and file name of SVGs.

  @url https://github.com/lucide-icons/lucide/tree/main/icons
-->
<svg width="16" height="16" viewBox="0 0 16 16" fill="none" xmlns="http://www.w3.org/2000/svg">
<path d="M10.6667 14V12.6667C10.6667 11.9594 10.3857 11.2811 9.88561 10.781C9.38552 10.281 8.70724 10 8 10H3.99999C3.29275 10 2.61447 10.281 2.11438 10.781C1.61428 11.2811 1.33333 11.9594 1.33333 12.6667V14" stroke="var(--icon-color)"  stroke-width="1.5" stroke-linecap="round" stroke-linejoin="round"/>
<path d="M6 7.33333C7.47275 7.33333 8.66666 6.13943 8.66666 4.66667C8.66666 3.19391 7.47275 2 6 2C4.52724 2 3.33333 3.19391 3.33333 4.66667C3.33333 6.13943 4.52724 7.33333 6 7.33333Z" stroke="var(--icon-color)"  stroke-width="1.5" stroke-linecap="round" stroke-linejoin="round"/>
<path d="M14.6667 7.3335H10.6667" stroke="var(--icon-color)"  stroke-width="1.5" stroke-linecap="round" stroke-linejoin="round"/>
</svg>
