<svg xmlns="http://www.w3.org/2000/svg" fill="none" viewBox="0 0 24 24"><g clip-path="url(#keeper_svg__a)"><circle cx="12" cy="12" r="12" fill="#fff"/><path fill="#000" d="M22 12c0 5.523-4.477 10-10 10S2 17.523 2 12 6.477 2 12 2s10 4.477 10 10"/><path fill="#ffc700" d="M10.122 3.273h1.545v6.242h3.19l3.839-3.052.965 1.205-4.262 3.388h-5.277z"/><path fill="#ffc700" d="m13.144 3.484 1.545.393v2.158l1.728-1.417 1.284.943-3.294 2.7-1.263-.008zM4.039 15.085l1.545 1.31v-8.58L4.039 9.227zm4.574 3.156-1.547 1.34V4.495l1.547 1.34zm6.076-.124 1.728 1.417 1.284-.944-3.294-2.698-1.263.007v4.77l1.545-.394z"/><path fill="#ffc700" d="m18.696 17.479-3.839-3.054h-3.19v6.242h-1.545v-7.782h5.277l4.262 3.388zm-1.958-5.509 3.16 2.6.985-1.188-1.717-1.411 1.717-1.412-.985-1.188z"/></g><defs><clipPath id="keeper_svg__a"><path fill="#fff" d="M0 0h24v24H0z"/></clipPath></defs></svg>
