<svg width="40" height="40" viewBox="0 0 40 40" fill="none">
<path d="M20.0001 9.59194C20.6036 9.59194 21.0929 9.10266 21.0929 8.4991C21.0929 7.89553 20.6036 7.40625 20.0001 7.40625C19.3965 7.40625 18.9072 7.89553 18.9072 8.4991C18.9072 9.10266 19.3965 9.59194 20.0001 9.59194Z" fill="white" stroke="var(--icon-color)" stroke-width="var(--icon-stroke-width)" stroke-linecap="round" stroke-linejoin="round"/>
<path d="M27.65 9.59194C28.2535 9.59194 28.7428 9.10266 28.7428 8.4991C28.7428 7.89553 28.2535 7.40625 27.65 7.40625C27.0464 7.40625 26.5571 7.89553 26.5571 8.4991C26.5571 9.10266 27.0464 9.59194 27.65 9.59194Z" fill="white" stroke="var(--icon-color)" stroke-width="var(--icon-stroke-width)" stroke-linecap="round" stroke-linejoin="round"/>
<path d="M12.3502 9.59194C12.9537 9.59194 13.443 9.10266 13.443 8.4991C13.443 7.89553 12.9537 7.40625 12.3502 7.40625C11.7466 7.40625 11.2573 7.89553 11.2573 8.4991C11.2573 9.10266 11.7466 9.59194 12.3502 9.59194Z" fill="white" stroke="var(--icon-color)" stroke-width="var(--icon-stroke-width)" stroke-linecap="round" stroke-linejoin="round"/>
<path d="M20.0001 17.2414C20.6036 17.2414 21.0929 16.7521 21.0929 16.1485C21.0929 15.5449 20.6036 15.0557 20.0001 15.0557C19.3965 15.0557 18.9072 15.5449 18.9072 16.1485C18.9072 16.7521 19.3965 17.2414 20.0001 17.2414Z" fill="white" stroke="var(--icon-color)" stroke-width="var(--icon-stroke-width)" stroke-linecap="round" stroke-linejoin="round"/>
<path d="M27.65 17.2414C28.2535 17.2414 28.7428 16.7521 28.7428 16.1485C28.7428 15.5449 28.2535 15.0557 27.65 15.0557C27.0464 15.0557 26.5571 15.5449 26.5571 16.1485C26.5571 16.7521 27.0464 17.2414 27.65 17.2414Z" fill="white" stroke="var(--icon-color)" stroke-width="var(--icon-stroke-width)" stroke-linecap="round" stroke-linejoin="round"/>
<path d="M12.3502 17.2414C12.9537 17.2414 13.443 16.7521 13.443 16.1485C13.443 15.5449 12.9537 15.0557 12.3502 15.0557C11.7466 15.0557 11.2573 15.5449 11.2573 16.1485C11.2573 16.7521 11.7466 17.2414 12.3502 17.2414Z" fill="white" stroke="var(--icon-color)" stroke-width="var(--icon-stroke-width)" stroke-linecap="round" stroke-linejoin="round"/>
<path d="M20.0001 24.8917C20.6036 24.8917 21.0929 24.4025 21.0929 23.7989C21.0929 23.1953 20.6036 22.7061 20.0001 22.7061C19.3965 22.7061 18.9072 23.1953 18.9072 23.7989C18.9072 24.4025 19.3965 24.8917 20.0001 24.8917Z" fill="white" stroke="var(--icon-color)" stroke-width="var(--icon-stroke-width)" stroke-linecap="round" stroke-linejoin="round"/>
<path d="M27.65 24.8917C28.2535 24.8917 28.7428 24.4025 28.7428 23.7989C28.7428 23.1953 28.2535 22.7061 27.65 22.7061C27.0464 22.7061 26.5571 23.1953 26.5571 23.7989C26.5571 24.4025 27.0464 24.8917 27.65 24.8917Z" fill="white" stroke="var(--icon-color)" stroke-width="var(--icon-stroke-width)" stroke-linecap="round" stroke-linejoin="round"/>
<path d="M12.3502 24.8917C12.9537 24.8917 13.443 24.4025 13.443 23.7989C13.443 23.1953 12.9537 22.7061 12.3502 22.7061C11.7466 22.7061 11.2573 23.1953 11.2573 23.7989C11.2573 24.4025 11.7466 24.8917 12.3502 24.8917Z" fill="white" stroke="var(--icon-color)" stroke-width="var(--icon-stroke-width)" stroke-linecap="round" stroke-linejoin="round"/>
<path d="M20.0001 32.5939C20.6036 32.5939 21.0929 32.1046 21.0929 31.501C21.0929 30.8975 20.6036 30.4082 20.0001 30.4082C19.3965 30.4082 18.9072 30.8975 18.9072 31.501C18.9072 32.1046 19.3965 32.5939 20.0001 32.5939Z" fill="white" stroke="var(--icon-color)" stroke-width="var(--icon-stroke-width)" stroke-linecap="round" stroke-linejoin="round"/>
</svg>
