<?xml version="1.0" encoding="UTF-8"?>
<svg width="1695px" height="818px" viewBox="0 0 1695 818" version="1.1" xmlns="http://www.w3.org/2000/svg" xmlns:xlink="http://www.w3.org/1999/xlink">
    <title>Cloud workspace is disabled</title>
    <defs>
        <linearGradient x1="50.0108644%" y1="99.2509597%" x2="50.0108644%" y2="33.3958005%" id="linearGradient-1">
            <stop stop-color="#F9B2B2" stop-opacity="0.1" offset="0%"></stop>
            <stop stop-color="#C04545" stop-opacity="0.5" offset="100%"></stop>
        </linearGradient>
        <linearGradient x1="49.7957447%" y1="80.6730594%" x2="49.7957447%" y2="16.1221843%" id="linearGradient-2">
            <stop stop-color="#F48C88" offset="0%"></stop>
            <stop stop-color="#ED2724" offset="100%"></stop>
        </linearGradient>
    </defs>
    <g id="Page-1" stroke="none" stroke-width="1" fill="none" fill-rule="evenodd">
        <g id="Passbolt-Landing-Page" transform="translate(-1236.000000, -826.000000)">
            <g id="Group-2" transform="translate(1236.000000, 826.000000)">
                <g id="Background_Elemens" transform="translate(0.000000, 118.000000)">
                    <rect id="Rectangle" fill="#ED2724" x="119.874105" y="695.259843" width="353.887768" height="3.96850394"></rect>
                    <rect id="Rectangle" fill="#ED2724" x="1182.41965" y="695.259843" width="60.9847105" height="3.96850394"></rect>
                    <rect id="Rectangle" fill="#ED2724" x="896.353936" y="556.141732" width="200.047495" height="3.96850394"></rect>
                    <rect id="Rectangle" fill="#14233E" x="1096.18087" y="556.141732" width="595.400455" height="3.96850394"></rect>
                    <rect id="Rectangle" fill="#ED2724" x="1252.33702" y="641.464567" width="183.83637" height="3.96850394"></rect>
                    <rect id="Rectangle" stroke="#221F1F" stroke-width="0.6363" fill="#FFFFFF" x="893.927781" y="641.464567" width="358.519519" height="3.96850394"></rect>
                    <rect id="Rectangle" fill="#D66327" x="473.872154" y="695.259843" width="130.681522" height="3.96850394"></rect>
                    <rect id="Rectangle" fill="#741F13" x="604.553676" y="695.259843" width="40.031555" height="3.96850394"></rect>
                    <rect id="Rectangle" fill="#741F13" x="773.722837" y="556.141732" width="122.6311" height="3.96850394"></rect>
                    <rect id="Rectangle" stroke="#221F1F" stroke-width="0.6363" fill="#FFFFFF" x="636.093689" y="556.141732" width="137.629148" height="3.96850394"></rect>
                    <rect id="Rectangle" fill="#ED2724" x="436.707872" y="556.141732" width="199.385817" height="3.96850394"></rect>
                    <rect id="Rectangle" fill="#14233E" x="0.882238126" y="556.141732" width="225.301561" height="3.96850394"></rect>
                    <rect id="Rectangle" fill="#741F13" x="1243.29408" y="695.259843" width="191.555953" height="3.96850394"></rect>
                    <rect id="Rectangle" fill="#F48C88" x="1383.7905" y="654.362205" width="198.393299" height="3.96850394"></rect>
                    <rect id="Rectangle" fill="#ED2724" x="1383.7905" y="668.472441" width="165.750488" height="3.96850394"></rect>
                    <rect id="Rectangle" fill="#14233E" x="1436.17339" y="641.464567" width="146.672088" height="3.96850394"></rect>
                    <polygon id="Rectangle" fill="#F48C88" transform="translate(121.361338, 612.550488) rotate(-180.000000) translate(-121.361338, -612.550488) " points="1.54237285 610.566236 241.180304 610.566236 241.180304 614.53474 1.54237285 614.53474"></polygon>
                    <polygon id="Rectangle" fill="#ED2724" transform="translate(72.275263, 626.561953) rotate(-180.000000) translate(-72.275263, -626.561953) " points="34.1184644 624.577701 110.432062 624.577701 110.432062 628.546205 34.1184644 628.546205"></polygon>
                    <polygon id="Rectangle" fill="#F48C88" transform="translate(704.949728, 571.434803) rotate(-180.000000) translate(-704.949728, -571.434803) " points="636.135154 569.450551 773.764302 569.450551 773.764302 573.419055 636.135154 573.419055"></polygon>
                    <g id="Group" transform="translate(100.354587, 0.000000)" stroke="#F8B8BA" stroke-linecap="round" stroke-linejoin="round" stroke-width="1.2725">
                        <path d="M333.044893,319.464567 L527.46812,319.574803 C541.47365,319.574803 553.714704,310.204724 557.353936,296.645669 L625.837671,41.6692913 C640.50488,-12.8976378 718.031555,-12.8976378 732.809044,41.6692913 L761.261223,147.496063 C768.319128,173.732283 792.139558,191.811024 819.37866,191.590551 L957.779766,190.488189 L998.914118,271.181102 L1377.06344,271.181102 C1387.42973,271.181102 1395.03904,281.102362 1392.39232,291.133858 L1381.25407,332.692913 C1378.49707,343.055118 1383.12882,353.968504 1392.5026,359.149606 L1532.55791,437.19685" id="Path"></path>
                        <path d="M13.1232921,392.330709 L574.55758,392.440945 C588.56311,392.440945 600.804164,383.070866 604.443396,369.511811 L629.918022,275.03937 C634.880612,256.409449 656.826285,248.251969 672.816851,259.165354 L714.833442,299.070866 C723.876383,305.244094 735.896877,305.244094 744.939818,299.070866 L760.709824,284.299213 C784.419974,262.141732 821.143136,261.480315 845.514964,282.976378 L907.712752,337.543307" id="Path"></path>
                        <ellipse id="Oval" cx="326.648666" cy="319.464567" rx="6.39622642" ry="6.39370079"></ellipse>
                        <ellipse id="Oval" cx="1532.33735" cy="438.519685" rx="6.39622642" ry="6.39370079"></ellipse>
                        <ellipse id="Oval" cx="6.72706571" cy="392.330709" rx="6.39622642" ry="6.39370079"></ellipse>
                    </g>
                    <path d="M824.672088,526.598425 L749.571568,425.952756 C743.065062,417.133858 729.83149,417.244094 723.324984,426.062992 L711.525049,442.15748 C708.216656,446.566929 702.151269,447.889764 697.298959,445.133858 L669.287899,429.03937 C660.575797,424.07874 649.54782,425.070866 641.938517,431.574803 L566.617437,495.952756 C565.07352,497.275591 563.088484,497.606299 561.103448,497.055118 L543.899805,491.433071 C542.025049,490.771654 539.929733,490.88189 538.054977,491.653543 L446.853611,527.149606 C444.096617,528.251969 444.868575,532.330709 447.846129,532.330709 L821.915094,532.330709 C824.782368,532.440945 826.436565,529.023622 824.672088,526.598425 Z" id="Path" fill="#FCDEDB"></path>
                    <path d="M1314.86565,526.598425 L1389.96617,425.952756 C1396.47267,417.133858 1409.70625,417.244094 1416.21275,426.062992 L1428.01269,442.15748 C1431.32108,446.566929 1437.38647,447.889764 1442.23878,445.133858 L1470.24984,429.03937 C1478.96194,424.07874 1489.98992,425.070866 1497.59922,431.574803 L1572.9203,495.952756 C1574.46422,497.275591 1576.44925,497.606299 1578.43429,497.055118 L1595.63793,491.433071 C1597.51269,490.771654 1599.608,490.88189 1601.48276,491.653543 L1692.68412,527.149606 C1695.44112,528.251969 1694.66916,532.330709 1691.69161,532.330709 L1317.8432,532.330709 C1314.75537,532.440945 1313.10117,529.023622 1314.86565,526.598425 Z" id="Path" fill="#FCDEDB"></path>
                </g>
                <g id="Characters_and_Objects" transform="translate(31.000000, 0.000000)">
                    <g id="Group" transform="translate(701.561688, 432.259459)">
                        <g>
                            <path d="M581.987338,0.771891892 L630.412744,172.242162 C632.06737,178.086486 630.964286,184.371892 627.434416,189.334054 L589.819237,242.153514 L41.5862825,242.153514 L3.9711039,189.334054 C0.441233766,184.371892 -0.661850649,178.086486 0.992775974,172.242162 L49.4181818,0.771891892 L581.987338,0.771891892" id="Path" fill="#D75139"></path>
                            <path d="M581.987338,0.771891892 L630.412744,172.242162 C632.06737,178.086486 630.964286,184.371892 627.434416,189.334054 L589.819237,242.153514 L41.5862825,242.153514 L3.9711039,189.334054 C0.441233766,184.371892 -0.661850649,178.086486 0.992775974,172.242162 L49.4181818,0.771891892 L581.987338,0.771891892" id="Path" fill="#D75139"></path>
                            <g>
                                <path d="M630.412744,172.131892 C632.06737,177.976216 630.964286,184.261622 627.434416,189.223784 L589.819237,242.043243 L514.699188,242.043243 L552.314367,189.223784 C555.844237,184.261622 556.947321,177.976216 555.292695,172.131892 L506.867289,0.661621622 L581.987338,0.661621622 L630.412744,172.131892 Z M607.578896,187.018378 C612.432468,180.291892 612.432468,174.227027 611.660308,169.926486 L578.126542,51.2756757 L539.187662,51.2756757 L540.842289,57.12 L571.949269,167.39027 C575.037906,178.417297 573.052354,189.995676 566.433847,199.368649 L558.381331,210.616216 L590.701705,210.616216 L604.931494,190.657297 L607.578896,187.018378 Z" id="Shape" fill="#A53829" fill-rule="nonzero"></path>
                                <path d="M611.660308,169.926486 C612.542776,174.227027 612.432468,180.291892 607.578896,187.018378 L605.041802,190.657297 C608.461364,184.812973 608.351055,179.63027 607.689205,175.770811 L574.155438,57.12 L540.952597,57.12 L539.297971,51.2756757 L578.236851,51.2756757 L611.660308,169.926486 Z" id="Path" fill="#F06B55"></path>
                                <path d="M555.292695,172.131892 C556.947321,177.976216 555.844237,184.261622 552.314367,189.223784 L514.699188,242.043243 L439.57914,242.043243 L477.194318,189.223784 C480.724188,184.261622 481.827273,177.976216 480.172646,172.131892 L431.74724,0.661621622 L506.867289,0.661621622 L555.292695,172.131892 Z M533.782549,187.018378 C538.63612,180.291892 538.63612,174.227027 537.863961,169.926486 L504.330195,51.2756757 L465.391315,51.2756757 L467.045942,57.12 L498.152922,167.39027 C501.241558,178.417297 499.256006,189.995676 492.6375,199.368649 L484.584984,210.616216 L516.905357,210.616216 L531.135146,190.657297 L533.782549,187.018378 Z" id="Shape" fill="#A53829" fill-rule="nonzero"></path>
                                <path d="M537.863961,169.926486 C538.746429,174.227027 538.63612,180.291892 533.782549,187.018378 L531.245455,190.657297 C534.665016,184.812973 534.554708,179.63027 533.892857,175.770811 L500.359091,57.12 L467.15625,57.12 L465.501623,51.2756757 L504.440503,51.2756757 L537.863961,169.926486 Z" id="Path" fill="#F06B55"></path>
                                <path d="M480.172646,172.131892 C481.827273,177.976216 480.724188,184.261622 477.194318,189.223784 L439.57914,242.043243 L364.459091,242.043243 L402.074269,189.223784 C405.60414,184.261622 406.707224,177.976216 405.052597,172.131892 L356.627192,0.661621622 L431.74724,0.661621622 L480.172646,172.131892 Z M459.324351,187.018378 C464.177922,180.291892 464.177922,174.227027 463.405763,169.926486 L429.871997,51.2756757 L390.933117,51.2756757 L392.587744,57.12 L423.694724,167.39027 C426.78336,178.417297 424.797808,189.995676 418.179302,199.368649 L410.126786,210.616216 L442.447159,210.616216 L456.676948,190.657297 L459.324351,187.018378 Z" id="Shape" fill="#A53829" fill-rule="nonzero"></path>
                                <path d="M463.405763,169.926486 C464.288231,174.227027 464.177922,180.291892 459.324351,187.018378 L456.787256,190.657297 C460.206818,184.812973 460.09651,179.63027 459.434659,175.770811 L425.900893,57.12 L392.698052,57.12 L391.043425,51.2756757 L429.982305,51.2756757 L463.405763,169.926486 Z" id="Path" fill="#F06B55"></path>
                                <path d="M405.162906,172.131892 C406.817532,177.976216 405.714448,184.261622 402.184578,189.223784 L364.569399,242.043243 L41.5862825,242.043243 L3.9711039,189.223784 C0.441233766,184.261622 -0.661850649,177.976216 0.992775974,172.131892 L49.4181818,0.661621622 L356.7375,0.661621622 L405.162906,172.131892 Z M373.394075,175.44 L340.080925,57.6713514 L338.31599,51.2756757 L285.25763,51.2756757 L285.25763,210.616216 L291.214286,210.616216 L348.24375,210.616216 L373.394075,175.44 Z M337.985065,25.9135135 C337.985065,24.5902703 336.881981,23.4875676 335.558279,23.4875676 C334.234578,23.4875676 333.131494,24.5902703 333.131494,25.9135135 C333.131494,27.2367568 334.234578,28.3394595 335.558279,28.3394595 C336.881981,28.3394595 337.985065,27.2367568 337.985065,25.9135135 Z M337.985065,35.507027 C337.985065,34.1837838 336.881981,33.0810811 335.558279,33.0810811 C334.234578,33.0810811 333.131494,34.1837838 333.131494,35.507027 C333.131494,36.8302703 334.234578,37.932973 335.558279,37.932973 C336.881981,37.932973 337.985065,36.9405405 337.985065,35.507027 Z M328.057305,38.4843243 L328.057305,22.4951351 L285.25763,22.4951351 L285.25763,38.4843243 L328.057305,38.4843243 Z M239.038393,57.6713514 L239.038393,51.2756757 L166.34513,51.2756757 L166.34513,210.616216 L172.301786,210.616216 L238.928084,210.616216 L238.928084,57.6713514 L239.038393,57.6713514 Z M239.038393,25.9135135 C239.038393,24.5902703 237.935308,23.4875676 236.611607,23.4875676 C235.287906,23.4875676 234.184821,24.5902703 234.184821,25.9135135 C234.184821,27.2367568 235.287906,28.3394595 236.611607,28.3394595 C238.045617,28.3394595 239.038393,27.2367568 239.038393,25.9135135 Z M239.038393,35.507027 C239.038393,34.1837838 237.935308,33.0810811 236.611607,33.0810811 C235.287906,33.0810811 234.184821,34.1837838 234.184821,35.507027 C234.184821,36.8302703 235.287906,37.932973 236.611607,37.932973 C238.045617,37.932973 239.038393,36.9405405 239.038393,35.507027 Z M229.220942,38.4843243 L229.220942,22.4951351 L166.455438,22.4951351 L166.455438,38.4843243 L229.220942,38.4843243 Z M120.236201,57.6713514 L120.236201,51.2756757 L67.8396916,51.2756757 L32.7616071,175.44 L57.8016234,210.616216 L59.2356331,210.616216 L120.236201,210.616216 L120.236201,57.6713514 Z M120.015584,25.9135135 C120.015584,24.5902703 118.9125,23.4875676 117.588799,23.4875676 C116.265097,23.4875676 115.162013,24.5902703 115.162013,25.9135135 C115.162013,27.2367568 116.265097,28.3394595 117.588799,28.3394595 C118.9125,28.3394595 120.015584,27.2367568 120.015584,25.9135135 Z M120.015584,35.507027 C120.015584,34.1837838 118.9125,33.0810811 117.588799,33.0810811 C116.265097,33.0810811 115.162013,34.1837838 115.162013,35.507027 C115.162013,36.8302703 116.265097,37.932973 117.588799,37.932973 C118.9125,37.932973 120.015584,36.9405405 120.015584,35.507027 Z M110.087825,38.4843243 L110.087825,22.4951351 L67.2881494,22.4951351 L67.2881494,38.4843243 L110.087825,38.4843243 Z" id="Shape" fill="#F06B55" fill-rule="nonzero"></path>
                                <polygon id="Path" fill="#D75139" points="338.31599 51.2756757 340.191234 57.6713514 340.191234 57.6713514"></polygon>
                                <polygon id="Path" fill="#741F13" points="338.31599 51.2756757 340.191234 57.6713514 291.324594 57.6713514 291.324594 210.616216 285.25763 210.616216 285.25763 51.2756757"></polygon>
                                <ellipse id="Oval" fill="#F2F2F2" cx="335.558279" cy="25.9135135" rx="2.42678571" ry="2.42594595"></ellipse>
                                <ellipse id="Oval" stroke="#1F396C" stroke-width="0.3181" fill="#649DD3" cx="335.558279" cy="35.507027" rx="2.42678571" ry="2.42594595"></ellipse>
                                <rect id="Rectangle" fill="#F2F2F2" x="285.25763" y="22.4951351" width="42.7996753" height="15.9891892"></rect>
                                <polygon id="Path" fill="#741F13" points="239.038393 51.2756757 239.038393 57.6713514 172.412094 57.6713514 172.412094 210.616216 166.455438 210.616216 166.455438 51.2756757"></polygon>
                                <ellipse id="Oval" fill="#F2F2F2" cx="236.611607" cy="25.9135135" rx="2.42678571" ry="2.42594595"></ellipse>
                                <ellipse id="Oval" stroke="#1F396C" stroke-width="0.3181" fill="#649DD3" cx="236.611607" cy="35.507027" rx="2.42678571" ry="2.42594595"></ellipse>
                                <rect id="Rectangle" fill="#F2F2F2" x="166.455438" y="22.4951351" width="62.7655032" height="15.9891892"></rect>
                                <polygon id="Path" fill="#741F13" points="120.236201 51.2756757 120.236201 57.6713514 73.7963474 57.6713514 38.718263 181.835676 59.2356331 210.616216 57.8016234 210.616216 32.6512987 175.44 67.7293831 51.2756757"></polygon>
                                <ellipse id="Oval" fill="#F2F2F2" cx="117.588799" cy="25.9135135" rx="2.42678571" ry="2.42594595"></ellipse>
                                <ellipse id="Oval" stroke="#1F396C" stroke-width="0.3181" fill="#649DD3" cx="117.588799" cy="35.507027" rx="2.42678571" ry="2.42594595"></ellipse>
                                <rect id="Rectangle" fill="#F2F2F2" x="67.2881494" y="22.4951351" width="42.7996753" height="15.9891892"></rect>
                            </g>
                            <g transform="translate(133.473214, 89.318919)" id="Rectangle">
                                <rect fill="#748086" x="0.220616883" y="0.882162162" width="21.8410714" height="30.3243243"></rect>
                                <rect fill="#B1C8D2" x="0.220616883" y="0.882162162" width="17.7596591" height="30.3243243"></rect>
                                <rect stroke="#4A5156" stroke-width="0.3181" fill="#FCDEDB" x="3.41956169" y="4.52108108" width="11.251461" height="4.52108108"></rect>
                                <g transform="translate(3.309253, 14.335135)" fill="#4A5156">
                                    <rect x="0.110308442" y="0.220540541" width="2.53709416" height="2.53621622"></rect>
                                    <rect x="4.5226461" y="0.220540541" width="2.53709416" height="2.53621622"></rect>
                                    <rect x="8.93498377" y="0.220540541" width="2.53709416" height="2.53621622"></rect>
                                    <rect x="0.110308442" y="4.63135135" width="2.53709416" height="2.53621622"></rect>
                                    <rect x="4.5226461" y="4.63135135" width="2.53709416" height="2.53621622"></rect>
                                    <rect x="8.93498377" y="4.63135135" width="2.53709416" height="2.53621622"></rect>
                                    <rect x="0.110308442" y="9.04216216" width="2.53709416" height="2.53621622"></rect>
                                    <rect x="4.5226461" y="9.04216216" width="2.53709416" height="2.53621622"></rect>
                                    <rect x="8.93498377" y="9.04216216" width="2.53709416" height="2.53621622"></rect>
                                </g>
                            </g>
                            <ellipse id="Oval" stroke="#649DD3" stroke-width="0.3181" fill="#B2E2F9" cx="142.518506" cy="78.8432432" rx="3.19894481" ry="3.19783784"></ellipse>
                            <ellipse id="Oval" stroke="#649DD3" stroke-width="0.3181" fill="#B2E2F9" cx="262.865016" cy="78.8432432" rx="3.19894481" ry="3.19783784"></ellipse>
                            <path d="M431.74724,0.771891892 L480.172646,172.242162 C481.827273,178.086486 480.724188,184.371892 477.194318,189.334054 L439.57914,242.153514" id="Path" stroke="#D75139" stroke-width="0.9544"></path>
                            <path d="M506.867289,0.771891892 L555.292695,172.242162 C556.947321,178.086486 555.844237,184.371892 552.314367,189.334054 L514.699188,242.153514" id="Path" stroke="#D75139" stroke-width="0.9544"></path>
                            <g transform="translate(253.709416, 89.318919)" id="Rectangle">
                                <rect fill="#748086" x="0.220616883" y="0.882162162" width="21.8410714" height="30.3243243"></rect>
                                <rect fill="#B1C8D2" x="0.220616883" y="0.882162162" width="17.7596591" height="30.3243243"></rect>
                                <rect stroke="#4A5156" stroke-width="0.3181" fill="#FCDEDB" x="3.41956169" y="4.52108108" width="11.251461" height="4.52108108"></rect>
                                <g transform="translate(3.309253, 14.335135)" fill="#4A5156">
                                    <rect x="0.110308442" y="0.220540541" width="2.53709416" height="2.53621622"></rect>
                                    <rect x="4.5226461" y="0.220540541" width="2.53709416" height="2.53621622"></rect>
                                    <rect x="8.93498377" y="0.220540541" width="2.53709416" height="2.53621622"></rect>
                                    <rect x="0.110308442" y="4.63135135" width="2.53709416" height="2.53621622"></rect>
                                    <rect x="4.5226461" y="4.63135135" width="2.53709416" height="2.53621622"></rect>
                                    <rect x="8.93498377" y="4.63135135" width="2.53709416" height="2.53621622"></rect>
                                    <rect x="0.110308442" y="9.04216216" width="2.53709416" height="2.53621622"></rect>
                                    <rect x="4.5226461" y="9.04216216" width="2.53709416" height="2.53621622"></rect>
                                    <rect x="8.93498377" y="9.04216216" width="2.53709416" height="2.53621622"></rect>
                                </g>
                            </g>
                        </g>
                        <g transform="translate(37.504870, 122.400000)" fill="#F06B55" opacity="0.48">
                            <path d="M421.929789,53.3708108 C422.701948,57.2302703 422.701948,62.412973 419.282386,68.2572973 L405.052597,88.2162162 L372.732224,88.2162162 L380.78474,76.9686486 C387.403247,67.7059459 389.388799,56.0172973 386.300162,44.9902703 C381.238152,27.0460903 377.441644,13.5879554 374.910639,4.61586538 C374.705387,3.88827385 407.489608,4.71822869 407.402724,4.41081081 C404.244501,-6.76376875 409.086856,9.55623125 421.929789,53.3708108 Z" id="Path"></path>
                            <path d="M495.836445,53.3708108 C496.608604,57.2302703 496.608604,62.412973 493.189042,68.2572973 L478.959253,88.2162162 L446.63888,88.2162162 L454.691396,76.9686486 C461.309903,67.7059459 463.295455,56.0172973 460.206818,44.9902703 C455.144808,27.0460903 451.3483,13.5879554 448.817295,4.61586538 C448.612043,3.88827385 481.651601,3.9463368 481.564717,3.63891892 C478.406494,-7.53566064 483.163736,9.04163665 495.836445,53.3708108 Z" id="Path"></path>
                            <path d="M569.743101,53.3708108 C570.51526,57.2302703 570.51526,62.412973 567.095698,68.2572973 L552.865909,88.2162162 L520.545536,88.2162162 L528.598052,76.9686486 C535.216558,67.7059459 537.20211,56.0172973 534.113474,44.9902703 C529.051464,27.0460903 525.254956,13.5879554 522.723951,4.61586538 C522.518699,3.88827385 555.633672,3.9463368 555.546788,3.63891892 C552.388564,-7.53566064 557.120669,9.04163665 569.743101,53.3708108 Z" id="Path"></path>
                            <polygon id="Path" transform="translate(41.586282, 46.102797) scale(-1, 1) translate(-41.586282, -46.102797) " points="68.3568022 3.21748685 82.6210227 53.8118919 57.5810065 88.9881081 0.551542208 88.9881081 0.551542208 3.28907702"></polygon>
                            <polygon id="Path" points="321.514676 3.30810811 335.778896 53.9025131 310.73888 89.0787294 253.709416 89.0787294 253.709416 3.37969828"></polygon>
                            <rect id="Rectangle" x="134.907224" y="2.53621622" width="66.6262987" height="86.1210811"></rect>
                        </g>
                    </g>
                    <g id="Group" transform="translate(780.983766, 0.000000)">
                        <path d="M364.348782,396.090811 L317.136769,229.141622 L315.151218,229.692973 L299.597727,234.103784 L346.80974,401.052973 C347.692208,404.250811 347.030357,407.669189 345.044805,410.315676 C343.059253,412.962162 339.970617,414.505946 336.661364,414.505946 L234.956981,414.505946 L211.571591,414.505946 L211.571591,432.700541 L334.455195,432.700541 L336.661364,432.700541 C345.816964,432.700541 354.200406,428.51027 359.605519,421.232432 C365.120942,414.064865 366.885877,404.912432 364.348782,396.090811 Z" id="Path" fill="#4A5156"></path>
                        <path d="M346.80974,401.052973 C347.692208,404.250811 347.030357,407.669189 345.044805,410.315676 C343.059253,412.962162 339.970617,414.505946 336.661364,414.505946 L234.956981,414.505946 C238.266234,414.505946 241.35487,412.962162 243.340422,410.315676 C245.325974,407.669189 245.987825,404.250811 245.105357,401.052973 L197.893344,234.103784 L314.930601,229.141622 L315.040909,229.692973 L299.487419,234.103784 L346.80974,401.052973 Z" id="Path" fill="#748086"></path>
                        <rect id="Rectangle" stroke="#444445" stroke-width="0.3181" fill="#BAC0C3" x="109.867208" y="414.505946" width="101.704383" height="18.1945946"></rect>
                        <g transform="translate(5.515422, 6.616216)" fill="#748086" id="Path">
                            <path d="M569.08125,14.2248649 C568.860633,13.7837838 568.529708,13.452973 568.309091,13.1221622 C567.206006,11.6886486 556.616396,1.21297297 555.733929,0.330810811 C556.064854,0.771891892 556.395779,1.1027027 556.726705,1.54378378 C560.146266,6.06486486 561.249351,11.7989189 559.705032,17.3124324 L476.973701,309.749189 C474.767532,317.468108 467.707792,322.871351 459.655276,322.871351 L13.1267045,322.871351 C8.49375,322.871351 4.19172078,321.217297 0.992775974,318.12973 L11.6926948,328.715676 C12.0236201,329.046486 12.3545455,329.377297 12.6854708,329.708108 C15.994724,332.685405 20.1864448,334.44973 24.8193994,334.44973 L471.237662,334.44973 C479.290179,334.44973 486.349919,329.046486 488.556088,321.327568 L571.287419,28.8908108 C572.61112,23.8183784 571.838961,18.5254054 569.08125,14.2248649 Z"></path>
                            <polygon points="106.999188 26.0237838 533.120698 26.0237838 532.238231 29.1113514 532.238231 29.1113514 535.437175 17.532973 99.8291396 17.532973 25.2606331 280.748108 34.8574675 280.748108"></polygon>
                        </g>
                        <polygon id="Path" fill="#F2F2F2" points="112.51461 32.64 40.3728896 287.364324 45.6676948 287.364324 466.494399 287.364324 537.753653 35.7275676 538.63612 32.64"></polygon>
                        <path d="M562.242127,8.16 C561.911201,7.71891892 561.580276,7.27783784 561.249351,6.94702703 C561.249351,6.94702703 561.249351,6.94702703 561.139042,6.83675676 C557.719481,3.08756757 552.976218,0.992432432 547.902029,0.992432432 L101.483766,0.992432432 C93.43125,0.992432432 86.3715097,6.39567568 84.1653409,14.1145946 L1.43400974,306.551351 C-0.110308442,312.064865 0.992775974,317.798919 4.41233766,322.32 C4.85357143,322.871351 5.18449675,323.312432 5.73603896,323.863784 C6.06696429,324.194595 6.28758117,324.415135 6.61850649,324.745946 C9.92775974,327.833514 14.229789,329.487568 18.7524351,329.487568 L465.170698,329.487568 C473.223214,329.487568 480.282955,324.084324 482.489123,316.365405 L565.220455,23.9286486 C566.764773,18.4151351 565.661688,12.6810811 562.242127,8.16 Z M466.494399,287.364324 L45.6676948,287.364324 L40.3728896,287.364324 L30.7760552,287.364324 L105.344562,24.1491892 L540.952597,24.1491892 L537.643344,35.7275676 L466.494399,287.364324 Z" id="Shape" stroke="#444445" stroke-width="0.3181" fill="#BAC0C3" fill-rule="nonzero"></path>
                        <ellipse id="Oval" stroke="#221F1F" stroke-width="0.3181" fill="#FFFFFF" cx="247.421834" cy="307.764324" rx="9.70714286" ry="9.70378378"></ellipse>
                    </g>
                    <g id="Group" transform="translate(188.627435, 448.800000)">
                        <g>
                            <rect id="Rectangle" fill="#2A120D" x="23.4956981" y="67.9264865" width="65.3025974" height="296.737297"></rect>
                            <path d="M113.507386,21.8335135 L113.507386,29.772973 L71.5901786,29.772973 L71.5901786,21.8335135 C71.5901786,10.2551351 80.9663961,0.882162162 92.5487825,0.882162162 C104.131169,0.882162162 113.507386,10.2551351 113.507386,21.8335135 Z" id="Path" stroke="#F48C88" stroke-width="1.2725" fill="#FCDEDB"></path>
                            <path d="M153.218425,29.8832432 L153.218425,364.663784 L130.715503,364.663784 L130.715503,67.9264865 L88.7982955,67.9264865 L23.4956981,67.9264865 L23.4956981,364.663784 L0.992775974,364.663784 L0.992775974,29.8832432 L71.5901786,29.8832432 L113.507386,29.8832432 L153.218425,29.8832432 Z M92.5487825,56.2378378 L92.5487825,47.9675676 L42.3584416,47.9675676 L42.3584416,56.2378378 L92.5487825,56.2378378 Z" id="Shape" fill="#ED2724" fill-rule="nonzero"></path>
                            <ellipse id="Oval" fill="#4464AE" cx="178.479058" cy="52.1578378" rx="4.19172078" ry="4.19027027"></ellipse>
                            <ellipse id="Oval" fill="#4464AE" cx="193.481006" cy="52.1578378" rx="4.19172078" ry="4.19027027"></ellipse>
                            <path d="M218.521023,29.8832432 L218.521023,364.663784 L153.218425,364.663784 L153.218425,29.8832432 L218.521023,29.8832432 Z M197.672727,52.1578378 C197.672727,49.8421622 195.797484,47.9675676 193.481006,47.9675676 C191.164529,47.9675676 189.289286,49.8421622 189.289286,52.1578378 C189.289286,54.4735135 191.164529,56.3481081 193.481006,56.3481081 C195.797484,56.2378378 197.672727,54.4735135 197.672727,52.1578378 Z M182.560471,52.1578378 C182.560471,49.8421622 180.685227,47.9675676 178.36875,47.9675676 C176.052273,47.9675676 174.177029,49.8421622 174.177029,52.1578378 C174.177029,54.4735135 176.052273,56.3481081 178.36875,56.3481081 C180.795536,56.2378378 182.560471,54.4735135 182.560471,52.1578378 Z" id="Shape" fill="#741F13" fill-rule="nonzero"></path>
                        </g>
                        <ellipse id="Oval" fill="#B2E2F9" cx="104.462094" cy="52.1578378" rx="4.19172078" ry="4.19027027"></ellipse>
                        <g transform="translate(174.287338, 70.572973)">
                            <g id="XMLID_4_" transform="translate(0.000000, 98.140541)">
                                <g id="Group">
                                    <path d="M80.194237,0.551351351 L118.471266,43.0054054 L39.1594968,43.0054054 L0.882467532,0.551351351 L80.194237,0.551351351 Z M97.181737,34.8454054 C97.4023539,34.8454054 97.6229708,34.5145946 97.4023539,34.2940541 L94.7549513,31.3167568 C94.6446429,31.2064865 94.6446429,31.2064865 94.5343344,31.2064865 L89.9013799,31.2064865 C89.680763,31.2064865 89.4601461,31.5372973 89.680763,31.7578378 L92.3281656,34.7351351 C92.438474,34.8454054 92.438474,34.8454054 92.5487825,34.8454054 L97.181737,34.8454054 Z M85.930276,34.8454054 C86.1508929,34.8454054 86.3715097,34.5145946 86.1508929,34.2940541 L83.5034903,31.3167568 C83.3931818,31.2064865 83.3931818,31.2064865 83.2828734,31.2064865 L78.6499188,31.2064865 C78.4293019,31.2064865 78.2086851,31.5372973 78.4293019,31.7578378 L81.0767045,34.7351351 C81.187013,34.8454054 81.187013,34.8454054 81.2973214,34.8454054 L85.930276,34.8454054 Z M74.6788149,34.8454054 C74.8994318,34.8454054 75.1200487,34.5145946 74.8994318,34.2940541 L72.2520292,31.3167568 C72.1417208,31.2064865 72.1417208,31.2064865 72.0314123,31.2064865 L67.3984578,31.2064865 C67.1778409,31.2064865 66.957224,31.5372973 67.1778409,31.7578378 L69.8252435,34.7351351 C69.9355519,34.8454054 69.9355519,34.8454054 70.0458604,34.8454054 L74.6788149,34.8454054 Z M63.3170455,34.8454054 C63.5376623,34.8454054 63.7582792,34.5145946 63.5376623,34.2940541 L60.8902597,31.3167568 C60.7799513,31.2064865 60.7799513,31.2064865 60.6696429,31.2064865 L56.0366883,31.2064865 C55.8160714,31.2064865 55.5954545,31.5372973 55.8160714,31.7578378 L58.463474,34.7351351 C58.5737825,34.8454054 58.5737825,34.8454054 58.6840909,34.8454054 L63.3170455,34.8454054 Z M63.206737,17.3124324 C63.206737,15.7686486 61.6624188,14.4454054 59.6768669,14.4454054 C57.6913149,14.4454054 56.1469968,15.7686486 56.1469968,17.3124324 C56.1469968,18.8562162 57.6913149,20.1794595 59.6768669,20.1794595 C61.6624188,20.1794595 63.206737,18.9664865 63.206737,17.3124324 Z M52.0655844,34.8454054 C52.2862013,34.8454054 52.5068182,34.5145946 52.2862013,34.2940541 L49.6387987,31.3167568 C49.5284903,31.2064865 49.5284903,31.2064865 49.4181818,31.2064865 L44.7852273,31.2064865 C44.5646104,31.2064865 44.3439935,31.5372973 44.5646104,31.7578378 L47.212013,34.7351351 C47.3223214,34.8454054 47.3223214,34.8454054 47.4326299,34.8454054 L52.0655844,34.8454054 Z" id="Shape" stroke="#F06B55" stroke-width="0.6363" fill="#FCDEDB" fill-rule="nonzero"></path>
                                    <polygon id="Path" fill="#868686" points="39.1594968 43.0054054 39.1594968 55.2454054 6.50819805 18.9664865 6.50819805 195.95027 0.882467532 195.95027 0.882467532 0.551351351"></polygon>
                                    <polygon id="Path" fill="#BAC0C3" points="118.471266 43.0054054 118.471266 55.3556757 80.194237 55.3556757 39.1594968 55.3556757 39.1594968 55.2454054 39.1594968 43.0054054"></polygon>
                                    <polygon id="Path" fill="#4A5156" points="80.194237 55.3556757 80.194237 195.95027 6.50819805 195.95027 6.50819805 18.9664865 39.1594968 55.2454054 39.1594968 55.3556757"></polygon>
                                    <path d="M97.4023539,34.4043243 C97.6229708,34.6248649 97.4023539,34.9556757 97.181737,34.9556757 L92.5487825,34.9556757 C92.438474,34.9556757 92.3281656,34.9556757 92.3281656,34.8454054 L89.680763,31.8681081 C89.4601461,31.6475676 89.680763,31.3167568 89.9013799,31.3167568 L94.5343344,31.3167568 C94.6446429,31.3167568 94.7549513,31.3167568 94.7549513,31.427027 L97.4023539,34.4043243 Z" id="Path" stroke="#2D85B9" stroke-width="0.3181" fill="#B2E2F9"></path>
                                    <path d="M86.1508929,34.4043243 C86.3715097,34.6248649 86.1508929,34.9556757 85.930276,34.9556757 L81.2973214,34.9556757 C81.187013,34.9556757 81.0767045,34.9556757 81.0767045,34.8454054 L78.4293019,31.8681081 C78.2086851,31.6475676 78.4293019,31.3167568 78.6499188,31.3167568 L83.2828734,31.3167568 C83.3931818,31.3167568 83.5034903,31.3167568 83.5034903,31.427027 L86.1508929,34.4043243 Z" id="Path" stroke="#2D85B9" stroke-width="0.3181" fill="#B2E2F9"></path>
                                    <path d="M74.8994318,34.4043243 C75.1200487,34.6248649 74.8994318,34.9556757 74.6788149,34.9556757 L70.0458604,34.9556757 C69.9355519,34.9556757 69.8252435,34.9556757 69.8252435,34.8454054 L67.1778409,31.8681081 C66.957224,31.6475676 67.1778409,31.3167568 67.3984578,31.3167568 L72.0314123,31.3167568 C72.1417208,31.3167568 72.2520292,31.3167568 72.2520292,31.427027 L74.8994318,34.4043243 Z" id="Path" stroke="#2D85B9" stroke-width="0.3181" fill="#B2E2F9"></path>
                                    <path d="M63.6479708,34.4043243 C63.8685877,34.6248649 63.6479708,34.9556757 63.4273539,34.9556757 L58.7943994,34.9556757 C58.6840909,34.9556757 58.5737825,34.9556757 58.5737825,34.8454054 L55.9263799,31.8681081 C55.705763,31.6475676 55.9263799,31.3167568 56.1469968,31.3167568 L60.7799513,31.3167568 C60.8902597,31.3167568 61.0005682,31.3167568 61.0005682,31.427027 L63.6479708,34.4043243 Z" id="Path" stroke="#2D85B9" stroke-width="0.3181" fill="#B2E2F9"></path>
                                    <ellipse id="Oval" stroke="#2D85B9" stroke-width="0.3181" fill="#B2E2F9" cx="59.6768669" cy="17.3124324" rx="3.52987013" ry="2.86702703"></ellipse>
                                    <path d="M52.2862013,34.4043243 C52.5068182,34.6248649 52.2862013,34.9556757 52.0655844,34.9556757 L47.4326299,34.9556757 C47.3223214,34.9556757 47.212013,34.9556757 47.212013,34.8454054 L44.5646104,31.8681081 C44.3439935,31.6475676 44.5646104,31.3167568 44.7852273,31.3167568 L49.4181818,31.3167568 C49.5284903,31.3167568 49.6387987,31.3167568 49.6387987,31.427027 L52.2862013,34.4043243 Z" id="Path" stroke="#2D85B9" stroke-width="0.3181" fill="#B2E2F9"></path>
                                </g>
                            </g>
                            <path d="M95.3064935,29.772973 L95.0858766,29.772973 C91.7766234,13.2324324 77.1056006,0.771891892 59.5665584,0.771891892 C42.0275162,0.771891892 27.3564935,13.2324324 24.0472403,29.772973 C24.0472403,29.772973 24.0472403,29.772973 24.0472403,29.772973 C23.9369318,30.2140541 23.9369318,30.5448649 23.8266234,30.9859459 C23.8266234,30.9859459 23.8266234,30.9859459 23.8266234,30.9859459 C22.9441558,35.7275676 21.1792208,44.3286486 26.2534091,57.8918919 C30.224513,68.5881081 59.6768669,115.673514 59.6768669,115.673514 L59.8974838,115.673514 C59.8974838,115.673514 89.3498377,68.6983784 93.3209416,57.8918919 C98.7260552,43.0054054 96.0786526,34.1837838 95.3064935,29.772973 Z M23.8266234,31.3167568 C23.7163149,32.1989189 23.6060065,33.0810811 23.4956981,34.0735135 C23.6060065,33.0810811 23.7163149,32.1989189 23.8266234,31.3167568 Z" id="Shape" stroke="#649DD3" stroke-width="0.4136" fill="url(#linearGradient-1)" fill-rule="nonzero"></path>
                            <path d="M80.194237,153.496216 L80.194237,187.238919 C80.194237,172.352432 71.5901786,159.561081 59.1253247,153.496216 L80.194237,153.496216 Z" id="Path" fill="#2F383F"></path>
                            <path d="M6.50819805,117.107027 L36.2914773,150.188108 C22.0616883,152.614054 10.4793019,162.979459 6.50819805,176.652973 L6.50819805,117.107027 Z" id="Path" fill="#2F383F"></path>
                        </g>
                        <rect id="Rectangle" fill="#F2F2F2" x="42.2481331" y="47.9675676" width="50.1903409" height="8.27027027"></rect>
                        <path d="M269.483523,100.345946 C266.174269,83.8054054 251.503247,71.3448649 233.964205,71.3448649 C216.425162,71.3448649 201.75414,83.8054054 198.444886,100.345946 C198.334578,100.787027 198.334578,101.117838 198.224269,101.558919 C197.893344,103.543784 197.783036,105.528649 197.783036,107.513514 C197.783036,127.582703 213.998377,143.792432 234.074513,143.792432 C254.150649,143.792432 270.36599,127.582703 270.36599,107.513514 C270.145373,105.197838 269.924756,102.771892 269.483523,100.345946 Z" id="Path" stroke="#ED2724" stroke-width="0.4136" fill="url(#linearGradient-2)"></path>
                        <rect id="Rectangle" fill="#FFFFFF" fill-rule="nonzero" x="210.689123" y="103.654054" width="46.3295455" height="9.92432432"></rect>
                        <g transform="translate(233.853896, 69.470270)">
                            <path d="M59.45625,53.04 C59.45625,53.04 69.9355519,85.3491892 67.7293831,92.9578378 C65.5232143,100.566486 51.1831169,110.821622 51.1831169,110.821622 L14.5607143,125.597838 L12.7957792,121.407568 L41.9172078,93.84 L59.45625,53.04 Z" id="Path" fill="#4464AE"></path>
                            <path d="M60.1181006,55.1351351 C62.4345779,62.412973 69.6046266,86.4518919 67.7293831,92.8475676 C65.5232143,100.456216 51.1831169,110.711351 51.1831169,110.711351 L40.0419643,115.232432 C46.219237,110.16 51.7346591,104.425946 54.712987,97.1481081 C56.3676136,93.1783784 57.0294643,88.7675676 57.6913149,84.5772973 C58.3531656,80.2767568 59.0150162,75.8659459 58.1325487,71.6756757 C57.5810065,68.8086486 56.2573052,66.1621622 55.0439123,63.5156757 L58.2428571,56.0172973 L60.1181006,55.1351351 Z" id="Path" fill="#344194"></path>
                            <path d="M67.7293831,92.8475676 C65.5232143,100.456216 51.1831169,110.711351 51.1831169,110.711351 L14.5607143,125.487568" id="Path" stroke="#221F1F" stroke-width="0.6363" stroke-linecap="round" stroke-linejoin="round"></path>
                            <path d="M93.5415584,43.8875676 C93.5415584,43.9978378 93.6518669,48.8497297 93.5415584,50.9448649 C93.43125,53.1502703 90.7838474,56.4583784 90.7838474,56.4583784 L81.0767045,49.2908108 C81.187013,47.4162162 81.4076299,45.7621622 81.7385552,44.5491892 C85.1581169,44.1081081 89.2395292,43.8875676 93.5415584,43.8875676 Z" id="Path" stroke="#221F1F" stroke-width="0.3181" fill="#FFFFFF"></path>
                            <path d="M81.8488636,44.5491892 C81.4076299,45.8724324 81.2973214,47.5264865 81.187013,49.2908108 L81.0767045,49.2908108 L73.3551136,57.7816216 L72.4726461,47.0854054 C75.3406656,45.9827027 78.5396104,45.1005405 81.8488636,44.5491892 Z" id="Path" stroke="#221F1F" stroke-width="0.3181" fill="#FFFFFF"></path>
                            <path d="M143.511282,275.014054 L138.106169,276.337297 C138.106169,276.337297 127.185633,234.434595 124.648539,227.708108 C122.111445,220.981622 118.9125,209.072432 117.919724,206.205405 C116.926948,203.338378 99.2775974,159.23027 99.2775974,159.23027 L95.6374188,190.877838 C95.6374188,190.877838 99.6085227,212.16 100.160065,219.107027 C100.711607,226.054054 103.138393,275.234595 103.138393,277.881081 L95.3064935,277.991351 C93.43125,251.085405 80.7457792,203.558919 78.9808442,183.158919 C78.5396104,177.865946 68.0603084,123.833514 68.0603084,123.833514 C68.0603084,123.833514 67.8396916,122.730811 67.5087662,120.966486 C68.8324675,120.966486 79.9736201,120.194595 92.1075487,119.422703 C108.32289,118.32 126.634091,117.107027 126.634091,117.107027 C127.185633,144.343784 126.413474,170.918919 126.965016,173.896216 C127.737175,177.755676 131.156737,188.892973 131.928896,195.95027 C132.701055,203.007568 143.511282,272.367568 143.511282,275.014054 Z" id="Path" fill="#649DD3"></path>
                            <path d="M125.97224,94.7221622 C126.192857,99.7945946 126.413474,107.734054 126.523782,116.996757 C126.523782,116.996757 108.212581,118.20973 91.9972403,119.312432 C91.9972403,119.312432 81.9591721,66.1621622 81.7385552,64.1772973 C81.6282468,62.6335135 80.7457792,55.1351351 81.0767045,49.2908108 L90.7838474,56.4583784 C90.7838474,56.4583784 93.3209416,53.04 93.5415584,50.9448649 C93.6518669,48.7394595 93.5415584,43.9978378 93.5415584,43.8875676 C104.572403,43.8875676 116.596023,45.6518919 117.919724,48.7394595 C119.574351,52.4886486 125.200081,74.7632432 125.97224,94.7221622 Z" id="Path" fill="#649DD3"></path>
                            <path d="M81.8488636,64.1772973 C82.0694805,66.2724324 92.1075487,119.312432 92.1075487,119.312432 C79.8633117,120.084324 68.8324675,120.856216 67.5087662,120.856216 C65.5232143,111.262703 59.3459416,80.1664865 58.5737825,73.6605405 C57.6913149,65.9416216 59.2356331,53.4810811 59.2356331,53.4810811 C61.6624188,52.1578378 66.5159903,49.2908108 72.3623377,47.0854054 L73.2448052,57.7816216 L80.9663961,49.2908108 L81.0767045,49.2908108 C80.8560877,55.1351351 81.7385552,62.6335135 81.8488636,64.1772973 Z" id="Path" fill="#649DD3"></path>
                            <path d="M12.7957792,121.407568 L14.5607143,125.597838 C14.3400974,126.921081 13.4576299,127.803243 13.0163961,128.905946 C12.9060877,129.347027 12.6854708,129.677838 12.3545455,130.008649 C11.9133117,130.339459 11.3617695,130.229189 10.8102273,130.118919 C9.15560065,129.898378 7.61128247,129.347027 6.17727273,128.685405 C5.95665584,128.575135 5.62573052,128.464865 5.29480519,128.464865 C4.96387987,128.464865 4.74326299,128.685405 4.5226461,128.905946 C3.86079545,129.457297 3.30925325,130.229189 2.53709416,130.780541 C1.76493506,131.331892 0.772159091,131.662703 1.13686838e-13,131.331892 C0.551542208,130.339459 0.992775974,129.347027 1.54431818,128.354595 C1.76493506,127.913514 2.09586039,127.362162 2.42678571,127.031351 C2.97832792,126.36973 12.1339286,121.738378 12.7957792,121.407568 Z" id="Path" fill="#F06B55"></path>
                            <path d="M67.3984578,120.966486 C70.5974026,120.856216 126.523782,116.996757 126.523782,116.996757" id="Path" stroke="#5DA8DC" stroke-width="0.6363" stroke-linecap="round" stroke-linejoin="round"></path>
                            <path d="M81.8488636,44.5491892 C80.194237,49.9524324 81.6282468,62.0821622 81.8488636,64.1772973 C82.0694805,66.2724324 92.1075487,119.312432 92.1075487,119.312432" id="Path" stroke="#1D5375" stroke-width="1.2725" stroke-linecap="round" stroke-linejoin="round"></path>
                            <path d="M93.5415584,43.8875676 C93.5415584,43.8875676 93.6518669,48.8497297 93.5415584,50.9448649 C93.43125,53.1502703 90.7838474,56.4583784 90.7838474,56.4583784 L81.0767045,49.1805405 L73.3551136,57.6713514 L72.3623377,46.9751351 L79.9736201,44.7697297 L85.4890422,43.667027 L93.5415584,43.8875676 Z" id="Path" fill="#275F91"></path>
                            <path d="M93.1003247,43.2259459 C93.1003247,43.2259459 93.2106331,48.1881081 93.1003247,50.2832432 C92.9900162,52.4886486 90.3426136,55.7967568 90.3426136,55.7967568 L80.6354708,48.5189189 L72.9138799,57.0097297 L71.9211039,46.3135135 L79.5323864,44.1081081 L85.0478084,43.0054054 L93.1003247,43.2259459 Z" id="Path" fill="#64ABD0"></path>
                            <path d="M70.5974026,26.3545946 L55.3748377,28.0086486 C55.3748377,28.0086486 55.2645292,27.2367568 55.3748377,26.7956757 C55.4851461,26.3545946 65.3025974,21.3924324 65.3025974,21.3924324 C65.3025974,21.3924324 67.6190747,19.8486486 70.8180195,20.0691892 C78.4293019,20.5102703 91.5560065,23.1567568 92.5487825,24.0389189" id="Path" stroke="#221F1F" stroke-width="0.3181" fill="#FFFFFF"></path>
                            <path d="M70.8180195,20.0691892 C78.4293019,20.5102703 91.5560065,23.1567568 92.5487825,24.0389189 L70.4870942,26.2443243 L67.2881494,26.5751351 C67.2881494,26.5751351 67.2881494,26.5751351 67.2881494,26.5751351 L55.2645292,27.8983784 C55.2645292,27.8983784 55.1542208,27.1264865 55.2645292,26.6854054 C55.3748377,26.3545946 61.5521104,23.1567568 64.0892045,21.8335135 C64.7510552,21.5027027 65.192289,21.2821622 65.192289,21.2821622 C65.192289,21.2821622 67.6190747,19.8486486 70.8180195,20.0691892 Z" id="Path" fill="#14233E"></path>
                            <path d="M94.9755682,19.9589189 C95.9683442,20.7308108 94.7549513,23.9286486 92.5487825,24.9210811 C91.4456981,24.0389189 78.4293019,21.2821622 70.8180195,20.8410811 C67.6190747,20.6205405 65.3025974,22.2745946 65.3025974,22.2745946 C65.3025974,22.2745946 64.8613636,22.4951351 64.199513,22.8259459 C63.4273539,21.8335135 61.7727273,15.4378378 61.6624188,12.0194595 C61.6624188,11.2475676 62.3242695,10.5859459 63.0964286,10.8064865 L68.1706169,12.0194595 L70.8180195,0.882162162 C71.0386364,0 72.1417208,-0.330810811 72.693263,0.441081081 L84.3859578,14.2248649 L89.5704545,10.4756757 C90.0116883,10.1448649 90.673539,10.3654054 90.8941558,10.9167568 C91.8869318,13.452973 94.2034091,19.4075676 94.9755682,19.9589189 Z" id="Path" fill="#4464AE"></path>
                            <g id="XMLID_3_" transform="translate(77.798524, 55.473459) rotate(114.000000) translate(-77.798524, -55.473459) translate(54.298524, 5.973459)">
                                <path d="M45.6676948,97.2583784 L39.711039,98.1405405 C39.711039,98.1405405 39.711039,98.0302703 39.711039,97.92 C39.1594968,94.9427027 32.982224,64.2875676 31.4379058,60.5383784 C29.8935877,56.5686486 32.0997565,48.0778378 32.0997565,48.0778378 C32.0997565,48.0778378 30.8863636,47.4162162 27.9080357,46.8648649 C24.9297078,46.3135135 4.41233766,29.1113514 4.41233766,29.1113514 C1.10308442,25.1416216 0.441233766,16.6508108 1.3237013,10.6962162 C2.20616883,4.63135135 7.1700487,1.21297297 10.8102273,0.220540541 C11.9133117,-0.11027027 41.5862825,29.0010811 41.5862825,29.0010811 C41.5862825,29.0010811 43.3512175,32.3091892 43.461526,33.852973 C43.7924513,37.3816216 47.4326299,70.3524324 45.6676948,97.2583784 Z" id="Path" fill="#4464AE"></path>
                                <path d="M43.461526,33.7427027 C43.7924513,36.8302703 46.4398539,61.6410811 46.1089286,85.5697297 C45.4470779,81.2691892 45.7780032,76.7481081 45.7780032,72.227027 C45.6676948,65.3902703 44.5646104,58.5535135 43.461526,51.827027 C42.5790584,46.2032432 41.5862825,40.5794595 39.2698052,35.507027 C38.0564123,32.7502703 36.4017857,30.2140541 34.7471591,27.6778378 C32.8719156,24.7005405 30.9966721,21.7232432 28.238961,19.5178378 C26.5843344,18.0843243 24.5987825,16.9816216 22.723539,15.9891892 C20.2967532,14.6659459 17.8699675,13.5632432 15.2225649,12.7913514 C10.6999188,11.3578378 5.95665584,11.1372973 1.3237013,12.0194595 C1.3237013,11.6886486 1.43400974,11.2475676 1.43400974,10.9167568 C2.31647727,4.85189189 7.28035714,1.43351351 10.9205357,0.441081081 C12.0236201,0.11027027 41.6965909,29.2216216 41.6965909,29.2216216 C41.6965909,29.2216216 43.3512175,32.1989189 43.461526,33.7427027 Z" id="Path" fill="#344194"></path>
                            </g>
                            <g id="XMLID_5_" transform="translate(74.607401, 50.712643) rotate(113.000000) translate(-74.607401, -50.712643) translate(54.607401, 6.712643)" stroke="#221F1F" stroke-linecap="round" stroke-linejoin="round" stroke-width="0.6363">
                                <path d="M39.6007305,87.9956757 C39.0491883,85.0183784 32.8719156,54.3632432 31.3275974,50.6140541 C29.7832792,46.6443243 31.9894481,38.1535135 31.9894481,38.1535135 C31.9894481,38.1535135 30.7760552,37.4918919 27.7977273,36.9405405 C24.8193994,36.3891892 4.30202922,19.187027 4.30202922,19.187027 C0.992775974,15.2172973 0.330925325,6.72648649 1.21339286,0.771891892" id="Path"></path>
                            </g>
                            <path d="M24.6108549,47.9430123 C25.4848901,49.4785564 26.4692063,51.0135136 27.3432415,52.5490577 C26.78949,52.9920603 25.909002,52.666704 25.3593569,52.3395871 C24.6994308,52.0130571 24.150959,51.465906 23.4898597,51.3594101 C24.3650681,52.6749201 25.0185413,54.2116379 25.5623201,55.6389255 C24.6783123,55.9736716 23.6875433,55.6489022 22.9185095,55.1029248 C22.1494757,54.5569475 21.6021771,53.7897624 21.1651595,53.0219903 C21.1575334,54.4522122 21.0402129,55.7730039 20.9223058,57.2038127 C20.9211325,57.4238469 20.9199593,57.643881 20.6988107,57.7550718 C20.4776621,57.8662626 20.3679677,57.7568324 20.1474057,57.7580061 C18.8275536,57.1049461 18.1740804,55.5682283 17.7411691,54.0303367 C17.5123944,55.5717494 16.8430823,57.0054925 15.8435139,58.3309791 C14.6403956,56.4671445 16.3086895,53.8179318 15.769017,51.6205247 C14.9923571,52.5047693 13.6672253,52.8418629 12.5661753,52.5176803 C12.5702817,51.7475608 13.3445951,51.3033845 13.7880656,50.8609688 C15.0076093,49.6443255 15.0181686,47.6640183 15.9080426,46.2291014 C15.907456,46.3391185 15.9068694,46.4491356 15.9068694,46.4491356 L21.9770169,45.5367215 C23.0786535,45.750887 23.9550352,46.8463628 24.6108549,47.9430123 Z" id="Path" fill="#F06B55" transform="translate(19.954708, 51.933850) rotate(114.000000) translate(-19.954708, -51.933850) "></path>
                            <path d="M95.4168019,72.227027 C93.5415584,72.227027 92.1075487,70.7935135 92.1075487,68.9189189 L92.1075487,67.2648649 C92.1075487,65.3902703 93.5415584,63.9567568 95.4168019,63.9567568 C97.2920455,63.9567568 98.7260552,65.3902703 98.7260552,67.2648649 L98.7260552,68.9189189 C98.7260552,70.7935135 97.181737,72.227027 95.4168019,72.227027 Z" id="Path" stroke="#F48C88" stroke-width="0.4136" fill="#FCDEDB"></path>
                            <polygon id="Path" fill="#282F35" points="67.3984578 120.966486 126.634091 116.996757 126.634091 119.312432 68.0603084 125.487568"></polygon>
                            <path d="M96.188961,120.966486 C96.188961,122.841081 94.7549513,124.274595 92.8797078,124.274595 L91.2250812,124.274595 C89.3498377,124.274595 87.9158279,122.841081 87.9158279,120.966486 C87.9158279,119.091892 89.3498377,117.658378 91.2250812,117.658378 L92.8797078,117.658378 C94.7549513,117.658378 96.188961,119.091892 96.188961,120.966486 Z" id="Path" stroke="#4D4C4D" stroke-width="0.3181" fill="#BAC0C3"></path>
                            <path d="M151.343182,295.193514 L136.672159,295.193514 C136.672159,292.988108 139.760795,287.584865 139.760795,287.584865 L137.99586,276.227027 L143.400974,274.903784 L145.165909,286.371892 C148.033929,288.025946 151.343182,295.193514 151.343182,295.193514 Z" id="Path" fill="#14233E"></path>
                            <path d="M103.138393,277.881081 L103.910552,295.193514 L82.5107143,295.193514 C82.5107143,295.193514 83.2828734,292.547027 84.6065747,291.113514 C85.930276,289.56973 96.188961,287.695135 96.188961,287.695135 L95.3064935,277.991351 L103.138393,277.881081 Z" id="Path" fill="#14233E"></path>
                            <path d="M70.5974026,26.3545946 L92.6590909,24.1491892 C92.6590909,24.1491892 92.2178571,36.1686486 88.687987,40.6897297 C87.1436688,42.6745946 82.7313312,47.0854054 79.201461,47.6367568 C75.6715909,48.1881081 70.8180195,41.9027027 70.1561688,40.8 C69.6046266,39.9178378 67.1778409,29.8832432 67.3984578,26.6854054 L70.5974026,26.3545946 Z" id="Path" fill="#F06B55"></path>
                            <polygon id="Path" fill="#741F13" points="73.9066558 33.0810811 71.5901786 37.0508108 75.3406656 36.3891892"></polygon>
                            <path d="M131.818588,195.72973 C132.039205,197.273514 132.701055,201.904865 133.583523,208.19027 C130.163961,198.927568 126.192857,189.995676 121.780519,181.174054 C120.898052,179.299459 119.905276,177.535135 119.574351,175.44 C119.133117,172.793514 119.794968,170.147027 120.456818,167.500541 C123.986688,151.842162 124.427922,135.522162 121.780519,119.753514 L126.634091,119.202162 L126.634091,116.886486 C127.185633,144.123243 126.413474,170.698378 126.965016,173.675676 C127.737175,177.645405 131.046429,188.782703 131.818588,195.72973 Z" id="Path" fill="#4464AE"></path>
                            <path d="M98.9466721,210.395676 C97.5126623,205.654054 96.8508117,201.574054 93.8724838,197.494054 C92.9900162,196.170811 92.1075487,193.193514 92.1075487,193.193514 C91.5560065,191.429189 91.4456981,188.892973 91.8869318,187.128649 C94.424026,175.219459 95.8580357,171.911351 98.7260552,160.002162 C98.8363636,160.663784 98.8363636,161.325405 98.9466721,161.987027 L95.5271104,190.767568 C95.6374188,190.877838 97.6229708,201.574054 98.9466721,210.395676 Z" id="Path" fill="#4464AE"></path>
                        </g>
                    </g>
                    <g id="Group" transform="translate(0.000000, 535.810811)">
                        <path d="M81.0767045,67.147027 C80.4148539,70.6756757 81.5179383,74.3145946 83.6137987,77.1816216 C85.7096591,80.0486486 88.7982955,82.1437838 92.1075487,83.3567568 C93.7621753,83.9081081 95.4168019,84.4594595 96.7405032,85.5621622 C97.5126623,86.2237838 98.0642045,86.9956757 98.5054383,87.8778378 C101.042532,91.9578378 102.697159,96.4789189 105.234253,100.558919 C107.771347,104.638919 109.315666,106.954595 113.94862,108.167568 C116.044481,108.718919 121.339286,108.939459 123.435146,108.277838 L125.531006,64.3902703 L122.44237,65.2724324 L114.169237,92.2886486 L87.3642857,52.1502703 L80.9663961,62.2951351 L81.0767045,67.147027 Z" id="Path" fill="#F06B55"></path>
                        <path d="M105.675487,185.908108 L128.950568,268.28 L124.317614,270.816216 L90.1219968,194.72973 L90.1219968,188.554595 L64.7510552,121.730811 C64.7510552,121.730811 71.2592532,179.953514 72.0314123,185.908108 C72.8035714,191.862703 70.4870942,194.72973 70.4870942,194.72973 L18.9730519,264.861622 L13.0163961,260.781622 L49.5284903,194.95027 L57.0294643,188.444324 L39.2698052,99.5664865 L47.9841721,89.5318919 L80.8560877,105.300541 L105.675487,185.908108 Z" id="Path" fill="#4464AE"></path>
                        <path d="M64.7510552,121.620541 C70.3767857,131.544865 87.8055195,184.254054 95.8580357,191.421622 L125.531006,270.044324 L124.427922,270.705946 L90.2323052,194.619459 L90.2323052,188.444324 L64.7510552,121.620541 Z" id="Path" fill="#344194"></path>
                        <path d="M56.9191558,188.444324 L39.1594968,99.5664865 L47.8738636,89.5318919 L49.0872565,90.0832432 C45.5573864,114.342703 57.5810065,187.010811 58.3531656,189.326486 C58.3531656,189.326486 27.5771104,235.970811 16.6565747,254.055135 L49.4181818,194.95027 L56.9191558,188.444324 Z" id="Path" fill="#344194"></path>
                        <path d="M102.807468,28.8832432 C102.476542,23.8108108 101.042532,18.7383784 97.8435877,14.7686486 C96.8508117,13.4454054 95.6374188,12.3427027 94.0931006,11.6810811 C92.5487825,11.0194595 90.7838474,10.9091892 89.3498377,11.5708108 C88.5776786,11.9016216 87.695211,12.452973 86.8127435,12.6735135 C81.7385552,14.4378378 79.9736201,21.1643243 80.0839286,23.7005405 C80.194237,27.7805405 81.7385552,31.9708108 84.9375,34.3967568 L79.4220779,43.1081081 L85.930276,44.5416216 L88.3570617,35.9405405 C89.0189123,36.1610811 89.680763,36.2713514 90.3426136,36.4918919 C92.2178571,36.932973 94.2034091,37.2637838 96.188961,37.1535135 C98.174513,37.0432432 100.049756,36.3816216 101.594075,35.0583784 C103.028084,33.7351351 103.028084,30.9783784 102.807468,28.8832432 Z" id="Path" fill="#FCDEDB"></path>
                        <path d="M92.3281656,11.0194595 C92.438474,5.94702703 88.687987,2.41837838 84.0550325,0.654054054 C79.4220779,-1.22054054 72.8035714,1.42594595 68.942776,4.73405405 C65.192289,8.04216216 63.3170455,12.8940541 61.3314935,17.5254054 C59.3459416,22.1567568 56.5882305,26.8983784 52.0655844,28.8832432 C48.3150974,30.5372973 44.0130682,29.9859459 40.1522727,28.772973 C36.2914773,27.4497297 32.6512987,25.4648649 28.9008117,24.0313514 C22.723539,21.7156757 15.4431818,21.0540541 9.70714286,24.3621622 C2.86801948,28.2216216 -0.220616883,36.8227027 0.110308442,44.7621622 C0.441233766,50.7167568 2.42678571,56.7816216 6.50819805,61.1924324 C9.70714286,64.6108108 12.9060877,67.147027 17.980276,67.0367568 C20.5173701,66.9264865 23.0544643,66.0443243 25.5915584,66.2648649 C28.0183442,66.4854054 30.3348214,67.6983784 31.8791396,69.572973 C33.7543831,71.8886486 34.5265422,74.8659459 36.1811688,77.2918919 C38.4976461,80.4897297 42.46875,82.1437838 46.4398539,82.4745946 C50.4109578,82.6951351 54.2717532,81.7027027 58.0222403,80.3794595 C59.45625,79.8281081 60.8902597,79.2767568 62.1036526,78.2843243 C63.7582792,76.8508108 63.7582792,74.6454054 64.8613636,72.7708108 C65.9644481,70.8962162 67.7293831,69.3524324 69.4943182,68.1394595 C70.9283279,67.147027 72.4726461,66.1545946 73.5757305,64.8313514 C74.4581981,63.7286486 75.1200487,62.4054054 75.7818994,61.1924324 C76.9952922,58.7664865 78.0983766,56.2302703 78.0983766,53.5837838 C78.0983766,50.4962162 76.6643669,47.6291892 76.7746753,44.5416216 C77.436526,44.4313514 77.5468344,44.2108108 78.0983766,43.88 C80.5251623,42.5567568 83.0622565,41.012973 84.4962662,38.6972973 C86.3715097,35.72 86.0405844,31.8605405 85.3787338,28.3318919 C84.2756494,29.1037838 82.6210227,28.4421622 81.6282468,27.3394595 C80.9663961,26.5675676 80.5251623,25.4648649 80.6354708,24.4724324 C80.7457792,23.48 81.6282468,22.4875676 82.6210227,22.3772973 C83.6137987,22.267027 84.7168831,23.1491892 84.7168831,24.1416216 C84.6065747,22.4875676 84.4962662,20.9437838 85.1581169,19.4 C85.930276,17.4151351 89.1292208,13.2248649 91.0044643,12.1221622 C91.8869318,11.7913514 92.3281656,11.7913514 92.3281656,11.0194595 Z" id="Path" fill="#344194"></path>
                        <g transform="translate(4.412338, 1.205405)" fill="#4464AE" id="Path">
                            <path d="M85.4890422,12.1297297 C84.1653409,13.3427027 82.7313312,15.2172973 81.7385552,16.7610811 C81.7385552,16.7610811 81.7385552,16.7610811 81.7385552,16.7610811 C81.6282468,16.7610811 81.5179383,16.7610811 81.4076299,16.7610811 C79.0911526,16.5405405 76.7746753,16.4302703 74.5685065,16.2097297 C73.1344968,16.0994595 71.700487,15.9891892 70.707711,14.9967568 C69.7149351,14.1145946 69.3840097,12.6810811 68.942776,11.3578378 C68.5015422,9.70378378 67.95,8.16 67.2881494,6.50594595 C66.957224,5.73405405 66.6262987,4.96216216 66.0747565,4.41081081 C65.5232143,3.96972973 64.9716721,3.74918919 64.4201299,3.63891892 C64.5304383,3.52864865 64.5304383,3.52864865 64.6407468,3.41837838 C66.1850649,2.09513514 68.1706169,0.882162162 70.2664773,0 C71.0386364,0.661621622 71.700487,1.54378378 72.1417208,2.42594595 C73.4654221,4.96216216 73.686039,8.27027027 76.1128247,9.81405405 C77.6571429,10.8064865 79.6426948,10.8064865 81.5179383,11.027027 C82.7313312,11.3578378 84.1653409,11.5783784 85.4890422,12.1297297 Z"></path>
                            <path d="M80.6354708,33.9632432 C80.8560877,33.9632432 81.0767045,34.0735135 81.2973214,34.0735135 C81.0767045,35.2864865 80.7457792,36.4994595 80.0839286,37.6021622 C79.6426948,38.3740541 78.9808442,39.1459459 78.3189935,39.8075676 C76.6643669,38.7048649 74.1272727,39.9178378 72.2520292,38.9254054 C69.2737013,37.4918919 70.5974026,32.1989189 67.8396916,30.5448649 C67.0675325,29.9935135 66.0747565,29.9935135 65.0819805,29.8832432 C62.7655032,29.6627027 60.449026,29.5524324 58.2428571,29.3318919 C56.8088474,29.2216216 55.3748377,29.1113514 54.3820617,28.1189189 C53.3892857,27.2367568 53.0583604,25.8032432 52.6171266,24.48 C52.6171266,24.3697297 52.5068182,24.1491892 52.5068182,24.0389189 C54.1614448,22.0540541 55.4851461,19.7383784 56.5882305,17.4227027 C57.3603896,19.5178378 57.9119318,21.8335135 59.7871753,23.1567568 C61.3314935,24.1491892 63.3170455,24.1491892 65.192289,24.3697297 C68.2809253,24.5902703 71.700487,25.692973 73.1344968,28.3394595 C74.0169643,29.9935135 74.2375812,32.3091892 75.7818994,33.4118919 C77.1056006,34.1837838 78.9808442,33.7427027 80.6354708,33.9632432 Z"></path>
                            <path d="M80.5251623,22.6054054 C80.5251623,22.7156757 80.5251623,22.8259459 80.5251623,22.9362162 C80.5251623,22.9362162 80.5251623,22.8259459 80.5251623,22.6054054 Z"></path>
                            <path d="M70.707711,53.7016216 C71.2592532,54.5837838 72.1417208,55.1351351 73.1344968,55.4659459 C72.693263,57.0097297 72.0314123,58.4432432 71.2592532,59.8767568 C71.1489448,60.0972973 71.1489448,60.2075676 71.0386364,60.4281081 C68.942776,60.5383784 66.6262987,61.5308108 65.0819805,60.2075676 C62.8758117,58.4432432 64.4201299,54.252973 62.1036526,52.5989189 C60.3387175,51.3859459 57.9119318,52.7091892 56.0366883,51.7167568 C53.0583604,50.2832432 54.3820617,44.9902703 51.6243506,43.3362162 C50.8521916,42.7848649 49.8594156,42.7848649 48.8666396,42.6745946 C46.5501623,42.4540541 44.2336851,42.3437838 42.0275162,42.1232432 C40.5935065,42.012973 39.1594968,41.9027027 38.1667208,40.9102703 C37.1739448,40.0281081 36.8430195,38.5945946 36.4017857,37.2713514 C35.9605519,35.6172973 35.4090097,34.0735135 34.7471591,32.4194595 C34.4162338,31.6475676 34.0853084,30.8756757 33.5337662,30.3243243 C31.5482143,28.56 28.4595779,30.3243243 25.8121753,29.9935135 C23.2750812,29.5524324 21.5101461,27.1264865 20.737987,24.5902703 C20.4070617,23.4875676 20.1864448,22.3848649 19.8555195,21.2821622 C21.3998377,21.612973 23.0544643,22.0540541 24.488474,22.6054054 C28.3492695,24.0389189 31.8791396,26.0237838 35.7399351,27.347027 C36.9533279,27.7881081 38.1667208,28.1189189 39.4904221,28.2291892 C39.4904221,28.2291892 39.4904221,28.3394595 39.6007305,28.3394595 C40.9244318,30.8756757 41.1450487,34.1837838 43.5718344,35.7275676 C45.1161526,36.72 47.1017045,36.72 48.8666396,36.9405405 C51.955276,37.1610811 55.3748377,38.2637838 56.8088474,40.9102703 C57.6913149,42.5643243 57.9119318,44.88 59.45625,45.9827027 C60.8902597,46.9751351 62.7655032,46.4237838 64.4201299,46.6443243 C66.957224,46.8648649 69.2737013,48.8497297 70.0458604,51.2756757 C70.2664773,52.2681081 70.3767857,53.04 70.707711,53.7016216 Z"></path>
                            <path d="M61.5521104,70.1318919 C61.1108766,70.572973 60.7799513,71.1243243 60.449026,71.6756757 C59.7871753,72.7783784 59.5665584,73.9913514 59.0150162,75.2043243 C58.2428571,74.5427027 57.3603896,73.8810811 56.3676136,73.6605405 C53.8305195,73.1091892 50.8521916,74.9837838 48.8666396,73.3297297 C46.6604708,71.5654054 48.204789,67.3751351 45.8883117,65.7210811 C44.2336851,64.5081081 41.6965909,65.8313514 39.8213474,64.8389189 C36.8430195,63.4054054 38.1667208,58.1124324 35.4090097,56.4583784 C34.6368506,55.907027 33.6440747,55.907027 32.6512987,55.7967568 C30.3348214,55.5762162 28.0183442,55.4659459 25.8121753,55.2454054 C24.3781656,55.1351351 22.9441558,55.0248649 21.9513799,54.0324324 C20.9586039,53.1502703 20.6276786,51.7167568 20.1864448,50.3935135 C19.745211,48.7394595 19.1936688,47.1956757 18.5318182,45.5416216 C18.2008929,44.7697297 17.8699675,43.9978378 17.3184253,43.4464865 C15.3328734,41.6821622 12.244237,43.4464865 9.59683442,43.1156757 C7.05974026,42.6745946 5.29480519,40.2486486 4.5226461,37.7124324 C3.75048701,35.2864865 3.41956169,32.5297297 2.31647727,30.3243243 C1.76493506,29.3318919 1.10308442,28.4497297 0.220616883,27.6778378 C1.65462662,25.8032432 3.30925325,24.2594595 5.40511364,23.0464865 C5.51542208,23.0464865 5.62573052,22.9362162 5.62573052,22.9362162 C7.05974026,24.3697297 8.05251623,26.2443243 8.60405844,28.2291892 C9.04529221,29.772973 9.15560065,31.3167568 9.70714286,32.8605405 C10.2586851,34.4043243 11.1411526,35.8378378 12.6854708,36.3891892 C13.6782468,36.72 14.7813312,36.6097297 15.8844156,36.72 C18.9730519,36.9405405 21.9513799,38.9254054 23.3853896,41.6821622 C24.7090909,44.2183784 24.9297078,47.5264865 27.3564935,49.0702703 C28.9008117,50.0627027 30.8863636,50.0627027 32.7616071,50.2832432 C35.8502435,50.5037838 39.2698052,51.6064865 40.7038149,54.252973 C41.5862825,55.907027 41.8068994,58.2227027 43.3512175,59.3254054 C44.7852273,60.3178378 46.6604708,59.7664865 48.3150974,59.987027 C50.8521916,60.2075676 53.1686688,62.1924324 53.9408279,64.6183784 C54.1614448,65.3902703 54.2717532,66.1621622 54.6026786,66.8237838 C55.5954545,68.5881081 57.9119318,68.8086486 59.7871753,69.36 C60.3387175,69.5805405 60.8902597,69.8010811 61.5521104,70.1318919 Z"></path>
                        </g>
                        <path d="M37.0636364,99.1254054 L81.7385552,108.277838 C82.9519481,108.498378 84.0550325,107.726486 84.1653409,106.513514 L89.3498377,43.4389189 L78.4293019,41.5643243 C76.9952922,41.3437838 75.450974,41.8951351 74.6788149,43.2183784 L37.0636364,99.1254054 Z" id="Path" fill="#F06B55"></path>
                        <path d="M70.707711,62.6259459 C73.4654221,60.8616216 75.5612825,58.1048649 76.7746753,55.0172973 C76.1128247,58.4356757 73.9066558,61.5232432 71.2592532,63.7286486 C67.95,66.5956757 63.8685877,68.4702703 60.0077922,70.5654054 C57.3603896,71.9989189 54.712987,73.5427027 52.5068182,75.6378378 L58.6840909,66.3751351 C63.5376623,65.3827027 68.0603084,64.3902703 70.707711,62.6259459 Z" id="Path" fill="#221F1F"></path>
                        <path d="M43.1576343,89.4897297 C44.9625062,89.3794595 48.8396385,88.387027 50.1765806,86.4021622 C51.5135228,84.4172973 52.6499236,81.9913514 54.187407,80.4475676 C58.0645393,76.3675676 67.891064,76.0367568 71.7681963,71.9567568 C73.7736095,69.7513514 75.1773987,66.2227027 75.8458698,62.3632432 C76.5143409,58.5037838 76.3806467,54.4237838 75.9127169,50.4540541 L31.6599319,81.9913514 C31.6599319,81.9913514 37.4087831,107.463784 46.2326013,123.783784 L48.1711674,121.798919 C48.1711674,121.688649 42.957093,93.0183784 43.1576343,89.4897297 Z" id="Path" fill="#F06B55"></path>
                        <path d="M48.3717087,121.798919 C49.5749566,120.806486 50.8450517,120.365405 51.3129814,122.24 C51.045593,122.35027 50.7782046,122.460541 50.5776633,122.681081 C50.3771219,122.901622 50.6445104,124.776216 50.7782046,125.107027 C50.9118988,125.548108 51.3798285,125.658378 51.647217,125.878919 C51.9146054,126.099459 52.1151467,126.540541 52.2488409,127.091892 C52.3825351,127.863784 52.3825351,128.745946 51.9814525,129.187027 C51.5803699,129.738378 50.8450517,129.517838 50.7113575,128.745946 C50.5108161,129.407568 50.3771219,130.179459 49.9760393,130.620541 C49.6418037,131.171892 49.0401798,131.392432 48.57225,131.061622 C48.5054029,130.951351 48.3717087,130.951351 48.3048616,130.951351 C48.2380145,130.951351 48.1711674,131.061622 48.1043203,131.171892 C47.903779,131.612973 47.5695434,131.833514 47.2353079,131.833514 C46.700531,131.061622 46.5668368,129.958919 46.4999897,128.966486 C46.2994484,127.091892 46.2326013,125.217297 46.2994484,123.452973" id="Path" fill="#F3ABA8"></path>
                        <path d="M122.552679,65.2724324 C122.001136,64.9416216 121.339286,65.2724324 120.787744,65.0518919 C120.236201,64.8313514 120.015584,63.9491892 119.905276,63.1772973 C119.905276,62.4054054 119.794968,61.6335135 119.353734,61.1924324 C119.353734,61.1924324 119.243425,61.0821622 119.133117,61.0821622 C118.9125,61.0821622 118.9125,61.412973 118.802192,61.6335135 C118.691883,61.9643243 118.250649,61.9643243 117.919724,61.7437838 C117.699107,61.5232432 117.588799,61.1924324 117.47849,60.7513514 C117.257873,59.8691892 117.257873,58.987027 117.588799,58.2151351 C117.919724,57.4432432 118.9125,57.0021622 119.574351,57.5535135 C119.684659,57.6637838 119.794968,57.8843243 120.015584,57.8843243 C120.456818,57.9945946 120.567127,57.332973 120.787744,57.0021622 C121.118669,56.3405405 121.890828,56.0097297 122.44237,56.3405405 C122.552679,56.3405405 122.662987,56.4508108 122.773295,56.4508108 C123.324838,56.4508108 123.435146,55.4583784 123.986688,55.3481081 C124.317614,55.2378378 124.648539,55.4583784 124.869156,55.7891892 C125.200081,56.12 125.641315,56.5610811 125.97224,56.8918919 C126.523782,57.4432432 127.185633,58.2151351 127.295942,59.0972973 C127.40625,59.7589189 127.075325,60.4205405 126.854708,61.0821622 C126.413474,62.2951351 125.861932,63.6183784 124.758847,64.28" id="Path" fill="#F3ABA8"></path>
                        <path d="M143.731899,265.523243 C144.283442,265.302703 144.724675,265.964324 144.283442,266.405405 L131.487662,279.858378 L128.068101,279.858378 L124.317614,270.816216 L128.950568,268.28 L131.708279,270.816216 L143.731899,265.523243 Z" id="Path" fill="#2F383F"></path>
                        <path d="M25.0400162,276.770811 C25.48125,277.322162 27.5771104,279.858378 26.8049513,279.858378 L16.3256494,279.858378 L6.72881494,265.633514 L12.9060877,260.781622 L18.8627435,264.861622 L19.8555195,270.816216 L20.737987,275.116757 L25.0400162,276.770811 Z" id="Path" fill="#2F383F"></path>
                        <polygon id="Path" fill="#DF6B65" points="98.0642045 19.1794595 104.462094 20.1718919 100.601299 23.2594595"></polygon>
                        <path d="M43.1576343,89.4897297 C44.9625062,89.3794595 48.8396385,88.387027 50.1765806,86.4021622 C51.5135228,84.4172973 52.6499236,81.9913514 54.187407,80.4475676 C58.0645393,76.3675676 67.891064,76.0367568 71.7681963,71.9567568 C73.7736095,69.7513514 75.1773987,66.2227027 75.8458698,62.3632432 C76.5143409,58.5037838 76.3806467,54.4237838 75.9127169,50.4540541" id="Path" stroke="#221F1F" stroke-width="0.6363" stroke-linecap="round" stroke-linejoin="round"></path>
                    </g>
                </g>
                <path d="M1072.84421,242 C1122.52489,242 1170.25609,203.048773 1179.45482,155 C1188.65356,106.951227 1155.83647,68 1106.15579,68 C1056.47511,68 1008.74391,106.951227 999.545175,155 C990.346436,203.048773 1023.16353,242 1072.84421,242 Z" id="Oval" stroke="#BAC0C3" fill="#D8D8D8" fill-rule="nonzero"></path>
                <path d="M1033.03463,143.5 L1028.60547,166.5 L1141.96537,166.5 L1146.39453,143.5 L1033.03463,143.5 Z" id="Rectangle" stroke="#BAC0C3" fill="#FFFFFF" fill-rule="nonzero"></path>
            </g>
        </g>
    </g>
</svg>